<svg fill="none" height="143" viewBox="0 0 143 143" width="143" xmlns="http://www.w3.org/2000/svg"><path d="m83.1859 10.4356.3984.3125.4877-.1362 14.3035-3.99518 7.2895 12.93908.248.4412.503.0608 14.744 1.7827 1.782 14.7436.061.5027.441.2485 12.939 7.2892-3.995 14.3035-.136.4877.312.3984 9.165 11.6859-9.165 11.6859-.312.3984.136.4877 3.995 14.3035-12.939 7.2895-.441.248-.061.503-1.782 14.744-14.744 1.782-.503.061-.248.441-7.2895 12.939-14.3035-3.995-.4877-.136-.3984.312-11.6859 9.165-11.6859-9.165-.3984-.312-.4877.136-14.3035 3.995-7.2892-12.939-.2485-.441-.5027-.061-14.7436-1.782-1.7827-14.744-.0608-.503-.4412-.248-12.93908-7.2895 3.99518-14.3035.1362-.4877-.3125-.3984-9.16475-11.6859 9.16475-11.6859.3125-.3984-.1362-.4877-3.99517-14.3035 12.93907-7.2892.4412-.2485.0608-.5027 1.7827-14.7436 14.7436-1.7827.5027-.0608.2485-.4412 7.2892-12.93907 14.3035 3.99517.4877.1362.3984-.3125 11.6859-9.16475z" fill="#ffb82e" stroke="#000" stroke-width="2"/><g fill="#000"><path d="m45.207 53.2256v26.7744h-5.6035v-21.9873h-2.5976v-4.7871zm16.3653 27.4609c-3.3646 0-5.9128-1.1937-7.6446-3.581-1.7317-2.3998-2.5976-5.9252-2.5976-10.5762 0-4.5892.8659-8.0651 2.5976-10.4277 1.7318-2.375 4.28-3.5625 7.6446-3.5625 3.3274 0 5.8509 1.1875 7.5703 3.5625 1.7194 2.3626 2.5791 5.8385 2.5791 10.4277 0 4.651-.8597 8.1764-2.5791 10.5762-1.7194 2.3873-4.2429 3.581-7.5703 3.581zm0-4.7129c1.4349 0 2.5358-.7916 3.3027-2.375.7669-1.5957 1.1813-3.9521 1.2432-7.0693 0-3.0553-.3835-5.3623-1.1504-6.9209-.767-1.571-1.8988-2.3564-3.3955-2.3564-1.472 0-2.6039.7854-3.3955 2.3564-.7793 1.5586-1.1937 3.8656-1.2432 6.9209 0 3.1172.3896 5.4736 1.1689 7.0693.7917 1.5834 1.9483 2.375 3.4698 2.375zm20.707-10.205c-1.3236 0-2.474-.2598-3.4512-.7793-.9648-.5196-1.707-1.2618-2.2265-2.2266-.5196-.9772-.7793-2.1276-.7793-3.4512 0-1.3235.2597-2.4677.7793-3.4326.5195-.9772 1.2617-1.7256 2.2265-2.2451.9772-.5195 2.1276-.7793 3.4512-.7793s2.4678.2598 3.4326.7793c.9772.5195 1.7256 1.2679 2.2451 2.2451.5196.9649.7793 2.1091.7793 3.4326 0 1.3236-.2597 2.474-.7793 3.4512-.5195.9648-1.2679 1.707-2.2451 2.2266-.9648.5195-2.109.7793-3.4326.7793zm2.876 14.2314h-5.3067l17.9053-26.7744h5.3071zm-2.876-17.6826c.6432 0 1.1504-.266 1.5215-.7979s.5566-1.2679.5566-2.208-.1855-1.6761-.5566-2.208-.8783-.7978-1.5215-.7978-1.1504.2659-1.5215.7978-.5566 1.2679-.5566 2.208.1855 1.6761.5566 2.208.8783.7979 1.5215.7979zm18.2397 17.9424c-1.324 0-2.4744-.2598-3.4516-.7793-.9649-.5196-1.707-1.2617-2.2266-2.2266-.5195-.9772-.7793-2.1276-.7793-3.4512 0-1.3235.2598-2.4677.7793-3.4326.5196-.9772 1.2617-1.7256 2.2266-2.2451.9772-.5195 2.1276-.7793 3.4516-.7793 1.323 0 2.467.2598 3.432.7793.977.5195 1.726 1.2679 2.245 2.2451.52.9649.78 2.1091.78 3.4326 0 1.3236-.26 2.474-.78 3.4512-.519.9649-1.268 1.707-2.245 2.2266-.965.5195-2.109.7793-3.432.7793zm0-3.4512c.643 0 1.15-.266 1.521-.7979s.557-1.2679.557-2.208-.186-1.6761-.557-2.208-.878-.7978-1.521-.7978c-.6437 0-1.1508.2659-1.5219.7978s-.5567 1.2679-.5567 2.208.1856 1.6761.5567 2.208.8782.7979 1.5219.7979zm-50.2836 35.8784c-2.7214 0-5.1273-.588-7.2178-1.763-2.0781-1.175-3.6924-2.827-4.8428-4.954-1.138-2.128-1.707-4.589-1.707-7.385 0-2.7832.569-5.2325 1.707-7.3477 1.1504-2.1276 2.7647-3.7728 4.8428-4.9355 2.0905-1.1752 4.4964-1.7627 7.2178-1.7627 2.7089 0 5.0963.5875 7.1621 1.7627 2.0781 1.1627 3.6862 2.8079 4.8242 4.9355 1.1504 2.1152 1.7256 4.5645 1.7256 7.3477 0 2.796-.569 5.257-1.7071 7.385-1.138 2.127-2.7461 3.779-4.8242 4.954s-4.4717 1.763-7.1806 1.763zm0-4.788c1.608 0 3.0244-.383 4.249-1.15 1.2246-.779 2.1709-1.874 2.8388-3.284.6804-1.41 1.0206-3.037 1.0206-4.88 0-1.8308-.3402-3.445-1.0206-4.8428-.6679-1.3978-1.6142-2.4802-2.8388-3.2471-1.2246-.7793-2.641-1.1689-4.249-1.1689-1.6205 0-3.0492.3896-4.2862 1.1689-1.2246.7669-2.1771 1.8493-2.8574 3.2471s-1.0205 3.012-1.0205 4.8428c0 1.843.3402 3.47 1.0205 4.88s1.6328 2.505 2.8574 3.284c1.237.767 2.6657 1.15 4.2862 1.15zm23.416 4.101h-5.6035v-26.7744h17.6826v4.7871h-12.0791v6.1602h10.9101v4.7871h-10.9101zm21.7832 0h-5.6035v-26.7744h17.6829v4.7871h-12.0794v6.1602h10.9104v4.7871h-10.9104z"/><path d="m36.0781 42h-1.7031v-11.2734h7.1953v1.4687h-5.4922v3.3516h5v1.4687h-5zm10.7735.1641c-.8177 0-1.5495-.1875-2.1954-.5625-.6458-.375-1.151-.8959-1.5156-1.5625-.3594-.6667-.539-1.4219-.539-2.2657 0-.8437.1796-1.5963.539-2.2578.3646-.6666.8698-1.1849 1.5156-1.5547.6459-.375 1.3777-.5625 2.1954-.5625s1.5468.1875 2.1875.5625c.6458.3698 1.1484.8881 1.5078 1.5547.3646.6615.5469 1.4141.5469 2.2578 0 .849-.1823 1.6068-.5469 2.2735-.3594.6614-.862 1.1797-1.5078 1.5547-.6407.375-1.3698.5625-2.1875.5625zm0-1.4375c.5 0 .9453-.125 1.3359-.375.3958-.2552.7031-.6068.9219-1.0547.2239-.4479.3359-.9558.3359-1.5235s-.112-1.0729-.3359-1.5156c-.2188-.4479-.5261-.7969-.9219-1.0469s-.8437-.375-1.3437-.375-.948.125-1.3438.375c-.3906.25-.6979.599-.9219 1.0469-.2187.4427-.3281.9479-.3281 1.5156s.1094 1.0756.3281 1.5235c.224.4479.5339.7995.9297 1.0547.3958.25.8438.375 1.3438.375zm9.8437 1.4375c-.8177 0-1.5495-.1875-2.1953-.5625s-1.151-.8959-1.5156-1.5625c-.3594-.6667-.5391-1.4219-.5391-2.2657 0-.8437.1797-1.5963.5391-2.2578.3646-.6666.8698-1.1849 1.5156-1.5547.6458-.375 1.3776-.5625 2.1953-.5625s1.5469.1875 2.1875.5625c.6458.3698 1.1484.8881 1.5078 1.5547.3646.6615.5469 1.4141.5469 2.2578 0 .849-.1823 1.6068-.5469 2.2735-.3594.6614-.862 1.1797-1.5078 1.5547-.6406.375-1.3698.5625-2.1875.5625zm0-1.4375c.5 0 .9453-.125 1.3359-.375.3959-.2552.7032-.6068.9219-1.0547.224-.4479.336-.9558.336-1.5235s-.112-1.0729-.336-1.5156c-.2187-.4479-.526-.7969-.9219-1.0469-.3958-.25-.8437-.375-1.3437-.375s-.9479.125-1.3437.375c-.3907.25-.698.599-.9219 1.0469-.2188.4427-.3281.9479-.3281 1.5156s.1093 1.0756.3281 1.5235c.2239.4479.5338.7995.9297 1.0547.3958.25.8437.375 1.3437.375zm12.0391-10.2422h1.6484v11.5156h-1.6484v-1.3047h-.0625c-.2709.4375-.6328.7917-1.086 1.0625-.4531.2656-.9948.3984-1.625.3984-.7031 0-1.3333-.177-1.8906-.5312s-.9948-.8516-1.3125-1.4922c-.3125-.6458-.4687-1.3802-.4687-2.2031 0-.8854.1588-1.6719.4765-2.3594s.7578-1.2213 1.3203-1.6015c.5677-.3803 1.2058-.5704 1.9141-.5704.5833 0 1.1068.1355 1.5703.4063.4688.2656.8412.638 1.1172 1.1172h.0469zm-2.461 10.4297c.4844 0 .9063-.1224 1.2657-.3672.3645-.25.6458-.5677.8437-.9531.2031-.3907.3203-.7943.3516-1.211v-.9453c-.0313-.4948-.1563-.9505-.375-1.3672-.2188-.4167-.5052-.7448-.8594-.9844-.3542-.2448-.7448-.3671-1.1719-.3671-.4323 0-.8307.138-1.1953.414-.3646.2708-.6562.6511-.875 1.1406-.2135.4844-.3203 1.0365-.3203 1.6563 0 .5781.1042 1.0937.3125 1.5469.2135.4531.4974.8073.8516 1.0625.3593.25.75.375 1.1718.375zm16.1485-.1563c.6666 0 1.289-.1797 1.8672-.539.5833-.3594 1.0937-.9037 1.5312-1.6329l1.0625.9844c-.4792.9011-1.0937 1.5729-1.8437 2.0156-.75.4375-1.6224.6563-2.6172.6563-1.0781 0-2.0391-.2448-2.8828-.7344-.8386-.4948-1.4974-1.1875-1.9766-2.0781-.474-.8906-.7187-1.9115-.7344-3.0625.0157-1.1511.2604-2.1719.7344-3.0625.4792-.8958 1.138-1.5886 1.9766-2.0781.8437-.4948 1.8047-.7422 2.8828-.7422.9896 0 1.8593.2213 2.6093.664.7553.4427 1.3724 1.1172 1.8516 2.0235l-1.0625.9765c-.4375-.7291-.9453-1.2734-1.5234-1.6328s-1.2031-.539-1.875-.539c-.7396 0-1.4011.1849-1.9844.5546-.5833.3698-1.0443.8881-1.3828 1.5547-.3333.6615-.5052 1.4219-.5156 2.2813.0104.8594.1823 1.6224.5156 2.289.3333.6615.7917 1.1771 1.375 1.5469s1.2474.5547 1.9922.5547zm10.0234 1.4063c-.8177 0-1.5495-.1875-2.1953-.5625s-1.151-.8959-1.5156-1.5625c-.3594-.6667-.5391-1.4219-.5391-2.2657 0-.8437.1797-1.5963.5391-2.2578.3646-.6666.8698-1.1849 1.5156-1.5547.6458-.375 1.3776-.5625 2.1953-.5625s1.5469.1875 2.1875.5625c.6458.3698 1.1484.8881 1.5078 1.5547.3646.6615.5469 1.4141.5469 2.2578 0 .849-.1823 1.6068-.5469 2.2735-.3594.6614-.862 1.1797-1.5078 1.5547-.6406.375-1.3698.5625-2.1875.5625zm0-1.4375c.5 0 .9453-.125 1.3359-.375.3959-.2552.7032-.6068.9219-1.0547.224-.4479.336-.9558.336-1.5235s-.112-1.0729-.336-1.5156c-.2187-.4479-.526-.7969-.9219-1.0469-.3958-.25-.8437-.375-1.3437-.375s-.9479.125-1.3437.375c-.3907.25-.698.599-.9219 1.0469-.2188.4427-.3281.9479-.3281 1.5156s.1093 1.0756.3281 1.5235c.2239.4479.5338.7995.9297 1.0547.3958.25.8437.375 1.3437.375zm7.6717-8.7657h-1.7498v-1.75h1.7498zm-.047 10.0391h-1.6481v-8.4375h1.6481zm6.446-8.6016c1.026 0 1.807.2917 2.343.875.542.5834.813 1.4245.813 2.5235v5.2031h-1.656v-4.8594c0-.7708-.172-1.3515-.516-1.7422-.339-.3906-.839-.5859-1.5-.5859-.359 0-.685.0964-.977.2891-.286.1927-.518.4583-.695.7968-.177.3334-.279.7084-.305 1.125v4.9766h-1.656v-8.4375h1.656v1.3594h.071c.208-.4844.528-.8594.961-1.125.437-.2657.924-.3985 1.461-.3985z"/></g></svg>