<svg fill="none" height="32" viewBox="0 0 136 32" width="136" xmlns="http://www.w3.org/2000/svg"><path d="m1.74997 14.5c0-.4142-.33579-.75-.750004-.75s-.749998.3358-.749997.75zm26.75003-4 .6022-.447c-.1446-.1948-.3745-.30763-.617-.30285-.2425.00477-.4678.12655-.6046.32685zm106.746-8.42363c.042-.41206-.258-.78029-.67-.82247l-6.715-.687355c-.412-.042179-.78.257669-.822.669725-.042.41206.258.7803.67.82248l5.968.61098-.61 5.96881c-.043.41206.257.78029.669.82247s.781-.25766.823-.66973zm-134.996031 12.42363c.000009 1.8696.958681 3.8912 2.539631 5.522 1.59266 1.643 3.86617 2.9448 6.60178 3.3451 5.52062.8079 12.64172-2.0679 19.72792-12.4441l-1.2387-.846c-6.9138 10.1238-13.5427 12.498-18.27202 11.8059-2.38939-.3497-4.36587-1.4854-5.74196-2.9049-1.38781-1.4317-2.11664-3.0976-2.11665-4.478zm27.647731-3.553c6.1195 8.2443 18.81 17.6389 37.0378 19.2127 18.2424 1.5751 41.9295-4.6897 70.0385-27.57812l-.948-1.16316c-27.891 22.71158-51.204 28.78008-68.9615 27.24688-17.7722-1.5345-30.0818-10.69-35.9623-18.6123z" fill="#0022d5"/></svg>