<svg width="320" height="320" viewBox="0 0 320 320" fill="none" xmlns="http://www.w3.org/2000/svg">
<path fill-rule="evenodd" clip-rule="evenodd" d="M248.483 95.1307C255.427 108.911 259.027 124.12 258.996 139.537C259.176 159.035 253.509 178.143 242.719 194.416C242.719 194.416 205.346 241.886 162.453 285.097C161.271 286.288 159.346 286.285 158.168 285.091C115.548 241.881 77.8944 194.416 77.8944 194.416C69.2434 181.629 63.725 167.001 61.7823 151.706C59.8397 136.411 61.5271 120.875 66.7088 106.347C71.8906 91.8187 80.4224 78.7034 91.6186 68.0546C102.815 57.4058 116.363 49.5203 131.176 45.0317C145.988 40.5432 161.651 39.5768 176.907 42.21C192.162 44.8432 206.585 51.0028 219.016 60.1937C231.447 69.3846 241.54 81.3508 248.483 95.1307ZM160 180.17C182.317 180.17 200.408 162.078 200.408 139.761C200.408 117.445 182.317 99.3533 160 99.3533C137.683 99.3533 119.592 117.445 119.592 139.761C119.592 162.078 137.683 180.17 160 180.17Z" fill="#E5E5E5"/>
<path d="M258.996 139.537L256.496 139.532L256.496 139.546L256.496 139.56L258.996 139.537ZM248.483 95.1307L246.25 96.2556L248.483 95.1307ZM242.719 194.416L244.684 195.962L244.747 195.882L244.803 195.797L242.719 194.416ZM162.453 285.097L164.227 286.859H164.227L162.453 285.097ZM158.168 285.091L156.388 286.846H156.388L158.168 285.091ZM77.8944 194.416L75.8238 195.817L75.8769 195.895L75.9358 195.969L77.8944 194.416ZM61.7823 151.706L64.2624 151.391L61.7823 151.706ZM91.6186 68.0546L89.8957 66.2431L91.6186 68.0546ZM131.176 45.0317L130.451 42.6392L131.176 45.0317ZM176.907 42.21L177.332 39.7464L176.907 42.21ZM219.016 60.1937L220.502 58.1835L219.016 60.1937ZM261.496 139.542C261.528 123.732 257.836 108.136 250.716 94.0057L246.25 96.2556C253.017 109.685 256.526 124.508 256.496 139.532L261.496 139.542ZM244.803 195.797C255.868 179.109 261.681 159.512 261.496 139.514L256.496 139.56C256.672 158.558 251.15 177.177 240.636 193.034L244.803 195.797ZM164.227 286.859C185.735 265.192 205.846 242.469 220.575 225.173C227.941 216.522 233.965 209.224 238.148 204.087C240.24 201.518 241.872 199.489 242.982 198.101C243.537 197.407 243.962 196.874 244.248 196.513C244.391 196.333 244.499 196.195 244.572 196.103C244.609 196.057 244.636 196.022 244.655 195.998C244.664 195.987 244.671 195.978 244.676 195.972C244.679 195.969 244.68 195.966 244.682 195.965C244.682 195.964 244.683 195.963 244.683 195.963C244.683 195.962 244.684 195.962 242.719 194.416C240.755 192.869 240.755 192.869 240.755 192.869C240.755 192.87 240.754 192.87 240.754 192.871C240.753 192.872 240.751 192.874 240.749 192.877C240.745 192.882 240.738 192.891 240.729 192.902C240.712 192.924 240.685 192.958 240.649 193.003C240.578 193.093 240.472 193.228 240.331 193.405C240.048 193.761 239.628 194.29 239.077 194.978C237.976 196.355 236.353 198.373 234.271 200.929C230.107 206.043 224.107 213.313 216.768 221.931C202.086 239.173 182.065 261.792 160.679 283.336L164.227 286.859ZM156.388 286.846C158.543 289.031 162.066 289.036 164.227 286.859L160.679 283.336C160.477 283.539 160.149 283.539 159.948 283.335L156.388 286.846ZM77.8944 194.416C75.9358 195.969 75.936 195.97 75.9364 195.97C75.9367 195.97 75.9372 195.971 75.9378 195.972C75.9391 195.973 75.9409 195.976 75.9433 195.979C75.9481 195.985 75.9552 195.994 75.9646 196.006C75.9833 196.029 76.0111 196.064 76.0478 196.11C76.1212 196.202 76.2305 196.339 76.3745 196.52C76.6625 196.88 77.0898 197.414 77.6482 198.107C78.765 199.494 80.4067 201.523 82.5093 204.091C86.7144 209.227 92.7641 216.524 100.147 225.173C114.91 242.466 135.021 265.183 156.388 286.846L159.948 283.335C138.695 261.788 118.669 239.168 103.95 221.926C96.5924 213.307 90.5649 206.037 86.3781 200.923C84.2847 198.367 82.6517 196.349 81.5429 194.972C80.9885 194.283 80.5651 193.755 80.2808 193.399C80.1386 193.221 80.0312 193.086 79.9596 192.996C79.9238 192.951 79.8969 192.917 79.8791 192.895C79.8702 192.884 79.8635 192.875 79.8592 192.87C79.857 192.867 79.8554 192.865 79.8543 192.864C79.8538 192.863 79.8535 192.863 79.8532 192.862C79.853 192.862 79.8529 192.862 77.8944 194.416ZM59.3023 152.021C61.2944 167.706 66.9533 182.706 75.8238 195.817L79.965 193.015C71.5335 180.553 66.1556 166.297 64.2624 151.391L59.3023 152.021ZM64.3541 105.507C59.0405 120.405 57.3101 136.336 59.3023 152.021L64.2624 151.391C62.3693 136.485 64.0136 121.345 69.0636 107.187L64.3541 105.507ZM89.8957 66.2431C78.4162 77.1613 69.6677 90.6093 64.3541 105.507L69.0636 107.187C74.1135 93.0281 82.4286 80.2455 93.3415 69.8661L89.8957 66.2431ZM130.451 42.6392C115.266 47.2407 101.375 55.3249 89.8957 66.2431L93.3415 69.8661C104.255 59.4866 117.461 51.7999 131.901 47.4243L130.451 42.6392ZM177.332 39.7464C161.693 37.047 145.636 38.0377 130.451 42.6392L131.901 47.4243C146.34 43.0487 161.61 42.1065 176.482 44.6736L177.332 39.7464ZM220.502 58.1835C207.757 48.7604 192.971 42.4459 177.332 39.7464L176.482 44.6736C191.354 47.2406 205.413 53.2451 217.53 62.2039L220.502 58.1835ZM250.716 94.0057C243.596 79.8757 233.247 67.6066 220.502 58.1835L217.53 62.2039C229.647 71.1627 239.483 82.8259 246.25 96.2556L250.716 94.0057ZM197.908 139.761C197.908 160.698 180.936 177.67 160 177.67V182.67C183.698 182.67 202.908 163.459 202.908 139.761H197.908ZM160 101.853C180.936 101.853 197.908 118.825 197.908 139.761H202.908C202.908 116.064 183.698 96.8533 160 96.8533V101.853ZM122.092 139.761C122.092 118.825 139.064 101.853 160 101.853V96.8533C136.302 96.8533 117.092 116.064 117.092 139.761H122.092ZM160 177.67C139.064 177.67 122.092 160.698 122.092 139.761H117.092C117.092 163.459 136.302 182.67 160 182.67V177.67Z" fill="black"/>
<path fill-rule="evenodd" clip-rule="evenodd" d="M251.477 177.684C256.324 166.004 259 153.195 259 139.761C259 85.0853 214.676 40.7615 160 40.7615C105.324 40.7615 61 85.0853 61 139.761C61 154.539 64.2376 168.56 70.0423 181.154C67.8532 183.584 66.5208 186.8 66.5208 190.328C66.5208 197.9 72.6591 204.038 80.2311 204.038C81.9072 204.038 83.513 203.738 84.9975 203.187C88.0312 205.228 92.0297 206.866 96.5739 206.695C101.555 206.507 104.811 204.714 108.063 202.923C111.669 200.937 115.272 198.953 121.22 199.161C126.61 199.35 129.249 201.069 131.932 202.817C134.882 204.738 137.885 206.695 144.655 206.695C151.676 206.695 155.111 203.276 158.571 199.833C162.08 196.342 165.614 192.825 172.938 192.825C182.265 192.825 186.352 198.304 190.137 203.379C193.403 207.756 196.445 211.833 202.433 211.833C208.663 211.833 211.14 207.79 213.708 203.6C216.468 199.094 219.333 194.419 227.079 194.419C228.305 194.419 229.531 194.727 230.707 195.218C233.143 199.023 237.408 201.546 242.262 201.546C249.834 201.546 255.972 195.407 255.972 187.835C255.972 183.811 254.238 180.192 251.477 177.684ZM200.408 139.761C200.408 162.078 182.317 180.17 160 180.17C137.683 180.17 119.592 162.078 119.592 139.761C119.592 117.445 137.683 99.3533 160 99.3533C182.317 99.3533 200.408 117.445 200.408 139.761Z" fill="#FFB82E"/>
<path d="M251.477 177.684L249.168 176.726L248.493 178.351L249.796 179.534L251.477 177.684ZM70.0423 181.154L71.8996 182.828L73.0023 181.604L72.3128 180.108L70.0423 181.154ZM84.9975 203.187L86.3932 201.113L85.3299 200.398L84.1283 200.843L84.9975 203.187ZM96.5739 206.695L96.4797 204.197L96.5739 206.695ZM108.063 202.923L106.857 200.733H106.857L108.063 202.923ZM121.22 199.161L121.308 196.663H121.308L121.22 199.161ZM131.932 202.817L130.568 204.912H130.568L131.932 202.817ZM158.571 199.833L156.808 198.061H156.808L158.571 199.833ZM190.137 203.379L188.134 204.873L190.137 203.379ZM213.708 203.6L215.839 204.906L213.708 203.6ZM230.707 195.218L232.812 193.87L232.391 193.212L231.67 192.911L230.707 195.218ZM256.5 139.761C256.5 152.861 253.891 165.344 249.168 176.726L253.786 178.642C258.757 166.664 261.5 153.53 261.5 139.761H256.5ZM160 43.2615C213.296 43.2615 256.5 86.466 256.5 139.761H261.5C261.5 83.7046 216.057 38.2615 160 38.2615V43.2615ZM63.5 139.761C63.5 86.466 106.705 43.2615 160 43.2615V38.2615C103.943 38.2615 58.5 83.7046 58.5 139.761H63.5ZM72.3128 180.108C66.6563 167.835 63.5 154.17 63.5 139.761H58.5C58.5 154.907 61.819 169.285 67.7719 182.201L72.3128 180.108ZM68.185 179.481C65.5983 182.352 64.0208 186.159 64.0208 190.328H69.0208C69.0208 187.442 70.1082 184.816 71.8996 182.828L68.185 179.481ZM64.0208 190.328C64.0208 199.281 71.2784 206.538 80.2311 206.538V201.538C74.0398 201.538 69.0208 196.519 69.0208 190.328H64.0208ZM80.2311 206.538C82.2082 206.538 84.1081 206.183 85.8667 205.531L84.1283 200.843C82.9178 201.292 81.6061 201.538 80.2311 201.538V206.538ZM96.4797 204.197C92.6014 204.343 89.1169 202.946 86.3932 201.113L83.6019 205.261C86.9455 207.511 91.458 209.389 96.6681 209.193L96.4797 204.197ZM106.857 200.733C103.624 202.514 100.822 204.033 96.4797 204.197L96.6681 209.193C102.289 208.981 105.997 206.915 109.269 205.113L106.857 200.733ZM121.308 196.663C114.634 196.429 110.517 198.718 106.857 200.733L109.269 205.113C112.821 203.157 115.909 201.477 121.133 201.66L121.308 196.663ZM133.297 200.722C130.484 198.89 127.38 196.876 121.308 196.663L121.133 201.66C125.84 201.825 128.013 203.248 130.568 204.912L133.297 200.722ZM144.655 204.195C141.524 204.195 139.38 203.744 137.731 203.132C136.058 202.512 134.782 201.689 133.297 200.722L130.568 204.912C132.032 205.866 133.733 206.982 135.991 207.82C138.273 208.667 141.016 209.195 144.655 209.195V204.195ZM156.808 198.061C153.388 201.465 150.589 204.195 144.655 204.195V209.195C152.762 209.195 156.835 205.088 160.334 201.605L156.808 198.061ZM172.938 190.325C168.833 190.325 165.681 191.322 163.057 192.865C160.504 194.366 158.531 196.347 156.808 198.061L160.334 201.605C162.12 199.829 163.668 198.306 165.591 197.175C167.442 196.087 169.718 195.325 172.938 195.325V190.325ZM192.141 201.884C190.282 199.392 188.112 196.456 185.12 194.202C182.034 191.878 178.155 190.325 172.938 190.325V195.325C177.047 195.325 179.875 196.512 182.112 198.196C184.441 199.95 186.207 202.291 188.134 204.873L192.141 201.884ZM202.433 209.333C197.869 209.333 195.529 206.426 192.141 201.884L188.134 204.873C191.277 209.087 195.02 214.333 202.433 214.333V209.333ZM211.576 202.294C210.251 204.456 209.174 206.177 207.779 207.423C206.505 208.56 204.916 209.333 202.433 209.333V214.333C206.179 214.333 208.944 213.085 211.109 211.153C213.152 209.329 214.597 206.933 215.839 204.906L211.576 202.294ZM227.079 191.919C222.629 191.919 219.396 193.288 216.901 195.418C214.519 197.451 212.919 200.102 211.576 202.294L215.839 204.906C217.257 202.592 218.47 200.653 220.147 199.221C221.711 197.887 223.783 196.919 227.079 196.919V191.919ZM231.67 192.911C230.277 192.329 228.72 191.919 227.079 191.919V196.919C227.89 196.919 228.784 197.124 229.743 197.525L231.67 192.911ZM228.601 196.566C231.478 201.059 236.52 204.046 242.262 204.046V199.046C238.296 199.046 234.808 196.988 232.812 193.87L228.601 196.566ZM242.262 204.046C251.214 204.046 258.472 196.788 258.472 187.835H253.472C253.472 194.027 248.453 199.046 242.262 199.046V204.046ZM258.472 187.835C258.472 183.077 256.419 178.795 253.158 175.833L249.796 179.534C252.058 181.589 253.472 184.545 253.472 187.835H258.472ZM160 182.67C183.698 182.67 202.908 163.459 202.908 139.761H197.908C197.908 160.698 180.936 177.67 160 177.67V182.67ZM117.092 139.761C117.092 163.459 136.302 182.67 160 182.67V177.67C139.064 177.67 122.092 160.698 122.092 139.761H117.092ZM160 96.8533C136.302 96.8533 117.092 116.064 117.092 139.761H122.092C122.092 118.825 139.064 101.853 160 101.853V96.8533ZM202.908 139.761C202.908 116.064 183.698 96.8533 160 96.8533V101.853C180.936 101.853 197.908 118.825 197.908 139.761H202.908Z" fill="black"/>
</svg>
