<svg width="32" height="32" viewBox="0 0 32 32" fill="none" xmlns="http://www.w3.org/2000/svg">
<path d="M29 8.36772C28.0434 8.76969 27.0153 9.0404 25.9363 9.16243C27.0381 8.53794 27.8842 7.5484 28.2818 6.36916C27.2515 6.9475 26.1097 7.36792 24.8942 7.59454C23.9224 6.61321 22.5347 6 21.0007 6C17.5567 6 15.0261 9.04143 15.8039 12.1987C11.372 11.9885 7.44167 9.97867 4.81025 6.92391C3.41275 9.19319 4.0855 12.1618 6.46017 13.6651C5.587 13.6384 4.76367 13.4118 4.04542 13.0334C3.98692 15.3724 5.75817 17.5607 8.3235 18.0478C7.57275 18.2406 6.7505 18.2857 5.91417 18.1339C6.59233 20.1397 8.56183 21.5988 10.8975 21.6399C8.655 23.3041 5.82967 24.0476 3 23.7317C5.36058 25.1643 8.16533 26 11.177 26C21.0808 26 26.6763 18.0826 26.3382 10.9815C27.3804 10.2689 28.285 9.37982 29 8.36772Z" fill="black"/>
</svg>
