<svg fill="none" height="584" viewBox="0 0 544 584" width="544" xmlns="http://www.w3.org/2000/svg" xmlns:xlink="http://www.w3.org/1999/xlink"><mask id="a" fill="#fff"><path clip-rule="evenodd" d="m272 160c44.183 0 80-35.817 80-80 0-44.1828-35.817-80-80-80s-80 35.8172-80 80c0 44.183 35.817 80 80 80zm0-50c16.569 0 30-13.4315 30-30s-13.431-30-30-30-30 13.4315-30 30 13.431 30 30 30z" fill="#fff" fill-rule="evenodd"/></mask><circle cx="80" cy="80" fill="#0022d5" r="79" stroke="#17203b" stroke-width="2"/><circle cx="80" cy="272" fill="#fff" r="79" stroke="#000" stroke-width="2"/><circle cx="80" cy="272" fill="#fff" r="53" stroke="#000" stroke-width="2"/><circle cx="80" cy="272" fill="#000" r="46" stroke="#000" stroke-width="2"/><circle cx="464" cy="272" fill="#47cbab" r="79" stroke="#000" stroke-width="2"/><path d="m343.378 304-140.378 109.947v-219.894z" fill="#fff" stroke="#000" stroke-linecap="round" stroke-linejoin="round" stroke-width="2"/><path d="m342.721 304.515-139.721 109.432v-140.698z" fill="#fff" stroke="#000" stroke-linecap="round" stroke-linejoin="round" stroke-width="2"/><path d="m302.38 336-99.38 77.945v-155.89z" fill="#ff6c69" stroke="#000" stroke-linecap="round" stroke-linejoin="round" stroke-width="2"/><circle cx="464" cy="80" fill="#fff" r="79" stroke="#000" stroke-width="2"/><rect fill="#000" height="200" rx="80" width="160" y="384"/><path d="m544 584v-206h-196l-156 122v84z" fill="#f9812a"/><circle cx="80" cy="464" r="59" stroke="#fff" stroke-width="2"/><path clip-rule="evenodd" d="m272 160c44.183 0 80-35.817 80-80 0-44.1828-35.817-80-80-80s-80 35.8172-80 80c0 44.183 35.817 80 80 80zm0-50c16.569 0 30-13.4315 30-30s-13.431-30-30-30-30 13.4315-30 30 13.431 30 30 30z" fill="#ffb82e" fill-rule="evenodd"/><path d="m350 80c0 43.078-34.922 78-78 78v4c45.287 0 82-36.713 82-82zm-78-78c43.078 0 78 34.9218 78 78h4c0-45.2873-36.713-82-82-82zm-78 78c0-43.0782 34.922-78 78-78v-4c-45.287 0-82 36.7127-82 82zm78 78c-43.078 0-78-34.922-78-78h-4c0 45.287 36.713 82 82 82zm28-78c0 15.464-12.536 28-28 28v4c17.673 0 32-14.3269 32-32zm-28-28c15.464 0 28 12.536 28 28h4c0-17.6731-14.327-32-32-32zm-28 28c0-15.464 12.536-28 28-28v-4c-17.673 0-32 14.3269-32 32zm28 28c-15.464 0-28-12.536-28-28h-4c0 17.6731 14.327 32 32 32z" fill="#292b31" mask="url(#a)"/><g fill="#fff"><path d="m322 80c0-1.1046.895-2 2-2h10c1.105 0 2 .8954 2 2s-.895 2-2 2h-10c-1.105 0-2-.8954-2-2z"/><path d="m205 61c0-1.1046.895-2 2-2h10c1.105 0 2 .8954 2 2s-.895 2-2 2h-10c-1.105 0-2-.8954-2-2z"/><path d="m230 112c0-1.105.895-2 2-2h10c1.105 0 2 .895 2 2s-.895 2-2 2h-10c-1.105 0-2-.895-2-2z"/><path d="m298.05 52.9494c-.781-.7811-.781-2.0474 0-2.8285l7.071-7.071c.781-.7811 2.048-.7811 2.829 0 .781.781.781 2.0474 0 2.8284l-7.071 7.0711c-.781.781-2.048.781-2.829 0z"/><path d="m330.414 61.3136c-.781-.781-.781-2.0474 0-2.8284l7.071-7.0711c.781-.781 2.048-.781 2.829 0 .781.7811.781 2.0474 0 2.8285l-7.071 7.071c-.781.7811-2.048.7811-2.829 0z"/><path d="m273.414 146.314c-.781-.781-.781-2.048 0-2.829l7.071-7.071c.781-.781 2.048-.781 2.829 0s.781 2.048 0 2.829l-7.071 7.071c-.781.781-2.048.781-2.829 0z"/><path d="m228.414 49.3136c-.781-.781-.781-2.0474 0-2.8284l7.071-7.0711c.781-.781 2.048-.781 2.829 0 .781.7811.781 2.0474 0 2.8285l-7.071 7.071c-.781.7811-2.048.7811-2.829 0z"/><path d="m251.364 14.3643c1.105 0 2 .8954 2 2v10c0 1.1045-.895 2-2 2s-2-.8955-2-2v-10c0-1.1046.895-2 2-2z"/><path d="m242 127c1.105 0 2 .895 2 2v10c0 1.105-.895 2-2 2s-2-.895-2-2v-10c0-1.105.895-2 2-2z"/><path d="m303 107c1.105 0 2 .895 2 2v10c0 1.105-.895 2-2 2s-2-.895-2-2v-10c0-1.105.895-2 2-2z"/><path d="m292.05 12.05c.781-.7811 2.048-.7811 2.829 0l7.071 7.071c.781.7811.781 2.0474 0 2.8285-.781.781-2.048.781-2.829 0l-7.071-7.0711c-.781-.7811-.781-2.0474 0-2.8284z"/><path d="m207.414 98.4142c.781-.781 2.048-.781 2.829 0l7.071 7.0708c.781.781.781 2.048 0 2.829s-2.048.781-2.829 0l-7.071-7.071c-.781-.781-.781-2.0477 0-2.8288z"/><path d="m320.414 105.414c.781-.781 2.048-.781 2.829 0l7.071 7.071c.781.781.781 2.048 0 2.829s-2.048.781-2.829 0l-7.071-7.071c-.781-.781-.781-2.048 0-2.829z"/></g></svg>