<svg fill="none" height="32" viewBox="0 0 32 32" width="32" xmlns="http://www.w3.org/2000/svg"><path d="m25.1856 7.56176c-1.6894-.77519-3.5011-1.34632-5.3953-1.67342-.0345-.00632-.069.00946-.0868.04101-.233.41441-.491.95503-.6718 1.37996-2.0373-.30501-4.0642-.30501-6.0598 0-.1808-.43437-.4482-.96555-.6823-1.37996-.0178-.0305-.0522-.04628-.0867-.04101-1.8932.32606-3.70486.89718-5.39535 1.67342-.01463.00631-.02718.01683-.0355.0305-3.43637 5.13384-4.37773 10.14154-3.91593 15.08714.00209.0242.01567.0473.03448.062 2.26722 1.665 4.4634 2.6758 6.6188 3.3458.0345.0105.07105-.0021.093-.0305.5099-.6963.9644-1.4304 1.354-2.2025.023-.0452.0011-.0988-.0459-.1167-.7209-.2735-1.40737-.6069-2.06768-.9856-.05223-.0305-.05641-.1052-.00836-.1409.13895-.1042.27794-.2125.41062-.3219.02401-.02.05746-.0242.08568-.0116 4.33794 1.9806 9.03434 1.9806 13.32114 0 .0283-.0136.0617-.0094.0868.0106.1327.1094.2716.2187.4116.3229.0481.0357.0449.1104-.0073.1409-.6603.386-1.3467.7121-2.0687.9845-.047.0179-.0679.0726-.0449.1178.398.771.8525 1.5051 1.353 2.2014.0209.0295.0585.0421.093.0316 2.1658-.67 4.362-1.6808 6.6292-3.3458.0199-.0147.0324-.0368.0345-.061.5527-5.7176-.9257-10.6842-3.919-15.0871-.0074-.01471-.0199-.02523-.0345-.03154zm-13.5813 12.10624c-1.3061 0-2.38221-1.199-2.38221-2.6716 0-1.4725 1.05531-2.6715 2.38221-2.6715 1.3373 0 2.403 1.2095 2.3821 2.6715 0 1.4726-1.0553 2.6716-2.3821 2.6716zm8.8076 0c-1.306 0-2.3821-1.199-2.3821-2.6716 0-1.4725 1.0552-2.6715 2.3821-2.6715 1.3374 0 2.403 1.2095 2.3822 2.6715 0 1.4726-1.0448 2.6716-2.3822 2.6716z" fill="#fff"/></svg>