<svg fill="none" height="541" viewBox="0 0 73 541" width="73" xmlns="http://www.w3.org/2000/svg"><path d="m37.2168 535.895h29.8594v-36.272h3.9238v40.674h-69.0498l-.00001-39.573h3.92383v35.171h27.41898v-32.348h3.9238zm33.7832-105.01v4.689l-22.0117 8.661v31.391l22.0117 8.565v4.738l-69.43262-27.467v-2.871zm-61.77637 29.333 35.93657 13.925v-28.424l-35.93657 14.116zm-7.27344-30.984v-49.382h3.92383v22.49h65.12598v4.402l-65.12598-.048v22.538zm68.95411-143.793-11.6279 11.293c3.9876 3.892 7.1139 7.784 9.3789 11.676 2.2649 3.86 3.3974 7.816 3.3974 11.867 0 5.36-1.3558 9.523-4.0674 12.49-2.7434 2.966-6.6035 4.45-11.58 4.45-3.3177 0-6.6993-1.228-10.1446-3.685-3.4453-2.456-7.066-6.747-10.8623-12.872-3.2858 3.382-6.3642 5.998-9.2353 7.848-2.8711 1.818-5.8379 2.727-8.9004 2.727-3.222 0-6.0612-.67-8.51759-2.009-2.48828-1.372-4.4183-3.27-5.79004-5.695-1.37175-2.456-2.057619-5.279-2.057619-8.469 0-3.254.685869-6.141 2.057619-8.662 1.37174-2.52 3.30176-4.482 5.79004-5.885 2.45639-1.404 5.27959-2.106 8.46969-2.106 2.9668 0 5.5508.702 7.752 2.106 2.1693 1.371 4.0195 3.094 5.5508 5.168 1.5312 2.041 3.206 4.673 5.0244 7.895l.5742 1.005 1.3877-1.436c2.1693-2.296 3.876-4.067 5.1201-5.311l11.1016-11.006c-3.9877-3.605-8.1348-6.891-12.4414-9.857l2.7754-2.967c5.3274 4.051 9.4586 7.417 12.3935 10.097.0638-.064 3.3975-3.35 10.001-9.858l4.5459-4.402zm-53.6895 41.679c2.6478 0 5.2318-.813 7.752-2.44 2.4883-1.659 5.3115-4.1 8.4697-7.322l-.6221-1.148c-1.7864-3.254-3.4293-5.854-4.9287-7.8-1.4993-1.946-3.1103-3.413-4.833-4.402-1.7545-.989-3.7643-1.484-6.0293-1.484-2.4564 0-4.6416.543-6.5556 1.627-1.9141 1.053-3.3975 2.536-4.45023 4.451-1.05274 1.914-1.5791 4.083-1.5791 6.507 0 2.361.54231 4.451 1.62695 6.269 1.05273 1.818 2.55208 3.238 4.49808 4.259 1.9459.989 4.1631 1.483 6.6513 1.483zm51.1534-6.651c0-3.222-1.0528-6.604-3.1582-10.145-2.1374-3.573-5.0404-7.193-8.709-10.862l-11.1973 10.91c-1.3398 1.308-3.3496 3.398-6.0293 6.269-.2871.255-.6859.67-1.1963 1.244 6.2845 9.985 12.4255 14.977 18.4229 14.977 3.7324 0 6.6513-1.1 8.7568-3.301 2.0736-2.202 3.1104-5.232 3.1104-9.092zm-31.1514-88.477h29.8594v-36.271h3.9238v40.674h-69.04982v-39.574h3.92383v35.171h27.41899v-32.347h3.9238zm33.7832-105.01v4.69l-22.0117 8.661v31.391l22.0117 8.565v4.737l-69.43263-27.466v-2.872zm-61.77638 29.333 35.93648 13.925v-28.424l-35.93648 14.117zm61.77638-90.7974v5.1679l-28.041 17.3223c.1595 1.3718.2392 2.6956.2392 3.9717v17.5615h27.8018v4.402h-69.04982v-21.5328c0-4.6576.84537-8.725 2.53613-12.2022 1.69075-3.4772 4.11523-6.1409 7.27339-7.9912 3.1263-1.8822 6.795-2.8232 11.0059-2.8232 4.8171 0 8.9004 1.2441 12.25 3.7324 3.3496 2.4564 5.6943 5.9017 7.0342 10.3359zm-31.5821 26.6054c0-3.7005-.6699-6.9225-2.0097-9.666-1.3399-2.7754-3.238-4.9127-5.6944-6.4121-2.4882-1.4993-5.4072-2.249-8.7568-2.249-3.4772 0-6.5078.7975-9.0918 2.3926-2.6159 1.5631-4.62564 3.7962-6.02928 6.6992-1.40365 2.903-2.10547 6.2845-2.10547 10.1445v16.5568h33.68745zm23.6387-87.01754-61.10643.00001v-4.402347l69.04983-.000003v4.4502l-61.20217 40.57808v.335h61.20217v4.4023h-69.04983v-4.3544l61.10643-40.62602z" fill="#292b31"/></svg>