<svg width="60" height="60" viewBox="0 0 60 60" fill="none" xmlns="http://www.w3.org/2000/svg">
<path fill-rule="evenodd" clip-rule="evenodd" d="M55.7143 29.9999C55.7143 44.2015 44.2016 55.7142 30 55.7142C15.7984 55.7142 4.28573 44.2015 4.28573 29.9999C4.28573 15.7983 15.7984 4.28564 30 4.28564C34.8538 4.28564 39.3935 5.63045 43.2668 7.9678C42.087 8.78464 41.3143 10.1477 41.3143 11.6913C41.3143 13.3592 42.2166 14.8164 43.5597 15.6014C43.3065 16.1661 43.1656 16.7922 43.1656 17.4512C43.1656 19.9507 45.1919 21.9769 47.6914 21.9769C48.4327 21.9769 49.1324 21.7987 49.75 21.4827C50.3264 23.3193 52.042 24.6516 54.0688 24.6516C54.4344 24.6516 54.79 24.6082 55.1305 24.5263C55.5129 26.2902 55.7143 28.1215 55.7143 29.9999ZM40.0799 29.9997C40.0799 35.5667 35.567 40.0797 30 40.0797C24.4329 40.0797 19.92 35.5667 19.92 29.9997C19.92 24.4327 24.4329 19.9197 30 19.9197C35.567 19.9197 40.0799 24.4327 40.0799 29.9997Z" fill="#FF6C69"/>
<path fill-rule="evenodd" clip-rule="evenodd" d="M50.2751 45.8185C45.5688 51.842 38.2368 55.7145 30.0004 55.7145C21.7944 55.7145 14.4862 51.8707 9.77805 45.8854C10.586 46.6426 11.9255 47.4457 13.5256 47.3854C14.8194 47.3366 15.6649 46.871 16.5097 46.4058C17.4464 45.8899 18.3822 45.3746 19.9272 45.4287C21.3272 45.4777 22.0125 45.9241 22.7096 46.3782C23.4756 46.8772 24.2558 47.3854 26.0141 47.3854C27.8377 47.3854 28.7301 46.4974 29.6287 45.6032C30.5401 44.6963 31.458 43.783 33.3603 43.783C35.783 43.783 36.8445 45.206 37.8278 46.5241C38.676 47.6611 39.466 48.7201 41.0213 48.7201C42.6395 48.7201 43.283 47.6698 43.9499 46.5815C44.667 45.4112 45.4111 44.1968 47.423 44.1968C48.5844 44.1968 49.7459 45.2607 50.2751 45.8185Z" fill="#FFCFA3"/>
<path fill-rule="evenodd" clip-rule="evenodd" d="M10.3421 38.3434C9.67261 37.6739 9.67261 36.5885 10.3421 35.919L13.0849 33.1761C13.7544 32.5067 14.8398 32.5067 15.5093 33.1761C16.1788 33.8456 16.1788 34.931 15.5093 35.6005L12.7664 38.3434C12.097 39.0128 11.0116 39.0128 10.3421 38.3434Z" fill="white"/>
<path fill-rule="evenodd" clip-rule="evenodd" d="M44.6964 33.1764C45.3659 32.5069 46.4513 32.5069 47.1208 33.1764L49.8636 35.9193C50.5331 36.5887 50.5331 37.6742 49.8636 38.3436C49.1941 39.0131 48.1087 39.0131 47.4392 38.3436L44.6964 35.6008C44.0269 34.9313 44.0269 33.8459 44.6964 33.1764Z" fill="white"/>
<path fill-rule="evenodd" clip-rule="evenodd" d="M49.5867 21.453C50.5335 21.453 51.301 22.2205 51.301 23.1673L51.301 27.0463C51.301 27.993 50.5335 28.7606 49.5867 28.7606C48.6399 28.7606 47.8724 27.993 47.8724 27.0463L47.8724 23.1673C47.8724 22.2205 48.6399 21.453 49.5867 21.453Z" fill="white"/>
<path fill-rule="evenodd" clip-rule="evenodd" d="M19.9638 11.9901C20.9106 11.9901 21.6781 12.7576 21.6781 13.7044L21.6781 17.5834C21.6781 18.5302 20.9106 19.2977 19.9638 19.2977C19.0171 19.2977 18.2495 18.5302 18.2495 17.5834L18.2495 13.7044C18.2495 12.7576 19.0171 11.9901 19.9638 11.9901Z" fill="white"/>
<path fill-rule="evenodd" clip-rule="evenodd" d="M11.329 25.8857C11.329 24.939 12.0966 24.1715 13.0433 24.1715L16.9223 24.1715C17.8691 24.1715 18.6366 24.939 18.6366 25.8857C18.6366 26.8325 17.8691 27.6 16.9223 27.6L13.0433 27.6C12.0966 27.6 11.329 26.8325 11.329 25.8857Z" fill="white"/>
<path fill-rule="evenodd" clip-rule="evenodd" d="M31.1193 9.93081C31.7887 9.26134 32.8742 9.26134 33.5436 9.93081L36.2865 12.6737C36.956 13.3431 36.956 14.4286 36.2865 15.098C35.617 15.7675 34.5316 15.7675 33.8621 15.098L31.1193 12.3552C30.4498 11.6857 30.4498 10.6003 31.1193 9.93081Z" fill="white"/>
<path fill-rule="evenodd" clip-rule="evenodd" d="M19.1878 44.515C18.5183 43.8455 18.5183 42.7601 19.1878 42.0906L21.9306 39.3478C22.6001 38.6783 23.6855 38.6783 24.355 39.3478C25.0245 40.0172 25.0245 41.1027 24.355 41.7721L21.6121 44.515C20.9427 45.1845 19.8572 45.1845 19.1878 44.515Z" fill="white"/>
<path fill-rule="evenodd" clip-rule="evenodd" d="M3 30C3 15.0883 15.0883 3 30 3C35.0944 3 39.863 4.41216 43.9311 6.8671C44.3045 7.09244 44.5383 7.49172 44.5519 7.92765C44.5656 8.36358 44.3573 8.77671 43.9987 9.02498C43.1509 9.61195 42.6 10.5875 42.6 11.6914C42.6 12.884 43.2436 13.9276 44.2085 14.4915C44.7755 14.8229 45.0017 15.5284 44.733 16.1277C44.5525 16.5302 44.4514 16.9773 44.4514 17.4514C44.4514 19.2408 45.902 20.6914 47.6914 20.6914C48.2244 20.6914 48.7238 20.5637 49.1643 20.3384C49.5015 20.1659 49.8976 20.1508 50.2469 20.2972C50.5962 20.4436 50.8632 20.7365 50.9766 21.0978C51.3897 22.4137 52.6196 23.3657 54.0686 23.3657C54.3323 23.3657 54.587 23.3345 54.8299 23.2761C55.1663 23.1952 55.5211 23.2533 55.8141 23.4373C56.1072 23.6213 56.3137 23.9156 56.387 24.2537C56.7887 26.1066 57 28.0294 57 30C57 44.9117 44.9117 57 30 57C15.0883 57 3 44.9117 3 30ZM30 5.57143C16.5085 5.57143 5.57143 16.5085 5.57143 30C5.57143 43.4915 16.5085 54.4286 30 54.4286C43.4915 54.4286 54.4286 43.4915 54.4286 30C54.4286 28.615 54.3134 27.2578 54.0924 25.9371C54.0845 25.9371 54.0765 25.9371 54.0686 25.9371C51.9435 25.9371 50.087 24.7972 49.0736 23.0972C48.63 23.2055 48.1669 23.2629 47.6914 23.2629C44.4818 23.2629 41.88 20.661 41.88 17.4514C41.88 16.9831 41.9356 16.5267 42.0409 16.089C40.8099 15.0245 40.0286 13.4497 40.0286 11.6914C40.0286 10.4069 40.4458 9.21998 41.1505 8.25867C37.8087 6.54106 34.0191 5.57143 30 5.57143ZM18.6343 30C18.6343 23.7229 23.7229 18.6343 30 18.6343C36.2771 18.6343 41.3657 23.7229 41.3657 30C41.3657 36.2771 36.2771 41.3657 30 41.3657C23.7229 41.3657 18.6343 36.2771 18.6343 30ZM30 21.2057C25.143 21.2057 21.2057 25.143 21.2057 30C21.2057 34.8569 25.143 38.7943 30 38.7943C34.8569 38.7943 38.7943 34.8569 38.7943 30C38.7943 25.143 34.8569 21.2057 30 21.2057Z" fill="black"/>
</svg>
