<svg fill="none" height="32" viewBox="0 0 85 32" width="85" xmlns="http://www.w3.org/2000/svg"><g fill="#17213b"><path d="m3.87806 12.4884h4.53205l-.79749-3.03433h-7.041209v13.49893l3.306649-.1556v-4.6293h3.28719v-2.8204h-3.28719z"/><path d="m17.6947 12.1772c2.1007 0 3.8124 1.9062 3.8124 3.9485s-1.7117 3.9485-3.8124 3.9485-3.8124-1.9062-3.8124-3.9485 1.7117-3.9485 3.8124-3.9485zm0-3.03435c-3.8902 0-7.119 3.09265-7.119 6.98285s3.2288 6.9829 7.119 6.9829 7.119-3.0927 7.119-6.9829-3.2288-6.98285-7.119-6.98285z"/><path d="m34.7788 12.1772c2.1007 0 3.8123 1.9062 3.8123 3.9485s-1.7116 3.9485-3.8123 3.9485-3.8124-1.9062-3.8124-3.9485 1.7117-3.9485 3.8124-3.9485zm0-3.03435c-3.8902 0-7.119 3.09265-7.119 6.98285s3.2288 6.9829 7.119 6.9829 7.119-3.0927 7.119-6.9829-3.2288-6.98285-7.119-6.98285z"/><path d="m45.3274 22.7974h4.6293c3.7929 0 6.8467-2.8982 6.8467-6.6717s-3.0538-6.67163-6.8467-6.67163h-4.6293zm3.3066-10.523h1.0309c2.1396 0 3.8318 1.809 3.8318 3.8513s-1.6922 3.8513-3.8318 3.8513h-1.0309z"/><path d="m65.6534 9.14285-7.441 13.89165h3.558l1.3154-2.7852h5.0767l1.4357 2.7852h3.5581l-7.464-13.89165zm0 5.36845 1.77 3.2677h-3.5401z"/><path d="m75.268 22.6806 3.4234.428 5.5824-12.9932-3.1316-.97255-2.1591 5.38785-3.4039-5.38785-3.0927 1.26435 4.9211 7.6636z"/></g></svg>