<svg width="32" height="32" viewBox="0 0 32 32" fill="none" xmlns="http://www.w3.org/2000/svg">
<path d="M17.6658 16.3833C17.6658 20.4609 14.3827 23.7663 10.333 23.7663C6.28334 23.7663 3 20.4609 3 16.3833C3 12.3057 6.28309 9 10.333 9C14.3829 9 17.6658 12.3057 17.6658 16.3833Z" fill="black"/>
<path d="M25.7095 16.3829C25.7095 20.221 24.068 23.3337 22.043 23.3337C20.018 23.3337 18.3765 20.221 18.3765 16.3829C18.3765 12.5448 20.0178 9.43213 22.0427 9.43213C24.0677 9.43213 25.7093 12.5438 25.7093 16.3829" fill="black"/>
<path d="M28.9999 16.3831C28.9999 19.8212 28.4227 22.61 27.7104 22.61C26.9981 22.61 26.4211 19.8219 26.4211 16.3831C26.4211 12.9443 26.9984 10.1562 27.7104 10.1562C28.4224 10.1562 28.9999 12.9441 28.9999 16.3831Z" fill="black"/>
</svg>
