<svg width="64" height="64" viewBox="0 0 64 64" fill="none" xmlns="http://www.w3.org/2000/svg">
<path d="M6 32C6 46.3594 17.6406 58 32 58L58 32C58 17.6406 46.3594 6 32 6C17.6406 6 6 17.6406 6 32Z" fill="white" stroke="black" stroke-width="1.5" stroke-linejoin="round"/>
<path d="M27.5067 25.0789L32 18.3505L36.4933 25.0789C36.6587 25.3266 36.9071 25.5071 37.1938 25.5879L44.9815 27.7821L39.9708 34.1347C39.7864 34.3685 39.6915 34.6606 39.7033 34.9582L40.023 43.0427L32.4329 40.2404C32.1535 40.1372 31.8465 40.1372 31.567 40.2404L23.977 43.0427L24.2967 34.9582C24.3085 34.6606 24.2136 34.3685 24.0292 34.1347L19.0185 27.7821L26.8062 25.5879C27.0929 25.5071 27.3413 25.3266 27.5067 25.0789Z" fill="#FFB82E" stroke="black" stroke-width="1.5" stroke-linejoin="round"/>
<path d="M32 58C32 43.6406 43.6406 32 58 32L32 58Z" fill="#E9EBF3" stroke="black" stroke-width="1.5" stroke-linejoin="round"/>
</svg>
