<svg width="65" height="30" viewBox="0 0 65 30" fill="none" xmlns="http://www.w3.org/2000/svg">
<path d="M27.8571 14.9997C27.8571 22.1005 22.1008 27.8569 15 27.8569C7.8992 27.8569 2.14286 22.1005 2.14286 14.9997C2.14286 7.89892 7.8992 2.14258 15 2.14258C22.1008 2.14258 27.8571 7.89892 27.8571 14.9997Z" fill="#FFD362"/>
<path fill-rule="evenodd" clip-rule="evenodd" d="M15 2.78571C8.25424 2.78571 2.78571 8.25424 2.78571 15C2.78571 21.7458 8.25424 27.2143 15 27.2143C21.7458 27.2143 27.2143 21.7458 27.2143 15C27.2143 8.25424 21.7458 2.78571 15 2.78571ZM1.5 15C1.5 7.54416 7.54416 1.5 15 1.5C22.4558 1.5 28.5 7.54416 28.5 15C28.5 22.4558 22.4558 28.5 15 28.5C7.54416 28.5 1.5 22.4558 1.5 15Z" fill="black"/>
<circle cx="15" cy="14.9996" r="10.2857" fill="#FFB82E"/>
<path d="M19.1811 9.85742H12.0685V21.4289H14.7223V16.9083H18.78V14.3934H14.7223V12.3877H19.1811V9.85742Z" fill="#985507"/>
<path fill-rule="evenodd" clip-rule="evenodd" d="M62.8572 14.9997C62.8572 22.1005 57.1008 27.8569 50 27.8569C42.8992 27.8569 37.1429 22.1005 37.1429 14.9997C37.1429 7.89892 42.8992 2.14258 50 2.14258C52.4269 2.14258 54.6967 2.81498 56.6334 3.98366C56.0435 4.39208 55.6571 5.07361 55.6571 5.84539C55.6571 6.67937 56.1083 7.40798 56.7799 7.80046C56.6532 8.08283 56.5828 8.39587 56.5828 8.72537C56.5828 9.97511 57.5959 10.9882 58.8457 10.9882C59.2164 10.9882 59.5662 10.8991 59.875 10.7411C60.1632 11.6594 61.021 12.3255 62.0344 12.3255C62.2172 12.3255 62.395 12.3039 62.5653 12.2629C62.7564 13.1449 62.8572 14.0605 62.8572 14.9997ZM55.04 14.9996C55.04 17.7831 52.7835 20.0396 50 20.0396C47.2165 20.0396 44.96 17.7831 44.96 14.9996C44.96 12.2161 47.2165 9.95961 50 9.95961C52.7835 9.95961 55.04 12.2161 55.04 14.9996Z" fill="#FF6C69"/>
<path fill-rule="evenodd" clip-rule="evenodd" d="M60.1375 22.9094C57.7844 25.9211 54.1184 27.8574 50.0002 27.8574C45.8972 27.8574 42.2431 25.9355 39.889 22.9428C40.293 23.3214 40.9628 23.723 41.7628 23.6928C42.4097 23.6684 42.8325 23.4356 43.2549 23.203C43.7232 22.9451 44.1911 22.6874 44.9636 22.7145C45.6636 22.739 46.0063 22.9622 46.3548 23.1892C46.7378 23.4387 47.1279 23.6928 48.007 23.6928C48.9188 23.6928 49.365 23.2488 49.8144 22.8017C50.27 22.3483 50.729 21.8916 51.6801 21.8916C52.8915 21.8916 53.4223 22.6031 53.9139 23.2621C54.338 23.8307 54.733 24.3602 55.5107 24.3602C56.3198 24.3602 56.6415 23.835 56.975 23.2909C57.3335 22.7057 57.7055 22.0985 58.7115 22.0985C59.2922 22.0985 59.8729 22.6305 60.1375 22.9094Z" fill="#FFCFA3"/>
<path fill-rule="evenodd" clip-rule="evenodd" d="M40.171 19.1718C39.8363 18.8371 39.8363 18.2944 40.171 17.9596L41.5425 16.5882C41.8772 16.2535 42.4199 16.2535 42.7547 16.5882C43.0894 16.9229 43.0894 17.4656 42.7547 17.8004L41.3832 19.1718C41.0485 19.5065 40.5058 19.5065 40.171 19.1718Z" fill="white"/>
<path fill-rule="evenodd" clip-rule="evenodd" d="M57.3482 16.588C57.6829 16.2532 58.2256 16.2532 58.5604 16.588L59.9318 17.9594C60.2665 18.2941 60.2665 18.8368 59.9318 19.1716C59.5971 19.5063 59.0544 19.5063 58.7196 19.1716L57.3482 17.8001C57.0135 17.4654 57.0135 16.9227 57.3482 16.588Z" fill="white"/>
<path fill-rule="evenodd" clip-rule="evenodd" d="M59.7934 10.7261C60.2667 10.7261 60.6505 11.1099 60.6505 11.5833L60.6505 13.5228C60.6505 13.9962 60.2667 14.3799 59.7934 14.3799C59.32 14.3799 58.9362 13.9962 58.9362 13.5228L58.9362 11.5833C58.9362 11.1099 59.32 10.7261 59.7934 10.7261Z" fill="white"/>
<path fill-rule="evenodd" clip-rule="evenodd" d="M44.9819 5.99469C45.4553 5.99469 45.8391 6.37844 45.8391 6.85183L45.8391 8.79132C45.8391 9.26471 45.4553 9.64847 44.9819 9.64847C44.5085 9.64847 44.1248 9.26471 44.1248 8.79132L44.1248 6.85183C44.1248 6.37844 44.5085 5.99469 44.9819 5.99469Z" fill="white"/>
<path fill-rule="evenodd" clip-rule="evenodd" d="M40.6645 12.9424C40.6645 12.469 41.0483 12.0852 41.5217 12.0852L43.4612 12.0852C43.9345 12.0852 44.3183 12.469 44.3183 12.9424C44.3183 13.4158 43.9345 13.7995 43.4612 13.7995L41.5217 13.7995C41.0483 13.7995 40.6645 13.4158 40.6645 12.9424Z" fill="white"/>
<path fill-rule="evenodd" clip-rule="evenodd" d="M50.5596 4.96492C50.8944 4.63018 51.4371 4.63018 51.7718 4.96492L53.1432 6.33635C53.478 6.67108 53.478 7.2138 53.1432 7.54853C52.8085 7.88327 52.2658 7.88327 51.9311 7.54853L50.5596 6.1771C50.2249 5.84237 50.2249 5.29965 50.5596 4.96492Z" fill="white"/>
<path fill-rule="evenodd" clip-rule="evenodd" d="M44.5939 22.2577C44.2592 21.923 44.2592 21.3803 44.5939 21.0456L45.9653 19.6741C46.3001 19.3394 46.8428 19.3394 47.1775 19.6741C47.5122 20.0089 47.5122 20.5516 47.1775 20.8863L45.8061 22.2577C45.4713 22.5925 44.9286 22.5925 44.5939 22.2577Z" fill="white"/>
<path fill-rule="evenodd" clip-rule="evenodd" d="M36.5 15C36.5 7.54416 42.5442 1.5 50 1.5C52.5472 1.5 54.9315 2.20608 56.9656 3.43355C57.1523 3.54622 57.2691 3.74586 57.276 3.96383C57.2828 4.18179 57.1786 4.38836 56.9994 4.51249C56.5755 4.80598 56.3 5.29374 56.3 5.84571C56.3 6.44199 56.6218 6.96382 57.1043 7.24577C57.3878 7.41146 57.5008 7.7642 57.3665 8.06383C57.2762 8.26511 57.2257 8.48865 57.2257 8.72571C57.2257 9.62042 57.951 10.3457 58.8457 10.3457C59.1122 10.3457 59.3619 10.2819 59.5822 10.1692C59.7508 10.0829 59.9488 10.0754 60.1234 10.1486C60.2981 10.2218 60.4316 10.3683 60.4883 10.5489C60.6949 11.2068 61.3098 11.6829 62.0343 11.6829C62.1661 11.6829 62.2935 11.6672 62.4149 11.638C62.5831 11.5976 62.7606 11.6267 62.9071 11.7186C63.0536 11.8106 63.1568 11.9578 63.1935 12.1269C63.3943 13.0533 63.5 14.0147 63.5 15C63.5 22.4558 57.4558 28.5 50 28.5C42.5442 28.5 36.5 22.4558 36.5 15ZM50 2.78571C43.2542 2.78571 37.7857 8.25424 37.7857 15C37.7857 21.7458 43.2542 27.2143 50 27.2143C56.7458 27.2143 62.2143 21.7458 62.2143 15C62.2143 14.3075 62.1567 13.6289 62.0462 12.9685C62.0422 12.9686 62.0383 12.9686 62.0343 12.9686C60.9718 12.9686 60.0435 12.3986 59.5368 11.5486C59.315 11.6027 59.0835 11.6314 58.8457 11.6314C57.2409 11.6314 55.94 10.3305 55.94 8.72571C55.94 8.49155 55.9678 8.26337 56.0204 8.04452C55.4049 7.51227 55.0143 6.72486 55.0143 5.84571C55.0143 5.20346 55.2229 4.60999 55.5753 4.12934C53.9043 3.27053 52.0095 2.78571 50 2.78571ZM44.3171 15C44.3171 11.8614 46.8614 9.31714 50 9.31714C53.1386 9.31714 55.6829 11.8614 55.6829 15C55.6829 18.1386 53.1386 20.6829 50 20.6829C46.8614 20.6829 44.3171 18.1386 44.3171 15ZM50 10.6029C47.5715 10.6029 45.6029 12.5715 45.6029 15C45.6029 17.4285 47.5715 19.3971 50 19.3971C52.4285 19.3971 54.3971 17.4285 54.3971 15C54.3971 12.5715 52.4285 10.6029 50 10.6029Z" fill="black"/>
</svg>
