<svg width="32" height="32" viewBox="0 0 32 32" fill="none" xmlns="http://www.w3.org/2000/svg">
<circle cx="16" cy="16" r="13.5" fill="#9D69E6" stroke="black"/>
<path d="M12.9528 23.0918C12.4515 23.0918 12.0673 22.9583 11.8004 22.6914C11.5335 22.4245 11.4 22.0404 11.4 21.5391V10.5527C11.4 10.0514 11.5335 9.66732 11.8004 9.40039C12.0673 9.13346 12.4515 9 12.9528 9H16.8004C17.5556 9 18.2522 9.15299 18.8903 9.45898C19.5283 9.75846 20.0328 10.1686 20.4039 10.6895C20.7815 11.2038 20.9703 11.7637 20.9703 12.3691C20.9703 12.8639 20.889 13.3262 20.7262 13.7559C20.5699 14.179 20.3453 14.5404 20.0524 14.8398C19.7659 15.1393 19.4339 15.3509 19.0563 15.4746C19.5641 15.6113 20.0231 15.8685 20.4332 16.2461C20.8434 16.6172 21.1656 17.0664 21.4 17.5938C21.6409 18.1211 21.7614 18.6712 21.7614 19.2441C21.7614 19.8952 21.5823 20.5169 21.2242 21.1094C20.8727 21.7018 20.3779 22.1803 19.7399 22.5449C19.1084 22.9095 18.3987 23.0918 17.611 23.0918H12.9528ZM15.9899 14.7129C16.4196 14.7129 16.7972 14.6478 17.1227 14.5176C17.4482 14.3874 17.6989 14.2018 17.8746 13.9609C18.0569 13.7201 18.1481 13.4434 18.1481 13.1309C18.1481 12.6491 17.9658 12.2617 17.6012 11.9688C17.2366 11.6693 16.7581 11.5195 16.1656 11.5195H14.3492V14.7129H15.9899ZM16.4098 20.5723C17.2561 20.5723 17.8714 20.4355 18.2555 20.1621C18.6461 19.8887 18.8414 19.4557 18.8414 18.8633C18.8414 18.2708 18.6136 17.8411 18.1578 17.5742C17.7086 17.3073 16.9827 17.1738 15.9801 17.1738H14.3492V20.5723H16.4098Z" fill="white"/>
</svg>
