<svg width="32" height="32" viewBox="0 0 32 32" fill="none" xmlns="http://www.w3.org/2000/svg">
<circle cx="16" cy="16" r="13.5" fill="#FFB82E" stroke="black"/>
<path d="M21.1777 19.3369C21.4772 19.6169 21.627 19.9359 21.627 20.2939C21.627 20.5934 21.5195 20.8896 21.3047 21.1826C20.6862 22.0094 19.957 22.6214 19.1172 23.0186C18.2839 23.4092 17.3073 23.6045 16.1875 23.6045C14.7878 23.6045 13.5475 23.2985 12.4668 22.6865C11.3861 22.068 10.543 21.1989 9.9375 20.0791C9.33203 18.9593 9.01953 17.667 9 16.2021C9.01953 14.7373 9.33203 13.445 9.9375 12.3252C10.543 11.2054 11.3861 10.3395 12.4668 9.72754C13.5475 9.10905 14.7878 8.7998 16.1875 8.7998C17.3008 8.7998 18.2741 8.99837 19.1074 9.39551C19.9408 9.79264 20.6699 10.4046 21.2949 11.2314C21.4967 11.4984 21.5977 11.7848 21.5977 12.0908C21.5977 12.2666 21.5586 12.4391 21.4805 12.6084C21.4023 12.7777 21.2917 12.9339 21.1484 13.0771C20.8945 13.3245 20.6243 13.4482 20.3379 13.4482C19.9928 13.4482 19.6445 13.2529 19.293 12.8623C18.8242 12.348 18.3359 11.9704 17.8281 11.7295C17.3203 11.4821 16.7734 11.3584 16.1875 11.3584C15.3672 11.3584 14.6413 11.5602 14.0098 11.9639C13.3783 12.3675 12.8802 12.9372 12.5156 13.6729C12.1576 14.402 11.972 15.2451 11.959 16.2021C11.972 17.1592 12.1576 18.0055 12.5156 18.7412C12.8737 19.4704 13.3685 20.0368 14 20.4404C14.638 20.8441 15.3672 21.0459 16.1875 21.0459C16.7669 21.0459 17.3105 20.9255 17.8184 20.6846C18.3262 20.4372 18.8145 20.0563 19.2832 19.542C19.6478 19.1383 19.9993 18.9365 20.3379 18.9365C20.6178 18.9365 20.8978 19.07 21.1777 19.3369Z" fill="white"/>
</svg>
