<svg width="32" height="32" viewBox="0 0 32 32" fill="none" xmlns="http://www.w3.org/2000/svg">
<circle cx="16" cy="16" r="13.5" fill="#47CBAB" stroke="black"/>
<path d="M20.043 20.6846C20.2708 20.6846 20.4759 20.7464 20.6582 20.8701C20.847 20.9873 20.9935 21.1468 21.0977 21.3486C21.2083 21.5505 21.2637 21.7653 21.2637 21.9932C21.2637 22.221 21.2083 22.4359 21.0977 22.6377C20.9935 22.8395 20.847 23.0023 20.6582 23.126C20.4759 23.2432 20.2708 23.3018 20.043 23.3018H12.7871C12.5072 23.3018 12.2533 23.2106 12.0254 23.0283C11.804 22.846 11.6543 22.6182 11.5762 22.3447C11.5371 22.208 11.5176 22.068 11.5176 21.9248V10.1475C11.5176 9.75033 11.6576 9.42806 11.9375 9.18066C12.224 8.92676 12.5755 8.7998 12.9922 8.7998C13.4089 8.7998 13.7572 8.92676 14.0371 9.18066C14.3236 9.42806 14.4668 9.75033 14.4668 10.1475V20.6846H20.043Z" fill="white"/>
</svg>
