<svg width="96" height="423" viewBox="0 0 96 423" fill="none" xmlns="http://www.w3.org/2000/svg">
<path d="M8.77343 392.594H13.9297V397.938H21.5703V392.594H26.7266V397.938H35V404.5H26.7266V410.453H35V417.016H26.7266L26.7266 422.828H21.5703L21.5703 417.016H13.9297V422.828H8.77343V417.016H1.17968L1.17968 410.453H8.77343L8.77343 404.5H1.17968L1.17968 397.938H8.77343V392.594ZM21.5703 410.453V404.5H13.9297L13.9297 410.453H21.5703Z" fill="black"/>
<path d="M1.17968 369.641C1.17968 367.109 1.64061 364.875 2.56249 362.938C3.48436 361 4.78905 359.5 6.47655 358.438C8.14843 357.359 10.0859 356.82 12.2891 356.82C14.6016 356.82 16.6328 357.352 18.3828 358.414C20.1328 359.477 21.4922 360.977 22.4609 362.914C23.4297 364.852 23.9141 367.086 23.9141 369.617V374.891H35V381.969H1.17968L1.17968 369.641ZM17.8672 369.852C17.8672 368.68 17.6484 367.641 17.2109 366.734C16.7578 365.828 16.1406 365.133 15.3594 364.648C14.5781 364.148 13.6875 363.898 12.6875 363.898C11.6094 363.898 10.6562 364.156 9.82811 364.672C8.99999 365.172 8.35936 365.883 7.90624 366.805C7.45311 367.727 7.22655 368.789 7.22655 369.992V374.773H17.8672V369.852Z" fill="black"/>
<path d="M20.9141 339.328H28.9531L28.9531 323.766H35V346.406H1.17968L1.22655 324.328H7.24999L7.24999 339.328H14.8672V325.781H20.914L20.9141 339.328Z" fill="black"/>
<path d="M35 293.406L22.9765 300.555V305.828H35L35 312.906H1.17967L1.17967 299.5C1.17967 296.859 1.60936 294.578 2.46874 292.656C3.31249 290.734 4.53905 289.258 6.14842 288.227C7.74217 287.195 9.6328 286.68 11.8203 286.68C14.2422 286.68 16.3203 287.25 18.0547 288.391C19.7734 289.531 21.0547 291.156 21.8984 293.266L35 285.016V293.406ZM7.22655 305.828H16.9297V299.711C16.9297 297.867 16.5156 296.414 15.6875 295.352C14.8437 294.289 13.6875 293.758 12.2187 293.758C10.6719 293.758 9.45311 294.305 8.56249 295.398C7.67186 296.477 7.22655 297.961 7.22655 299.852L7.22655 305.828Z" fill="black"/>
<path d="M35.5859 264.055C35.5859 266.727 35.1406 269.281 34.25 271.719C33.3594 274.156 32.1875 276.219 30.7344 277.906L25.25 275.258C26.3906 273.586 27.3515 271.773 28.1328 269.82C28.914 267.867 29.3047 265.984 29.3047 264.172C29.3047 262.406 28.9765 261.07 28.3203 260.164C27.664 259.258 26.6953 258.805 25.414 258.805C24.4609 258.805 23.5937 259.391 22.8125 260.562C22.0156 261.734 21.3125 263.469 20.7031 265.766C19.7187 269.438 18.3125 272.219 16.4844 274.109C14.6562 276 12.4531 276.945 9.87498 276.945C7.90623 276.945 6.20311 276.539 4.76561 275.727C3.32811 274.898 2.22655 273.68 1.46092 272.07C0.679672 270.461 0.289047 268.492 0.289047 266.164C0.289047 265.867 0.304672 265.375 0.335922 264.688C0.585922 260.891 1.51561 257.398 3.12498 254.211L9.14842 255.477C7.72655 258.398 6.8828 261.281 6.61717 264.125C6.58592 264.625 6.5703 264.977 6.5703 265.18C6.5703 266.68 6.87498 267.836 7.48436 268.648C8.09373 269.461 8.89061 269.867 9.87498 269.867C10.8125 269.867 11.6953 269.203 12.5234 267.875C13.3515 266.547 14.1015 264.594 14.7734 262.016C15.6484 258.641 16.9922 256.086 18.8047 254.352C20.6172 252.602 22.8437 251.727 25.4844 251.727C27.5469 251.727 29.3359 252.195 30.8515 253.133C32.3672 254.07 33.539 255.461 34.3672 257.305C35.1797 259.148 35.5859 261.398 35.5859 264.055Z" fill="black"/>
<path d="M35.8672 225.328C35.8672 228.766 35.125 231.805 33.6406 234.445C32.1562 237.07 30.0703 239.109 27.3828 240.562C24.6953 242 21.5859 242.719 18.0547 242.719C14.539 242.719 11.4453 242 8.77342 240.562C6.08592 239.109 4.0078 237.07 2.53905 234.445C1.05467 231.805 0.312483 228.766 0.312483 225.328C0.312483 221.906 1.05467 218.891 2.53905 216.281C4.00779 213.656 6.08592 211.625 8.77342 210.188C11.4453 208.734 14.539 208.008 18.0547 208.008C21.5859 208.008 24.6953 208.727 27.3828 210.164C30.0703 211.602 32.1562 213.633 33.6406 216.258C35.125 218.883 35.8672 221.906 35.8672 225.328ZM29.8203 225.328C29.8203 223.297 29.3359 221.508 28.3672 219.961C27.3828 218.414 26 217.219 24.2187 216.375C22.4375 215.516 20.3828 215.086 18.0547 215.086C15.7422 215.086 13.7031 215.516 11.9375 216.375C10.1719 217.219 8.80467 218.414 7.83592 219.961C6.85155 221.508 6.35936 223.297 6.35936 225.328C6.35936 227.375 6.85155 229.18 7.83592 230.742C8.80467 232.289 10.1719 233.492 11.9375 234.352C13.7031 235.211 15.7422 235.641 18.0547 235.641C20.3828 235.641 22.4375 235.211 24.2187 234.352C26 233.492 27.3828 232.289 28.3672 230.742C29.3359 229.18 29.8203 227.375 29.8203 225.328Z" fill="black"/>
<path d="M23.0469 175.047H1.17967L1.17967 167.969H35V175.281L13.414 190.352V190.75H35V197.828L1.17967 197.805L1.17967 190.75L23.0469 175.352V175.047Z" fill="black"/>
<path d="M35 124.93V132.758L27.9219 135.594V148.555L35 151.391V158.984L1.17967 144.57L1.17967 139.695L35 124.93ZM11.75 142.109L22.2031 146.281V137.867L11.75 142.039V142.109Z" fill="black"/>
<path d="M0.312478 108.844H28.9531V92.8828H35V115.922H0.312478L0.312478 108.844Z" fill="black"/>
<path d="M35 76.3281V83.4062H1.17966L1.17966 76.3281H35Z" fill="black"/>
<path d="M1.2031 40.2734H7.24997L7.24998 49.8828L35 49.9062V57.0078L7.24998 56.9609L7.24998 66.6406H1.2031L1.2031 40.2734Z" fill="black"/>
<path d="M1.17966 9.375L1.17966 0.960938L21.7578 13.3359L35 13.3359V20.4141L21.9218 20.4141L1.17966 32.9062L1.17966 24.4922L15.0547 17.0625V16.7812L1.17966 9.375Z" fill="black"/>
<path d="M68.7734 212.859H73.9297V218.203H81.5703V212.859H86.7265V218.203H95V224.766H86.7265V230.719H95V237.281H86.7265V243.094H81.5703V237.281H73.9297V243.094H68.7734V237.281H61.1797V230.719H68.7734V224.766H61.1797L61.1797 218.203H68.7734V212.859ZM81.5703 230.719V224.766H73.9297V230.719H81.5703Z" fill="black"/>
<path d="M95 195.156V202.234H61.1797V179.898H67.2265V195.156H75.0078V181.375H81.0547V195.156H95Z" fill="black"/>
<path d="M95.8672 153.734C95.8672 157.172 95.125 160.211 93.6406 162.852C92.1562 165.477 90.0703 167.516 87.3828 168.969C84.6953 170.406 81.5859 171.125 78.0547 171.125C74.539 171.125 71.4453 170.406 68.7734 168.969C66.0859 167.516 64.0078 165.477 62.539 162.852C61.0547 160.211 60.3125 157.172 60.3125 153.734C60.3125 150.312 61.0547 147.297 62.539 144.688C64.0078 142.062 66.0859 140.031 68.7734 138.594C71.4453 137.141 74.539 136.414 78.0547 136.414C81.5859 136.414 84.6953 137.133 87.3828 138.57C90.0703 140.008 92.1562 142.039 93.6406 144.664C95.125 147.289 95.8672 150.312 95.8672 153.734ZM89.8203 153.734C89.8203 151.703 89.3359 149.914 88.3672 148.367C87.3828 146.82 86 145.625 84.2187 144.781C82.4375 143.922 80.3828 143.492 78.0547 143.492C75.7422 143.492 73.7031 143.922 71.9375 144.781C70.1719 145.625 68.8047 146.82 67.8359 148.367C66.8515 149.914 66.3594 151.703 66.3594 153.734C66.3594 155.781 66.8515 157.586 67.8359 159.148C68.8047 160.695 70.1719 161.898 71.9375 162.758C73.7031 163.617 75.7422 164.047 78.0547 164.047C80.3828 164.047 82.4375 163.617 84.2187 162.758C86 161.898 87.3828 160.695 88.3672 159.148C89.3359 157.586 89.8203 155.781 89.8203 153.734Z" fill="black"/>
<path d="M95.8672 110.25C95.8672 113.687 95.125 116.727 93.6406 119.367C92.1562 121.992 90.0703 124.031 87.3828 125.484C84.6953 126.922 81.5859 127.641 78.0547 127.641C74.539 127.641 71.4453 126.922 68.7734 125.484C66.0859 124.031 64.0078 121.992 62.539 119.367C61.0547 116.727 60.3125 113.688 60.3125 110.25C60.3125 106.828 61.0547 103.812 62.539 101.203C64.0078 98.5781 66.0859 96.5469 68.7734 95.1094C71.4453 93.6562 74.539 92.9297 78.0547 92.9297C81.5859 92.9297 84.6953 93.6484 87.3828 95.0859C90.0703 96.5234 92.1562 98.5547 93.6406 101.18C95.125 103.805 95.8672 106.828 95.8672 110.25ZM89.8203 110.25C89.8203 108.219 89.3359 106.43 88.3672 104.883C87.3828 103.336 86 102.141 84.2187 101.297C82.4375 100.438 80.3828 100.008 78.0547 100.008C75.7422 100.008 73.7031 100.437 71.9375 101.297C70.1719 102.141 68.8047 103.336 67.8359 104.883C66.8515 106.43 66.3594 108.219 66.3594 110.25C66.3594 112.297 66.8515 114.102 67.8359 115.664C68.8047 117.211 70.1719 118.414 71.9375 119.273C73.7031 120.133 75.7422 120.563 78.0547 120.562C80.3828 120.562 82.4375 120.133 84.2187 119.273C86 118.414 87.3828 117.211 88.3672 115.664C89.3359 114.102 89.8203 112.297 89.8203 110.25Z" fill="black"/>
<path d="M61.1797 70.8438C61.1797 59.7812 66.7265 54.25 77.8203 54.25C89.2734 54.25 95 59.7031 95 70.6094V82.7031L61.1797 82.75V70.8438ZM88.9531 70.6094C88.9531 67.4531 88.0234 65.1172 86.164 63.6016C84.3047 62.0859 81.5234 61.3281 77.8203 61.3281C74.289 61.3281 71.6406 62.1016 69.875 63.6484C68.1094 65.1953 67.2265 67.5938 67.2265 70.8438V75.6719L88.9531 75.6719V70.6094Z" fill="black"/>
<path d="M95 36.7812V43.8594H61.1797V36.7812H95Z" fill="black"/>
<path d="M80.914 18.1406H88.9531L88.9531 2.57812L95 2.57812L95 25.2187L61.1797 25.2187L61.2265 3.14062L67.25 3.14062L67.25 18.1406H74.8672V4.59375L80.914 4.59375V18.1406Z" fill="black"/>
</svg>
