<svg width="32" height="32" viewBox="0 0 32 32" fill="none" xmlns="http://www.w3.org/2000/svg">
<circle cx="16" cy="16" r="13.5" fill="#F9812A" stroke="black"/>
<path d="M22.668 20.5293C22.9284 20.8027 23.0586 21.1087 23.0586 21.4473C23.0586 21.7142 22.987 21.9551 22.8437 22.1699C22.7005 22.3783 22.515 22.541 22.2871 22.6582C22.0592 22.7819 21.8249 22.8438 21.584 22.8438C21.4277 22.8438 21.2747 22.8145 21.125 22.7559C20.9818 22.6973 20.8548 22.6094 20.7441 22.4922L20.041 21.7402C19.4616 22.0918 18.8203 22.3587 18.1172 22.541C17.4206 22.7233 16.6816 22.8145 15.9004 22.8145C14.5202 22.8145 13.2897 22.5085 12.209 21.8965C11.1283 21.278 10.2852 20.4186 9.67969 19.3184C9.08073 18.2181 8.78125 16.9648 8.78125 15.5586C8.78125 14.1068 9.09701 12.8079 9.72852 11.6621C10.36 10.5098 11.2357 9.61133 12.3555 8.9668C13.4753 8.32227 14.7415 8 16.1543 8C17.541 8 18.7715 8.31576 19.8457 8.94727C20.9199 9.57227 21.7533 10.4447 22.3457 11.5645C22.9447 12.6842 23.2441 13.9603 23.2441 15.3926C23.2507 16.278 23.1465 17.0951 22.9316 17.8438C22.7233 18.5924 22.4173 19.2663 22.0137 19.8652L22.668 20.5293ZM15.9395 20.1973C16.903 20.1973 17.6745 20.0801 18.2539 19.8457L17.4336 18.9766C17.2122 18.7487 17.1016 18.472 17.1016 18.1465C17.1016 17.9186 17.1602 17.6973 17.2773 17.4824C17.3945 17.2676 17.554 17.0951 17.7559 16.9648C17.9642 16.8281 18.1921 16.7598 18.4395 16.7598C18.6022 16.7598 18.7552 16.7891 18.8984 16.8477C19.0417 16.9062 19.1654 16.9876 19.2695 17.0918L19.9824 17.8145C20.1908 17.1374 20.2949 16.2975 20.2949 15.2949C20.2949 14.377 20.1191 13.5632 19.7676 12.8535C19.416 12.1439 18.9212 11.5938 18.2832 11.2031C17.6517 10.8125 16.929 10.6172 16.1152 10.6172C15.2754 10.6172 14.5202 10.8223 13.8496 11.2324C13.1855 11.6426 12.6647 12.2188 12.2871 12.9609C11.916 13.7031 11.7305 14.5527 11.7305 15.5098C11.7305 16.4342 11.9062 17.2513 12.2578 17.9609C12.6159 18.6706 13.1139 19.2207 13.752 19.6113C14.39 20.002 15.1191 20.1973 15.9395 20.1973Z" fill="white"/>
</svg>
