<svg width="198" height="198" viewBox="0 0 198 198" fill="none" xmlns="http://www.w3.org/2000/svg">
<g clip-path="url(#clip0_2631_26818)">
<path fill-rule="evenodd" clip-rule="evenodd" d="M15.8345 50.9115C15.933 50.6575 16.1774 50.49 16.4499 50.49H159.01C159.174 50.49 159.333 50.5514 159.455 50.6623L170.675 60.8923C170.876 61.0759 170.944 61.3643 170.845 61.6184C170.747 61.8725 170.502 62.04 170.23 62.04H27.6699C27.5054 62.04 27.3468 61.9785 27.2253 61.8677L16.0053 51.6377C15.8039 51.4541 15.7361 51.1656 15.8345 50.9115ZM18.1534 51.81L27.9257 60.72H168.527L158.754 51.81H18.1534Z" fill="white"/>
<path fill-rule="evenodd" clip-rule="evenodd" d="M16.1835 50.5462C16.4226 50.4406 16.7015 50.4862 16.8947 50.6623L28.1147 60.8923C28.2519 61.0174 28.33 61.1944 28.33 61.38V147.18C28.33 147.441 28.1757 147.678 27.9366 147.784C27.6975 147.889 27.4185 147.844 27.2254 147.668L16.0054 137.438C15.8682 137.313 15.79 137.136 15.79 136.95V51.15C15.79 50.8886 15.9443 50.6518 16.1835 50.5462ZM17.11 52.6449V136.659L27.01 145.685V61.6714L17.11 52.6449Z" fill="white"/>
<path fill-rule="evenodd" clip-rule="evenodd" d="M27.01 61.38C27.01 61.0155 27.3055 60.72 27.67 60.72H170.23C170.595 60.72 170.89 61.0155 170.89 61.38V91.41C170.89 91.7745 170.595 92.07 170.23 92.07H27.67C27.3055 92.07 27.01 91.7745 27.01 91.41V61.38ZM28.33 62.04V90.75H169.57V62.04H28.33Z" fill="white"/>
<path fill-rule="evenodd" clip-rule="evenodd" d="M145.975 69.3C145.975 68.9355 146.27 68.64 146.635 68.64H158.185C158.549 68.64 158.845 68.9355 158.845 69.3V77.22C158.845 77.5845 158.549 77.88 158.185 77.88H146.635C146.27 77.88 145.975 77.5845 145.975 77.22V69.3ZM147.295 69.96V76.56H157.525V69.96H147.295Z" fill="white"/>
<path d="M33.4747 87.615H32.8907V84.8248H34.7335V85.3237H33.4747V85.9657H34.6116V86.4645H33.4747V87.615Z" fill="white"/>
<path d="M38.7895 87.6866C38.5059 87.6866 38.2552 87.6253 38.0373 87.5029C37.8208 87.3804 37.6525 87.2083 37.5327 86.9866C37.4141 86.7649 37.3548 86.5084 37.3548 86.217C37.3548 85.927 37.4141 85.6718 37.5327 85.4513C37.6525 85.2296 37.8208 85.0582 38.0373 84.937C38.2552 84.8145 38.5059 84.7533 38.7895 84.7533C39.0718 84.7533 39.3206 84.8145 39.5359 84.937C39.7524 85.0582 39.92 85.2296 40.0386 85.4513C40.1585 85.6718 40.2184 85.927 40.2184 86.217C40.2184 86.5084 40.1591 86.7649 40.0405 86.9866C39.9219 87.2083 39.7544 87.3804 39.5378 87.5029C39.3212 87.6253 39.0718 87.6866 38.7895 87.6866ZM38.7895 87.1877C38.9571 87.1877 39.1047 87.1477 39.2323 87.0678C39.3599 86.9866 39.4585 86.8725 39.5281 86.7256C39.599 86.5786 39.6345 86.4091 39.6345 86.217C39.6345 86.0262 39.599 85.858 39.5281 85.7124C39.4585 85.5667 39.3599 85.4539 39.2323 85.374C39.1047 85.2928 38.9571 85.2522 38.7895 85.2522C38.6206 85.2522 38.4717 85.2928 38.3428 85.374C38.2152 85.4539 38.116 85.5667 38.0451 85.7124C37.9742 85.858 37.9387 86.0262 37.9387 86.217C37.9387 86.4091 37.9742 86.5786 38.0451 86.7256C38.116 86.8725 38.2152 86.9866 38.3428 87.0678C38.4717 87.1477 38.6206 87.1877 38.7895 87.1877Z" fill="white"/>
<path d="M44.2745 87.6866C43.9909 87.6866 43.7401 87.6253 43.5223 87.5029C43.3057 87.3804 43.1375 87.2083 43.0176 86.9866C42.899 86.7649 42.8397 86.5084 42.8397 86.217C42.8397 85.927 42.899 85.6718 43.0176 85.4513C43.1375 85.2296 43.3057 85.0582 43.5223 84.937C43.7401 84.8145 43.9909 84.7533 44.2745 84.7533C44.5568 84.7533 44.8056 84.8145 45.0208 84.937C45.2374 85.0582 45.405 85.2296 45.5236 85.4513C45.6434 85.6718 45.7034 85.927 45.7034 86.217C45.7034 86.5084 45.6441 86.7649 45.5255 86.9866C45.4069 87.2083 45.2393 87.3804 45.0228 87.5029C44.8062 87.6253 44.5568 87.6866 44.2745 87.6866ZM44.2745 87.1877C44.442 87.1877 44.5896 87.1477 44.7173 87.0678C44.8449 86.9866 44.9435 86.8725 45.0131 86.7256C45.084 86.5786 45.1194 86.4091 45.1194 86.217C45.1194 86.0262 45.084 85.858 45.0131 85.7124C44.9435 85.5667 44.8449 85.4539 44.7173 85.374C44.5896 85.2928 44.442 85.2522 44.2745 85.2522C44.1056 85.2522 43.9567 85.2928 43.8278 85.374C43.7002 85.4539 43.6009 85.5667 43.53 85.7124C43.4591 85.858 43.4237 86.0262 43.4237 86.217C43.4237 86.4091 43.4591 86.5786 43.53 86.7256C43.6009 86.8725 43.7002 86.9866 43.8278 87.0678C43.9567 87.1477 44.1056 87.1877 44.2745 87.1877Z" fill="white"/>
<path d="M49.423 84.8248C50.3356 84.8248 50.792 85.2825 50.792 86.1977C50.792 87.1426 50.3421 87.615 49.4423 87.615H48.4446L48.4407 84.8248H49.423ZM49.4423 87.1161C49.7027 87.1161 49.8954 87.0394 50.0205 86.886C50.1455 86.7327 50.208 86.5032 50.208 86.1977C50.208 85.9064 50.1442 85.6879 50.0166 85.5422C49.889 85.3965 49.6911 85.3237 49.423 85.3237H49.0247V87.1161H49.4423Z" fill="white"/>
<path d="M55.9888 87.615H55.343L55.109 87.0311H54.0397L53.8058 87.615H53.1793L54.3685 84.8248H54.7706L55.9888 87.615ZM54.5715 85.6969L54.2273 86.5593H54.9215L54.5773 85.6969H54.5715Z" fill="white"/>
<path d="M59.7973 84.8248H60.4915L59.4706 86.5225V87.615H58.8866V86.5361L57.856 84.8248H58.5502L59.1631 85.9695H59.1863L59.7973 84.8248Z" fill="white"/>
<path fill-rule="evenodd" clip-rule="evenodd" d="M27.01 91.41C27.01 91.0455 27.3055 90.75 27.67 90.75H170.23C170.595 90.75 170.89 91.0455 170.89 91.41V147.18C170.89 147.545 170.595 147.84 170.23 147.84H27.67C27.3055 147.84 27.01 147.545 27.01 147.18V91.41ZM28.33 92.07V146.52H169.57V92.07H28.33Z" fill="white"/>
<path fill-rule="evenodd" clip-rule="evenodd" d="M35.0125 97.02C34.0556 97.02 33.28 97.7956 33.28 98.7525C33.28 99.7093 34.0556 100.485 35.0125 100.485C35.9693 100.485 36.745 99.7093 36.745 98.7525C36.745 97.7956 35.9693 97.02 35.0125 97.02ZM31.96 98.7525C31.96 97.0666 33.3266 95.7 35.0125 95.7C36.6983 95.7 38.065 97.0666 38.065 98.7525C38.065 100.438 36.6983 101.805 35.0125 101.805C33.3266 101.805 31.96 100.438 31.96 98.7525Z" fill="white"/>
<path fill-rule="evenodd" clip-rule="evenodd" d="M162.887 97.02C161.931 97.02 161.155 97.7956 161.155 98.7525C161.155 99.7093 161.931 100.485 162.887 100.485C163.844 100.485 164.62 99.7093 164.62 98.7525C164.62 97.7956 163.844 97.02 162.887 97.02ZM159.835 98.7525C159.835 97.0666 161.202 95.7 162.887 95.7C164.573 95.7 165.94 97.0666 165.94 98.7525C165.94 100.438 164.573 101.805 162.887 101.805C161.202 101.805 159.835 100.438 159.835 98.7525Z" fill="white"/>
<path fill-rule="evenodd" clip-rule="evenodd" d="M35.0125 138.105C34.0556 138.105 33.28 138.881 33.28 139.838C33.28 140.794 34.0556 141.57 35.0125 141.57C35.9693 141.57 36.745 140.794 36.745 139.838C36.745 138.881 35.9693 138.105 35.0125 138.105ZM31.96 139.838C31.96 138.152 33.3266 136.785 35.0125 136.785C36.6983 136.785 38.065 138.152 38.065 139.838C38.065 141.523 36.6983 142.89 35.0125 142.89C33.3266 142.89 31.96 141.523 31.96 139.838Z" fill="white"/>
<path fill-rule="evenodd" clip-rule="evenodd" d="M162.887 138.105C161.931 138.105 161.155 138.881 161.155 139.838C161.155 140.794 161.931 141.57 162.887 141.57C163.844 141.57 164.62 140.794 164.62 139.838C164.62 138.881 163.844 138.105 162.887 138.105ZM159.835 139.838C159.835 138.152 161.202 136.785 162.887 136.785C164.573 136.785 165.94 138.152 165.94 139.838C165.94 141.523 164.573 142.89 162.887 142.89C161.202 142.89 159.835 141.523 159.835 139.838Z" fill="white"/>
<path fill-rule="evenodd" clip-rule="evenodd" d="M69.91 51.8101H49.78V55.6051C49.78 57.1542 55.4413 58.4101 61 58.4101C66.5588 58.4101 69.91 57.1542 69.91 55.6051V51.8101Z" fill="black"/>
<path fill-rule="evenodd" clip-rule="evenodd" d="M49.12 51.81C49.12 51.4455 49.4155 51.15 49.78 51.15H69.91C70.2745 51.15 70.57 51.4455 70.57 51.81V55.605C70.57 56.2542 70.2141 56.7921 69.7231 57.203C69.2343 57.612 68.5561 57.947 67.747 58.215C66.1237 58.7526 63.8195 59.07 61 59.07C58.1782 59.07 55.3203 58.752 53.1511 58.2302C52.0714 57.9704 51.1267 57.6519 50.4363 57.2768C50.0918 57.0896 49.7792 56.8716 49.5453 56.6138C49.3089 56.3532 49.12 56.0131 49.12 55.605V51.81ZM50.44 52.47V55.6025C50.4425 55.6133 50.4567 55.6539 50.5229 55.7269C50.6204 55.8343 50.7935 55.9686 51.0665 56.1169C51.6113 56.4129 52.4293 56.6989 53.4598 56.9468C55.5109 57.4402 58.2631 57.75 61 57.75C63.7393 57.75 65.8901 57.4395 67.332 56.9619C68.0556 56.7223 68.5626 56.4529 68.876 56.1907C69.187 55.9304 69.25 55.7304 69.25 55.605V52.47H50.44ZM50.4395 55.5996C50.4396 55.5996 50.4398 55.6004 50.4399 55.6021C50.4395 55.6004 50.4395 55.5996 50.4395 55.5996Z" fill="white"/>
<path d="M69.91 51.81C69.91 53.3592 66.5588 54.615 61 54.615C55.4413 54.615 49.78 53.3592 49.78 51.81C49.78 50.2608 53.1313 49.005 58.69 49.005C64.2488 49.005 69.91 50.2608 69.91 51.81Z" fill="black"/>
<path fill-rule="evenodd" clip-rule="evenodd" d="M50.44 51.8075C50.4426 51.8183 50.4568 51.8589 50.5229 51.9318C50.6204 52.0392 50.7935 52.1735 51.0665 52.3219C51.6113 52.6179 52.4293 52.9038 53.4598 53.1517C55.5109 53.6451 58.2631 53.955 61 53.955C63.7393 53.955 65.8901 53.6444 67.332 53.1669C68.0556 52.9272 68.5626 52.6579 68.876 52.3956C69.1849 52.1371 69.2492 51.938 69.25 51.8124C69.2474 51.8016 69.2332 51.761 69.1671 51.6881C69.0696 51.5807 68.8965 51.4464 68.6235 51.2981C68.0787 51.0021 67.2606 50.7161 66.2302 50.4682C64.1791 49.9748 61.4269 49.665 58.69 49.665C55.9507 49.665 53.7999 49.9755 52.358 50.4531C51.6343 50.6927 51.1274 50.9621 50.814 51.2243C50.5051 51.4829 50.4408 51.682 50.44 51.8075ZM69.2505 51.8154C69.2504 51.8154 69.2502 51.8146 69.2501 51.8129C69.2505 51.8146 69.2505 51.8154 69.2505 51.8154ZM50.4399 51.8071C50.4395 51.8053 50.4395 51.8045 50.4395 51.8045C50.4396 51.8045 50.4398 51.8054 50.4399 51.8071ZM51.943 49.2C53.5663 48.6624 55.8705 48.345 58.69 48.345C61.5118 48.345 64.3697 48.663 66.5389 49.1848C67.6186 49.4446 68.5632 49.7631 69.2537 50.1382C69.5982 50.3254 69.9108 50.5434 70.1447 50.8012C70.3811 51.0618 70.57 51.4019 70.57 51.81C70.57 52.4592 70.2141 52.9971 69.7231 53.408C69.2343 53.8169 68.5561 54.152 67.747 54.4199C66.1237 54.9576 63.8195 55.275 61 55.275C58.1782 55.275 55.3203 54.9569 53.1511 54.4351C52.0714 54.1754 51.1267 53.8569 50.4363 53.4817C50.0918 53.2945 49.7792 53.0765 49.5453 52.8187C49.3089 52.5582 49.12 52.218 49.12 51.81C49.12 51.1608 49.4759 50.6229 49.9669 50.212C50.4556 49.803 51.1339 49.4679 51.943 49.2Z" fill="white"/>
<path fill-rule="evenodd" clip-rule="evenodd" d="M43.345 52.14H29.485V56.265C29.485 57.3585 33.4127 58.245 37.24 58.245C41.0673 58.245 43.345 57.3585 43.345 56.265V52.14Z" fill="black"/>
<path fill-rule="evenodd" clip-rule="evenodd" d="M28.825 52.14C28.825 51.7755 29.1204 51.48 29.485 51.48H43.345C43.7095 51.48 44.005 51.7755 44.005 52.14V56.265C44.005 56.7904 43.7264 57.2182 43.3615 57.5344C43.0005 57.8473 42.5096 58.0952 41.9413 58.2895C40.8001 58.6798 39.1947 58.905 37.24 58.905C35.2827 58.905 33.2902 58.679 31.7699 58.306C31.0147 58.1207 30.3402 57.8906 29.8389 57.6131C29.5887 57.4747 29.3509 57.3078 29.1685 57.1031C28.9833 56.8954 28.825 56.6122 28.825 56.265V52.14ZM30.145 52.8V56.2145C30.1475 56.2176 30.1505 56.221 30.1539 56.2249C30.2012 56.278 30.3001 56.3598 30.478 56.4582C30.8328 56.6545 31.3794 56.8511 32.0845 57.0241C33.4849 57.3677 35.3698 57.585 37.24 57.585C39.1125 57.585 40.5596 57.367 41.5142 57.0406C41.9937 56.8766 42.3113 56.6978 42.497 56.5369C42.6788 56.3794 42.685 56.2864 42.685 56.265V52.8H30.145ZM30.1315 56.1961C30.1315 56.1961 30.1317 56.1964 30.1319 56.1969C30.1316 56.1964 30.1315 56.1961 30.1315 56.1961Z" fill="white"/>
<path d="M43.345 52.14C43.345 53.2336 41.0673 54.12 37.24 54.12C33.4127 54.12 29.485 53.2336 29.485 52.14C29.485 51.0465 31.7627 50.16 35.59 50.16C39.4173 50.16 43.345 51.0465 43.345 52.14Z" fill="black"/>
<path fill-rule="evenodd" clip-rule="evenodd" d="M30.1523 52.0981C30.1528 52.0987 30.1534 52.0993 30.1539 52.0999C30.2012 52.153 30.3001 52.2348 30.478 52.3332C30.8328 52.5296 31.3794 52.7261 32.0845 52.8991C33.4849 53.2427 35.3698 53.46 37.24 53.46C39.1125 53.46 40.5596 53.242 41.5142 52.9156C41.9937 52.7516 42.3113 52.5729 42.497 52.4119C42.621 52.3045 42.6633 52.2271 42.6776 52.1819C42.6771 52.1813 42.6765 52.1807 42.676 52.1801C42.6287 52.127 42.5298 52.0452 42.3519 51.9468C41.9972 51.7504 41.4505 51.5539 40.7454 51.3809C39.345 51.0373 37.4601 50.82 35.59 50.82C33.7174 50.82 32.2703 51.038 31.3157 51.3644C30.8362 51.5284 30.5186 51.7071 30.3329 51.8681C30.2089 51.9755 30.1666 52.0529 30.1523 52.0981ZM42.6984 52.2089C42.6984 52.2089 42.6983 52.2086 42.698 52.2081C42.6983 52.2086 42.6984 52.2089 42.6984 52.2089ZM30.1319 52.072C30.1316 52.0714 30.1315 52.0711 30.1315 52.0711C30.1315 52.0711 30.1317 52.0714 30.1319 52.072ZM30.8887 50.1154C32.0298 49.7252 33.6352 49.5 35.59 49.5C37.5472 49.5 39.5397 49.7259 41.06 50.0989C41.8152 50.2842 42.4897 50.5144 42.991 50.7918C43.2412 50.9303 43.479 51.0971 43.6614 51.3018C43.8466 51.5096 44.005 51.7927 44.005 52.14C44.005 52.6654 43.7264 53.0933 43.3615 53.4095C43.0005 53.7223 42.5096 53.9702 41.9413 54.1646C40.8001 54.5548 39.1947 54.78 37.24 54.78C35.2827 54.78 33.2902 54.5541 31.7699 54.1811C31.0147 53.9958 30.3402 53.7656 29.8389 53.4882C29.5887 53.3497 29.3509 53.1829 29.1685 52.9782C28.9833 52.7704 28.825 52.4873 28.825 52.14C28.825 51.6146 29.1035 51.1867 29.4684 50.8705C29.8294 50.5577 30.3203 50.3098 30.8887 50.1154Z" fill="white"/>
<path fill-rule="evenodd" clip-rule="evenodd" d="M129.19 50.9111C129.288 50.6573 129.533 50.49 129.805 50.49H152.848C153.011 50.49 153.169 50.5508 153.291 50.6607L159.123 55.9407C159.325 56.1239 159.394 56.4127 159.296 56.6673C159.198 56.922 158.953 57.09 158.68 57.09H135.58C135.415 57.09 135.256 57.0283 135.135 56.9171L129.36 51.6371C129.159 51.4533 129.091 51.165 129.19 50.9111ZM131.505 51.81L135.836 55.77H156.968L152.593 51.81H131.505Z" fill="white"/>
<path d="M138.385 104.28C138.385 122.05 123.98 136.455 106.21 136.455C88.4403 136.455 74.035 122.05 74.035 104.28C74.035 86.5102 88.4403 72.105 106.21 72.105C123.98 72.105 138.385 86.5102 138.385 104.28Z" fill="black"/>
<path fill-rule="evenodd" clip-rule="evenodd" d="M106.21 72.7649C88.8047 72.7649 74.695 86.8747 74.695 104.28C74.695 121.685 88.8047 135.795 106.21 135.795C123.615 135.795 137.725 121.685 137.725 104.28C137.725 86.8747 123.615 72.7649 106.21 72.7649ZM73.375 104.28C73.375 86.1457 88.0757 71.4449 106.21 71.4449C124.344 71.4449 139.045 86.1457 139.045 104.28C139.045 122.414 124.344 137.115 106.21 137.115C88.0757 137.115 73.375 122.414 73.375 104.28Z" fill="white"/>
<path fill-rule="evenodd" clip-rule="evenodd" d="M136.195 88.7582C135.937 89.0159 135.52 89.0159 135.262 88.7582L128.662 82.1582C128.404 81.9004 128.404 81.4825 128.662 81.2248C128.92 80.9671 129.337 80.9671 129.595 81.2248L136.195 87.8248C136.453 88.0825 136.453 88.5004 136.195 88.7582Z" fill="white"/>
<path fill-rule="evenodd" clip-rule="evenodd" d="M90.1932 133.77C89.9354 134.028 89.5175 134.028 89.2598 133.77L82.6598 127.17C82.402 126.912 82.402 126.495 82.6598 126.237C82.9175 125.979 83.3354 125.979 83.5932 126.237L90.1932 132.837C90.4509 133.095 90.4509 133.512 90.1932 133.77Z" fill="white"/>
<path d="M144.985 110.88C144.985 128.65 130.58 143.055 112.81 143.055C95.0402 143.055 80.635 128.65 80.635 110.88C80.635 93.1102 95.0402 78.705 112.81 78.705C130.58 78.705 144.985 93.1102 144.985 110.88Z" fill="black"/>
<path fill-rule="evenodd" clip-rule="evenodd" d="M112.81 79.365C95.4047 79.365 81.295 93.4748 81.295 110.88C81.295 128.285 95.4047 142.395 112.81 142.395C130.215 142.395 144.325 128.285 144.325 110.88C144.325 93.4748 130.215 79.365 112.81 79.365ZM79.975 110.88C79.975 92.7458 94.6757 78.045 112.81 78.045C130.944 78.045 145.645 92.7458 145.645 110.88C145.645 129.014 130.944 143.715 112.81 143.715C94.6757 143.715 79.975 129.014 79.975 110.88Z" fill="white"/>
<path d="M140.86 110.88C140.86 126.372 128.302 138.93 112.81 138.93C97.3184 138.93 84.76 126.372 84.76 110.88C84.76 95.3884 97.3184 82.83 112.81 82.83C128.302 82.83 140.86 95.3884 140.86 110.88Z" fill="black"/>
<path fill-rule="evenodd" clip-rule="evenodd" d="M112.81 83.49C97.6829 83.49 85.42 95.753 85.42 110.88C85.42 126.007 97.6829 138.27 112.81 138.27C127.937 138.27 140.2 126.007 140.2 110.88C140.2 95.753 127.937 83.49 112.81 83.49ZM84.1 110.88C84.1 95.0239 96.9539 82.17 112.81 82.17C128.666 82.17 141.52 95.0239 141.52 110.88C141.52 126.736 128.666 139.59 112.81 139.59C96.9539 139.59 84.1 126.736 84.1 110.88Z" fill="white"/>
<path d="M139.21 111.54C139.21 126.485 127.095 138.6 112.15 138.6C97.2051 138.6 85.09 126.485 85.09 111.54C85.09 96.5952 97.2051 84.48 112.15 84.48C127.095 84.48 139.21 96.5952 139.21 111.54Z" fill="black"/>
<path fill-rule="evenodd" clip-rule="evenodd" d="M112.15 85.1399C97.5697 85.1399 85.7501 96.9596 85.7501 111.54C85.7501 126.12 97.5697 137.94 112.15 137.94C126.73 137.94 138.55 126.12 138.55 111.54C138.55 96.9596 126.73 85.1399 112.15 85.1399ZM84.4301 111.54C84.4301 96.2306 96.8407 83.8199 112.15 83.8199C127.459 83.8199 139.87 96.2306 139.87 111.54C139.87 126.849 127.459 139.26 112.15 139.26C96.8407 139.26 84.4301 126.849 84.4301 111.54Z" fill="white"/>
<path fill-rule="evenodd" clip-rule="evenodd" d="M108.821 89.1644L108.881 89.5169L108.811 89.529C108.658 89.5539 108.54 89.5544 108.458 89.5307C108.375 89.5056 108.311 89.4505 108.267 89.3653C108.223 89.2786 108.186 89.1463 108.155 88.9684L107.778 86.7672L108.18 86.6983L108.555 88.8843C108.57 88.9732 108.585 89.0386 108.6 89.0805C108.616 89.1209 108.639 89.1484 108.669 89.1628C108.7 89.1758 108.746 89.1772 108.805 89.167L108.821 89.1644ZM107.25 89.3798C107.134 89.5023 106.997 89.5846 106.837 89.6266C106.659 89.6736 106.488 89.6713 106.325 89.6196C106.162 89.5679 106.02 89.4734 105.899 89.3361C105.777 89.1976 105.688 89.0258 105.631 88.8208C105.579 88.6145 105.572 88.4216 105.61 88.2423C105.649 88.0614 105.727 87.9083 105.843 87.783C105.96 87.6577 106.106 87.5717 106.283 87.5251C106.444 87.4827 106.605 87.4863 106.766 87.5358C106.927 87.5853 107.083 87.6835 107.234 87.8305L107.426 87.5297C107.254 87.3431 107.064 87.2206 106.855 87.1623C106.648 87.1036 106.426 87.1055 106.189 87.1679C105.931 87.236 105.717 87.3558 105.546 87.5274C105.376 87.6975 105.262 87.9048 105.204 88.1495C105.147 88.3925 105.153 88.6523 105.221 88.9287C105.298 89.2032 105.421 89.4321 105.59 89.6153C105.761 89.7983 105.963 89.9225 106.195 89.988C106.427 90.0519 106.673 90.0499 106.931 89.9819C107.169 89.9191 107.364 89.8117 107.516 89.6597C107.667 89.5065 107.772 89.3069 107.83 89.061L107.514 88.8925C107.455 89.0946 107.367 89.257 107.25 89.3798ZM92.1 104.101L91.9641 104.527L90.0087 102.666L89.5659 104.053L89.2214 103.943L89.7942 102.149L90.1461 102.262L92.1 104.101ZM91.2762 105.554L91.6923 105.652L91.7892 105.237L91.3731 105.14L91.2762 105.554ZM91.4618 107.259C91.432 107.461 91.3745 107.627 91.2892 107.755C91.2028 107.882 91.1005 107.989 90.9822 108.075L90.7206 107.847C90.8217 107.771 90.9063 107.679 90.9744 107.57C91.0413 107.46 91.0827 107.351 91.0985 107.244C91.1279 107.044 91.1009 106.882 91.0176 106.758C90.9344 106.632 90.8022 106.556 90.6211 106.529C90.5115 106.513 90.413 106.523 90.3257 106.558C90.2371 106.593 90.1644 106.649 90.1076 106.725C90.0495 106.802 90.0109 106.892 89.9917 106.996L89.9836 107.038C89.9707 107.126 89.9754 107.217 89.9978 107.313C90.0191 107.408 90.0634 107.501 90.1307 107.593L90.0802 107.697C90.0462 107.769 90.0249 107.816 90.0165 107.838L88.5463 107.456L88.7699 105.987L89.1153 106.044L88.9487 107.151L89.7078 107.345C89.6873 107.271 89.6751 107.195 89.6713 107.115C89.6661 107.035 89.6693 106.955 89.6807 106.878C89.697 106.767 89.7257 106.669 89.7666 106.585C89.8143 106.474 89.8823 106.379 89.9707 106.301C90.0591 106.223 90.1643 106.167 90.2864 106.134C90.4087 106.1 90.5431 106.094 90.6898 106.115C90.8849 106.144 91.0455 106.209 91.1714 106.309C91.2975 106.408 91.3852 106.539 91.4345 106.7C91.4838 106.861 91.4929 107.047 91.4618 107.259ZM90.5209 110.082C90.6494 110.246 90.7483 110.37 90.8177 110.452L91.1733 110.464L91.2411 108.501L90.8778 108.488L90.8392 109.83L90.8057 109.79C90.5906 109.522 90.4078 109.305 90.2575 109.138C90.1072 108.972 89.9477 108.828 89.779 108.708C89.6104 108.587 89.4468 108.524 89.2884 108.517C89.1042 108.51 88.9451 108.541 88.8112 108.609C88.6761 108.675 88.5706 108.777 88.4949 108.915C88.4193 109.052 88.378 109.22 88.3711 109.42L88.3708 109.485C88.3732 109.675 88.4253 109.848 88.527 110.003C88.6287 110.158 88.7771 110.304 88.9723 110.443L89.243 110.167C89.0871 110.049 88.9672 109.936 88.8832 109.83C88.7979 109.723 88.7521 109.609 88.746 109.489C88.7452 109.474 88.7452 109.454 88.7462 109.427C88.7517 109.266 88.8024 109.143 88.8982 109.059C88.9927 108.973 89.118 108.933 89.2738 108.938C89.3846 108.942 89.5091 108.999 89.6471 109.11C89.7839 109.219 89.9174 109.349 90.0476 109.501C90.1778 109.652 90.3356 109.846 90.5209 110.082ZM133.767 110.867L135.858 111.824L135.843 112.315L133.091 111.01L133.103 110.637L135.928 109.525L135.913 110.014L133.768 110.836L133.767 110.867ZM132.73 114.284L132.792 113.881L133.096 113.928L133.099 113.911C132.999 113.844 132.928 113.747 132.884 113.617C132.84 113.488 132.831 113.339 132.857 113.171C132.878 113.033 132.924 112.916 132.994 112.818C133.063 112.722 133.151 112.652 133.257 112.609C133.363 112.566 133.479 112.555 133.605 112.574C133.788 112.603 133.929 112.698 134.026 112.861C134.125 113.023 134.174 113.233 134.173 113.49C134.172 113.589 134.169 113.68 134.164 113.764C134.159 113.85 134.15 113.951 134.138 114.07C134.284 114.066 134.396 114.027 134.476 113.952C134.556 113.877 134.609 113.76 134.634 113.6C134.647 113.515 134.649 113.416 134.641 113.302C134.632 113.189 134.616 113.079 134.592 112.974L134.944 112.96C134.97 113.071 134.986 113.193 134.991 113.327C134.998 113.461 134.994 113.576 134.979 113.671C134.944 113.893 134.881 114.067 134.788 114.194C134.697 114.32 134.575 114.405 134.422 114.446C134.271 114.488 134.086 114.493 133.867 114.46L132.73 114.284ZM133.146 113.304C133.121 113.46 133.139 113.599 133.199 113.719C133.258 113.84 133.347 113.929 133.465 113.985L133.83 114.041C133.844 113.925 133.854 113.824 133.859 113.739C133.866 113.654 133.868 113.561 133.866 113.462C133.864 113.172 133.759 113.011 133.55 112.979C133.484 112.968 133.421 112.975 133.363 112.999C133.306 113.022 133.258 113.061 133.22 113.113C133.182 113.166 133.157 113.23 133.146 113.304ZM134.434 115.863C134.397 115.74 134.333 115.635 134.243 115.548L134.245 115.538L134.559 115.615L134.656 115.219L132.628 114.72L132.531 115.117L133.652 115.392C133.755 115.419 133.846 115.459 133.923 115.511C134.002 115.565 134.058 115.648 134.093 115.76C134.128 115.873 134.123 116.021 134.078 116.204L134.432 116.291C134.471 116.129 134.471 115.987 134.434 115.863ZM134.47 117.4L134.599 116.987L135.012 117.115L134.884 117.529L134.47 117.4ZM132.101 116.651L132.222 116.262L134.216 116.882L134.095 117.272L132.101 116.651ZM131.915 117.51C131.77 117.624 131.659 117.775 131.584 117.963C131.509 118.151 131.485 118.335 131.513 118.517C131.54 118.7 131.613 118.863 131.732 119.006C131.851 119.151 132.009 119.263 132.204 119.341C132.398 119.418 132.587 119.445 132.773 119.422C132.959 119.401 133.124 119.333 133.269 119.219C133.414 119.106 133.524 118.956 133.599 118.768C133.674 118.58 133.698 118.394 133.671 118.211C133.646 118.029 133.573 117.865 133.453 117.72C133.334 117.577 133.178 117.467 132.984 117.389C132.79 117.312 132.6 117.283 132.414 117.305C132.227 117.327 132.061 117.396 131.915 117.51ZM131.878 118.436C131.857 118.323 131.869 118.21 131.915 118.095C131.961 117.98 132.031 117.888 132.124 117.82C132.219 117.753 132.329 117.714 132.452 117.703C132.575 117.694 132.702 117.716 132.832 117.768C132.963 117.82 133.069 117.892 133.151 117.982C133.233 118.075 133.285 118.178 133.307 118.291C133.328 118.404 133.315 118.519 133.269 118.634C133.223 118.749 133.154 118.84 133.06 118.908C132.966 118.976 132.857 119.015 132.734 119.024C132.612 119.035 132.486 119.014 132.355 118.962C132.225 118.91 132.118 118.837 132.036 118.745C131.953 118.653 131.901 118.55 131.878 118.436ZM131.927 119.693L132.249 119.861L131.624 121.061L131.301 120.893L131.927 119.693ZM130.059 121.23C129.897 121.354 129.762 121.498 129.654 121.663C129.538 121.84 129.466 122.008 129.437 122.168C129.409 122.328 129.424 122.473 129.481 122.601C129.538 122.731 129.635 122.84 129.771 122.929C129.942 123.041 130.125 123.077 130.321 123.035C130.516 122.995 130.736 122.875 130.981 122.675C131.153 122.531 131.303 122.433 131.434 122.382C131.566 122.331 131.675 122.334 131.761 122.39C131.854 122.451 131.904 122.536 131.91 122.644C131.917 122.754 131.877 122.874 131.791 123.006L131.759 123.052C131.618 123.241 131.428 123.401 131.191 123.531L131.459 123.789C131.71 123.65 131.92 123.464 132.089 123.231C132.101 123.216 132.117 123.193 132.137 123.163C132.237 123.008 132.298 122.861 132.319 122.721C132.34 122.58 132.323 122.452 132.267 122.335C132.21 122.219 132.118 122.12 131.992 122.038C131.823 121.927 131.639 121.895 131.44 121.942C131.242 121.99 131.03 122.109 130.802 122.299C130.61 122.452 130.45 122.551 130.324 122.596C130.198 122.643 130.091 122.637 130.003 122.58C129.893 122.507 129.835 122.407 129.829 122.281C129.825 122.157 129.873 122.016 129.976 121.86C130.05 121.746 130.159 121.637 130.302 121.53C130.446 121.424 130.596 121.341 130.752 121.281L130.561 120.962C130.39 121.018 130.223 121.108 130.059 121.23ZM128.305 123.503C128.434 123.346 128.585 123.236 128.758 123.172C128.931 123.107 129.11 123.093 129.295 123.128C129.479 123.164 129.651 123.248 129.813 123.381C129.974 123.514 130.089 123.667 130.159 123.839C130.229 124.014 130.249 124.192 130.218 124.373C130.188 124.556 130.109 124.725 129.98 124.881C129.852 125.038 129.701 125.148 129.529 125.211C129.356 125.276 129.178 125.291 128.994 125.255C128.811 125.22 128.638 125.137 128.477 125.004C128.315 124.87 128.199 124.716 128.129 124.542C128.059 124.369 128.039 124.192 128.069 124.009C128.098 123.828 128.177 123.659 128.305 123.503ZM128.58 123.729C128.501 123.824 128.455 123.929 128.441 124.043C128.428 124.159 128.447 124.273 128.498 124.385C128.548 124.498 128.628 124.6 128.736 124.689C128.845 124.778 128.959 124.836 129.079 124.863C129.199 124.892 129.314 124.888 129.424 124.852C129.534 124.815 129.628 124.749 129.707 124.654C129.785 124.558 129.832 124.453 129.846 124.338C129.86 124.224 129.842 124.111 129.791 123.997C129.741 123.886 129.662 123.785 129.553 123.696C129.445 123.607 129.331 123.548 129.211 123.519C129.09 123.492 128.974 123.495 128.863 123.531C128.753 123.567 128.659 123.633 128.58 123.729ZM127.634 127.061C127.83 127.072 128.019 126.988 128.201 126.811C128.296 126.718 128.359 126.611 128.391 126.488C128.421 126.366 128.413 126.244 128.366 126.123L128.379 126.11L128.614 126.351L128.907 126.065L127.449 124.57L127.155 124.856L128.016 125.738C128.083 125.816 128.13 125.9 128.156 125.99C128.183 126.081 128.188 126.168 128.171 126.251C128.152 126.336 128.111 126.409 128.048 126.471C127.93 126.586 127.808 126.638 127.681 126.627C127.552 126.617 127.421 126.544 127.288 126.407L126.448 125.546L126.155 125.833L127.054 126.754C127.244 126.949 127.437 127.051 127.634 127.061ZM126.278 128.478C126.078 128.634 125.881 128.697 125.688 128.665C125.493 128.633 125.312 128.511 125.144 128.297L124.351 127.282L124.674 127.03L125.415 127.977C125.532 128.127 125.655 128.214 125.781 128.238C125.907 128.263 126.034 128.224 126.163 128.123C126.233 128.069 126.282 128 126.309 127.918C126.336 127.837 126.34 127.75 126.323 127.657C126.307 127.565 126.27 127.476 126.211 127.391L125.452 126.421L125.775 126.168L127.062 127.813L126.739 128.066L126.532 127.801L126.518 127.811C126.551 127.938 126.546 128.06 126.502 128.177C126.457 128.296 126.383 128.396 126.278 128.478ZM122.821 128.266L122.474 128.482L123.083 129.458C123.201 129.645 123.326 129.783 123.456 129.87C123.587 129.958 123.731 129.996 123.886 129.982C124.043 129.97 124.216 129.905 124.406 129.786C124.488 129.735 124.578 129.663 124.675 129.57C124.773 129.479 124.856 129.387 124.923 129.295L124.682 129.037C124.618 129.124 124.546 129.208 124.465 129.289C124.385 129.369 124.308 129.432 124.235 129.478C124.098 129.563 123.975 129.6 123.866 129.587C123.757 129.576 123.654 129.517 123.556 129.409C123.653 129.341 123.736 129.281 123.804 129.229C123.871 129.178 123.942 129.121 124.018 129.057C124.213 128.89 124.34 128.716 124.399 128.535C124.458 128.355 124.439 128.186 124.341 128.029C124.273 127.921 124.189 127.84 124.088 127.788C123.986 127.736 123.876 127.715 123.757 127.725C123.638 127.736 123.519 127.778 123.401 127.852C123.257 127.942 123.15 128.045 123.08 128.163C123.011 128.281 122.983 128.399 122.998 128.517L122.983 128.527L122.821 128.266ZM123.209 128.468C123.261 128.344 123.354 128.241 123.489 128.157C123.552 128.117 123.616 128.095 123.681 128.089C123.746 128.084 123.806 128.095 123.862 128.123C123.918 128.152 123.963 128.194 123.999 128.251C124.111 128.431 124.057 128.616 123.839 128.807C123.765 128.873 123.693 128.931 123.624 128.981C123.556 129.033 123.474 129.091 123.376 129.157L123.181 128.843C123.146 128.717 123.156 128.592 123.209 128.468ZM122.485 130.46C122.477 130.585 122.439 130.702 122.37 130.811C122.301 130.92 122.192 131.012 122.044 131.088L121.879 130.762C122.047 130.677 122.163 130.585 122.226 130.485C122.289 130.385 122.315 130.288 122.304 130.194C122.294 130.101 122.265 130.007 122.217 129.91L121.696 128.881L122.06 128.696L123.003 130.559L122.639 130.744L122.493 130.456L122.485 130.46ZM101.329 128.169L99.9142 130.574L100.499 130.918L100.683 130.605L100.462 130.475L101.692 128.383L101.329 128.169ZM100.63 127.727L100.392 128.082L100.039 127.845L100.277 127.49L100.63 127.727ZM99.5482 127.011C99.4741 126.874 99.3686 126.752 99.2319 126.644C99.0881 126.531 98.938 126.454 98.7816 126.412C98.6235 126.372 98.473 126.372 98.3302 126.414C98.1866 126.457 98.0649 126.541 97.9653 126.668C97.8648 126.796 97.8065 126.938 97.7904 127.096C97.7726 127.255 97.8095 127.411 97.9013 127.565C97.7706 127.531 97.6438 127.534 97.5209 127.573C97.3962 127.613 97.2907 127.686 97.2043 127.794C97.1118 127.912 97.0599 128.038 97.0485 128.173C97.036 128.308 97.0613 128.439 97.1244 128.568C97.1874 128.696 97.2822 128.81 97.4088 128.91C97.5374 129.011 97.6742 129.077 97.8192 129.107C97.9634 129.139 98.1021 129.132 98.2352 129.085C98.3683 129.039 98.4827 128.955 98.5784 128.834C98.6278 128.771 98.6638 128.699 98.6863 128.619C98.7078 128.537 98.7145 128.455 98.7064 128.371C98.6973 128.287 98.6733 128.209 98.6345 128.137C98.8214 128.165 98.9862 128.153 99.1289 128.103C99.2698 128.053 99.3913 127.964 99.4934 127.834C99.5899 127.711 99.6415 127.578 99.6482 127.434C99.6549 127.29 99.6216 127.149 99.5482 127.011ZM98.1098 127.929C98.121 127.937 98.1325 127.949 98.1442 127.963C98.2335 128.073 98.2877 128.185 98.3069 128.3C98.3254 128.416 98.3039 128.514 98.2425 128.592C98.1931 128.654 98.134 128.698 98.0654 128.723C97.9949 128.748 97.922 128.753 97.8468 128.738C97.7706 128.722 97.6981 128.687 97.6292 128.633C97.5623 128.58 97.5138 128.52 97.4837 128.452C97.4518 128.384 97.4403 128.314 97.4492 128.243C97.4581 128.171 97.4872 128.104 97.5367 128.041C97.5877 127.976 97.6594 127.931 97.7518 127.905C97.8442 127.879 97.9412 127.877 98.0429 127.898C98.0703 127.905 98.0926 127.915 98.1098 127.929ZM98.7516 126.785C98.8416 126.808 98.9291 126.853 99.0142 126.92C99.0932 126.983 99.1522 127.054 99.1911 127.133C99.2291 127.214 99.244 127.296 99.2356 127.38C99.2272 127.464 99.1947 127.541 99.138 127.613C99.099 127.663 99.0463 127.706 98.9799 127.742C98.9136 127.779 98.8403 127.803 98.76 127.815C98.679 127.829 98.599 127.827 98.5199 127.811C98.504 127.808 98.4849 127.798 98.4626 127.781C98.4484 127.769 98.4392 127.761 98.4349 127.756C98.3432 127.656 98.2786 127.554 98.2414 127.449C98.2033 127.345 98.1912 127.247 98.2049 127.154C98.2169 127.062 98.25 126.982 98.3042 126.913C98.3544 126.849 98.4195 126.806 98.4995 126.783C98.5776 126.761 98.6617 126.762 98.7516 126.785ZM97.487 126.519L97.2352 126.781L96.2589 125.843L96.5106 125.581L97.487 126.519ZM96.0575 124.672C96.2631 124.707 96.4193 124.732 96.5261 124.746L96.7973 124.516L95.5258 123.018L95.2487 123.253L96.1231 124.271L96.0715 124.264C95.732 124.211 95.4507 124.173 95.2275 124.151C95.0043 124.13 94.7897 124.131 94.5838 124.155C94.3779 124.179 94.2141 124.242 94.0924 124.344C93.9518 124.463 93.8548 124.593 93.8013 124.733C93.746 124.873 93.7368 125.02 93.7737 125.173C93.8097 125.325 93.8924 125.477 94.0217 125.629L94.0658 125.678C94.1953 125.817 94.35 125.909 94.53 125.956C94.7092 126.002 94.9175 126.01 95.1549 125.981L95.17 125.595C94.9747 125.612 94.8103 125.61 94.6767 125.588C94.5413 125.566 94.4309 125.513 94.3455 125.428C94.3353 125.418 94.3215 125.403 94.3039 125.382C94.1996 125.259 94.1545 125.134 94.1685 125.007C94.1807 124.88 94.2463 124.766 94.3652 124.665C94.4497 124.594 94.5802 124.552 94.7567 124.541C94.9314 124.53 95.1179 124.536 95.3162 124.561C95.5145 124.585 95.7616 124.622 96.0575 124.672ZM95.1967 122.542L94.8489 122.79L94.6017 122.444L94.9495 122.196L95.1967 122.542ZM94.4325 121.49C94.4116 121.335 94.3562 121.183 94.2663 121.034C94.1718 120.878 94.0586 120.753 93.9269 120.659C93.7934 120.565 93.6524 120.512 93.5041 120.501C93.3546 120.49 93.2109 120.526 93.0729 120.609C92.9338 120.693 92.8288 120.806 92.758 120.948C92.6853 121.09 92.6647 121.249 92.6961 121.426C92.5858 121.348 92.4662 121.306 92.3373 121.299C92.2066 121.292 92.0819 121.324 91.9631 121.394C91.8351 121.471 91.7418 121.571 91.6833 121.694C91.6241 121.815 91.6013 121.947 91.6149 122.089C91.6284 122.232 91.6768 122.372 91.7601 122.51C91.8446 122.65 91.9493 122.76 92.0742 122.84C92.1979 122.92 92.3302 122.962 92.4711 122.966C92.6119 122.97 92.7486 122.932 92.881 122.852C92.9495 122.811 93.0085 122.756 93.0581 122.689C93.107 122.62 93.1424 122.546 93.1643 122.465C93.1856 122.382 93.1907 122.301 93.1797 122.22C93.3448 122.312 93.503 122.36 93.6542 122.363C93.8037 122.366 93.949 122.325 94.0903 122.24C94.2239 122.16 94.3193 122.053 94.3764 121.921C94.4336 121.789 94.4523 121.645 94.4325 121.49ZM92.7626 121.84C92.77 121.852 92.7766 121.867 92.7826 121.884C92.8274 122.018 92.8384 122.143 92.8157 122.257C92.7918 122.372 92.7374 122.456 92.6524 122.507C92.584 122.548 92.5133 122.568 92.4403 122.567C92.3656 122.565 92.2957 122.544 92.2306 122.504C92.1648 122.462 92.1093 122.404 92.0641 122.329C92.0201 122.256 91.9961 122.182 91.9919 122.108C91.986 122.033 91.9999 121.964 92.0336 121.9C92.0673 121.836 92.1183 121.783 92.1868 121.742C92.2574 121.7 92.3405 121.683 92.436 121.691C92.5315 121.7 92.6231 121.732 92.7108 121.787C92.734 121.804 92.7513 121.821 92.7626 121.84ZM93.7672 120.997C93.8431 121.05 93.9091 121.123 93.965 121.216C94.0169 121.302 94.0469 121.39 94.0551 121.478C94.0622 121.567 94.047 121.649 94.0096 121.724C93.9722 121.8 93.9143 121.861 93.8359 121.908C93.7818 121.941 93.7173 121.962 93.6424 121.973C93.5675 121.984 93.4903 121.98 93.4109 121.964C93.3304 121.947 93.256 121.918 93.1878 121.875C93.1739 121.866 93.1596 121.85 93.145 121.826C93.1356 121.81 93.1299 121.8 93.1276 121.793C93.0772 121.667 93.053 121.549 93.0552 121.437C93.0563 121.327 93.0796 121.231 93.1252 121.149C93.169 121.067 93.2284 121.003 93.3035 120.958C93.373 120.916 93.4492 120.899 93.5318 120.906C93.6128 120.913 93.6912 120.943 93.7672 120.997ZM93.9918 119.494L94.1787 119.885L90.5152 120.032L90.3282 119.641L93.9918 119.494ZM89.7015 117.851C89.6837 118.01 89.7064 118.176 89.7694 118.349C89.8323 118.522 89.9257 118.664 90.0494 118.774C90.1718 118.884 90.3111 118.954 90.4673 118.984C90.6235 119.014 90.7815 118.999 90.9414 118.941C91.0977 118.884 91.2228 118.798 91.3168 118.683C91.4103 118.567 91.4665 118.431 91.4856 118.276C91.5042 118.12 91.4825 117.956 91.4204 117.786C91.4023 117.736 91.3748 117.683 91.3378 117.626L92.5859 117.749L92.4319 117.325L90.6858 117.129L90.6896 117.134C90.5546 117.117 90.4269 117.124 90.3066 117.156C90.2694 117.166 90.2429 117.175 90.2272 117.18C90.077 117.235 89.9565 117.321 89.8659 117.437C89.774 117.554 89.7192 117.692 89.7015 117.851ZM91.0232 118.391C90.9679 118.458 90.8967 118.507 90.8094 118.539C90.7174 118.572 90.6267 118.581 90.5374 118.566C90.4468 118.55 90.3669 118.514 90.2977 118.455C90.2279 118.395 90.1764 118.32 90.1429 118.228C90.1068 118.128 90.0958 118.032 90.11 117.939C90.1242 117.846 90.1614 117.765 90.2215 117.697C90.2805 117.629 90.3571 117.581 90.4513 117.554L90.5296 117.531L90.5278 117.532C90.6139 117.52 90.6949 117.528 90.7707 117.555C90.846 117.581 90.9114 117.623 90.9667 117.681C91.0221 117.739 91.0642 117.808 91.0928 117.886C91.1267 117.98 91.1377 118.07 91.1258 118.158C91.1127 118.247 91.0785 118.324 91.0232 118.391ZM91.9834 115.937L91.5711 116.049L91.4595 115.639L91.8719 115.527L91.9834 115.937ZM90.8609 113.907L91.4985 113.792L91.4222 113.378L90.7865 113.492L90.7076 113.052L90.3555 113.115L90.4344 113.555L88.6777 113.87L88.7494 114.27C88.7628 114.279 88.8439 114.319 88.9927 114.389C89.1961 114.486 89.4235 114.597 89.6749 114.721C90.0835 114.925 90.4376 115.11 90.7372 115.277L91.0858 115.161L90.8609 113.907ZM89.3763 114.173L90.5088 113.97L90.6596 114.811C90.502 114.728 90.2736 114.612 89.9744 114.463C89.7791 114.367 89.5797 114.27 89.3763 114.173ZM90.3417 112.476L89.9791 112.502L89.8849 111.151L90.2475 111.126L90.3417 112.476ZM110.599 89.3181L111.006 89.2803L110.899 88.1347C110.877 87.9141 110.827 87.7355 110.75 87.599C110.673 87.4612 110.561 87.3635 110.416 87.3058C110.271 87.2468 110.086 87.2277 109.863 87.2485C109.767 87.2575 109.654 87.2815 109.526 87.3206C109.397 87.3585 109.283 87.4035 109.181 87.4556L109.281 87.794C109.377 87.7449 109.479 87.7024 109.587 87.6664C109.695 87.6305 109.792 87.6085 109.878 87.6005C110.039 87.5856 110.165 87.6081 110.257 87.6682C110.35 87.7269 110.415 87.8263 110.454 87.9664C110.337 87.9838 110.236 88.0003 110.152 88.0159C110.069 88.0313 109.98 88.0507 109.883 88.0739C109.634 88.1359 109.443 88.2346 109.309 88.3701C109.175 88.5042 109.117 88.6637 109.134 88.8485C109.146 88.9756 109.185 89.0852 109.252 89.1774C109.32 89.2694 109.409 89.3375 109.52 89.3816C109.631 89.4256 109.756 89.4412 109.895 89.4283C110.064 89.4125 110.206 89.3676 110.321 89.2934C110.436 89.2193 110.513 89.126 110.553 89.0136L110.571 89.0119L110.599 89.3181ZM110.343 88.9632C110.241 89.0504 110.111 89.1013 109.953 89.116C109.879 89.1229 109.811 89.1143 109.751 89.0902C109.69 89.066 109.642 89.0291 109.605 88.9795C109.568 88.9286 109.546 88.8698 109.54 88.803C109.52 88.5925 109.651 88.4509 109.931 88.3782C110.027 88.3524 110.117 88.3324 110.201 88.3181C110.285 88.3025 110.386 88.2874 110.502 88.2726L110.536 88.6404C110.511 88.7683 110.446 88.876 110.343 88.9632ZM112.204 89.3052C112.052 89.3047 111.898 89.2783 111.744 89.2262C111.591 89.1741 111.452 89.102 111.327 89.01L111.458 88.7011C111.581 88.7789 111.708 88.8394 111.838 88.8824C111.969 88.9241 112.09 88.9452 112.201 88.9456C112.316 88.946 112.407 88.9264 112.474 88.8867C112.543 88.8469 112.577 88.7852 112.577 88.7014C112.578 88.6447 112.56 88.5963 112.526 88.5562C112.492 88.5161 112.439 88.4805 112.366 88.4493C112.292 88.4168 112.194 88.3848 112.07 88.3534C111.851 88.2972 111.692 88.216 111.591 88.11C111.493 88.0039 111.447 87.8677 111.454 87.7015C111.458 87.5932 111.49 87.4966 111.55 87.4118C111.61 87.3256 111.693 87.2583 111.798 87.2097C111.902 87.1611 112.022 87.137 112.156 87.1375C112.286 87.138 112.412 87.1552 112.535 87.1892C112.657 87.2218 112.771 87.2667 112.878 87.3239L112.813 87.6562C112.703 87.6016 112.599 87.5613 112.502 87.5352C112.407 87.5077 112.31 87.4938 112.211 87.4935C112.107 87.4931 112.023 87.5147 111.957 87.5583C111.892 87.6006 111.86 87.6559 111.86 87.7242C111.86 87.7784 111.875 87.8242 111.906 87.8617C111.936 87.8979 111.985 87.9309 112.05 87.9608C112.117 87.9894 112.209 88.0194 112.326 88.0508C112.553 88.1122 112.719 88.1908 112.824 88.2866C112.931 88.3811 112.984 88.507 112.984 88.6642C112.983 88.7957 112.952 88.9097 112.891 89.0061C112.83 89.1026 112.741 89.177 112.624 89.2294C112.508 89.2806 112.368 89.3058 112.204 89.3052ZM113.636 89.2736C113.785 89.3392 113.936 89.379 114.087 89.393C114.25 89.4081 114.392 89.3953 114.512 89.3546C114.634 89.3128 114.729 89.2466 114.798 89.1559C114.868 89.0652 114.908 88.9544 114.92 88.8235C114.935 88.6669 114.893 88.5368 114.795 88.4332C114.699 88.3285 114.54 88.2355 114.32 88.1543C114.206 88.1127 114.117 88.0747 114.053 88.0403C113.99 88.0047 113.945 87.9675 113.918 87.9287C113.89 87.8886 113.879 87.8417 113.884 87.7877C113.89 87.7197 113.928 87.6675 113.996 87.6311C114.065 87.5935 114.151 87.5794 114.254 87.5889C114.353 87.5981 114.448 87.6205 114.541 87.6563C114.635 87.6908 114.735 87.7402 114.84 87.8043L114.934 87.479C114.833 87.4127 114.723 87.3578 114.604 87.3145C114.485 87.2698 114.361 87.2415 114.231 87.2295C114.097 87.2172 113.976 87.2306 113.868 87.2697C113.759 87.3089 113.671 87.3687 113.603 87.4491C113.536 87.5283 113.496 87.6217 113.482 87.7292C113.46 87.8941 113.494 88.0338 113.583 88.1482C113.673 88.2627 113.825 88.3577 114.038 88.4331C114.158 88.4753 114.254 88.5158 114.324 88.5547C114.394 88.5923 114.444 88.6325 114.474 88.6754C114.505 88.7184 114.518 88.7681 114.513 88.8246C114.505 88.908 114.465 88.9665 114.393 89C114.323 89.0336 114.231 89.0451 114.116 89.0345C114.006 89.0243 113.887 88.9926 113.76 88.9394C113.634 88.8851 113.513 88.8137 113.397 88.7253L113.24 89.0214C113.356 89.1241 113.488 89.2081 113.636 89.2736ZM116.008 87.0949L115.58 87.027L115.648 86.5992L116.076 86.6671L116.008 87.0949ZM115.607 89.547L115.204 89.4831L115.531 87.4206L115.934 87.4845L115.607 89.547ZM117.488 89.5449C117.384 89.5704 117.276 89.5698 117.163 89.543C117.037 89.5131 116.933 89.4579 116.85 89.3772C116.769 89.2956 116.714 89.195 116.684 89.0752C116.655 88.9546 116.656 88.8223 116.687 88.6784C116.724 88.5376 116.783 88.4203 116.862 88.3266C116.943 88.2318 117.038 88.167 117.147 88.1319C117.257 88.096 117.375 88.0929 117.501 88.1227C117.614 88.1496 117.71 88.1963 117.789 88.2629C117.87 88.3286 117.934 88.4187 117.981 88.5332L118.264 88.4076C118.21 88.2384 118.125 88.101 118.01 87.9954C117.895 87.8898 117.752 87.8169 117.583 87.7766C117.384 87.7292 117.195 87.7313 117.017 87.7831C116.839 87.8348 116.686 87.9302 116.557 88.0693C116.43 88.2074 116.341 88.3782 116.288 88.5817L116.288 88.5836L116.287 88.5873C116.242 88.7926 116.245 88.9861 116.296 89.1678C116.348 89.3486 116.442 89.5021 116.578 89.6285C116.714 89.7548 116.881 89.8417 117.08 89.8891C117.251 89.9297 117.413 89.9272 117.567 89.8816C117.721 89.8361 117.857 89.7486 117.976 89.619L117.78 89.3797C117.691 89.4633 117.594 89.5183 117.488 89.5449Z" fill="white"/>
<path fill-rule="evenodd" clip-rule="evenodd" d="M112.15 93.06C102.673 93.06 94.99 100.743 94.99 110.22C94.99 119.697 102.673 127.38 112.15 127.38C121.627 127.38 129.31 119.697 129.31 110.22C129.31 100.743 121.627 93.06 112.15 93.06ZM93.67 110.22C93.67 100.014 101.944 91.74 112.15 91.74C122.356 91.74 130.63 100.014 130.63 110.22C130.63 120.426 122.356 128.7 112.15 128.7C101.944 128.7 93.67 120.426 93.67 110.22Z" fill="white"/>
<path d="M162 12L167.262 35.2959L187.456 22.5442L174.704 42.7378L198 48L174.704 53.2622L187.456 73.4558L167.262 60.7041L162 84L156.738 60.7041L136.544 73.4558L149.296 53.2622L126 48L149.296 42.7378L136.544 22.5442L156.738 35.2959L162 12Z" fill="#FFB82E"/>
<path fill-rule="evenodd" clip-rule="evenodd" d="M162 16.5386L157.401 36.8976L139.753 25.7534L150.898 43.4012L130.539 48L150.898 52.5988L139.753 70.2466L157.401 59.1024L162 79.4614L166.599 59.1024L184.247 70.2466L173.102 52.5988L193.461 48L173.102 43.4012L184.247 25.7534L166.599 36.8976L162 16.5386ZM156.074 33.6943L161.025 11.7797H162.975L167.926 33.6943L186.922 21.6986L188.301 23.0781L176.306 42.0744L198.22 47.0246V48.9754L176.306 53.9256L188.301 72.9219L186.922 74.3014L167.926 62.3057L162.975 84.2203H161.025L156.074 62.3057L137.078 74.3014L135.699 72.9219L147.694 53.9256L125.78 48.9754V47.0246L147.694 42.0744L135.699 23.0781L137.078 21.6986L156.074 33.6943Z" fill="black"/>
</g>
<defs>
<clipPath id="clip0_2631_26818">
<rect width="198" height="198" fill="white"/>
</clipPath>
</defs>
</svg>
