<svg width="198" height="198" viewBox="0 0 198 198" fill="none" xmlns="http://www.w3.org/2000/svg">
<path d="M54 30L58.0514 40.9486L69 45L58.0514 49.0514L54 60L49.9486 49.0514L39 45L49.9486 40.9486L54 30Z" fill="#FFB82E"/>
<path d="M132 114L136.051 124.949L147 129L136.051 133.051L132 144L127.949 133.051L117 129L127.949 124.949L132 114Z" fill="#FFB82E"/>
<path d="M165 102L169.051 112.949L180 117L169.051 121.051L165 132L160.949 121.051L150 117L160.949 112.949L165 102Z" fill="#FFB82E"/>
<path fill-rule="evenodd" clip-rule="evenodd" d="M68 92C50.8792 92 37 105.879 37 123C37 140.121 50.8792 154 68 154C85.1208 154 99 140.121 99 123C99 105.879 85.1208 92 68 92ZM35 123C35 104.775 49.7746 90 68 90C86.2254 90 101 104.775 101 123C101 141.225 86.2254 156 68 156C49.7746 156 35 141.225 35 123Z" fill="white"/>
<path fill-rule="evenodd" clip-rule="evenodd" d="M68 85C47.0132 85 30 102.013 30 123C30 143.987 47.0132 161 68 161C88.9868 161 106 143.987 106 123C106 102.013 88.9868 85 68 85ZM28 123C28 100.909 45.9086 83 68 83C90.0914 83 108 100.909 108 123C108 145.091 90.0914 163 68 163C45.9086 163 28 145.091 28 123Z" fill="white"/>
<path fill-rule="evenodd" clip-rule="evenodd" d="M111.87 51.6058C104.919 55.0815 101 59.6981 101 64.5C101 69.3019 104.919 73.9185 111.87 77.3942C118.762 80.8399 128.352 83 139 83C149.648 83 159.238 80.8399 166.13 77.3942C173.081 73.9185 177 69.3019 177 64.5C177 59.6981 173.081 55.0815 166.13 51.6058C159.238 48.1601 149.648 46 139 46C128.352 46 118.762 48.1601 111.87 51.6058ZM110.976 49.817C118.199 46.2051 128.109 44 139 44C149.891 44 159.801 46.2051 167.024 49.817C174.188 53.3989 179 58.5324 179 64.5C179 70.4676 174.188 75.6011 167.024 79.183C159.801 82.7949 149.891 85 139 85C128.109 85 118.199 82.7949 110.976 79.183C103.812 75.6011 99 70.4676 99 64.5C99 58.5324 103.812 53.3989 110.976 49.817Z" fill="white"/>
<path fill-rule="evenodd" clip-rule="evenodd" d="M108.394 58.8534C106.797 60.5193 106 62.2569 106 64C106 65.7431 106.797 67.4807 108.394 69.1466C109.996 70.8176 112.362 72.3679 115.362 73.6917C121.36 76.338 129.717 78 139 78C148.283 78 156.64 76.338 162.638 73.6917C165.638 72.3679 168.004 70.8176 169.606 69.1466C171.203 67.4807 172 65.7431 172 64C172 62.2569 171.203 60.5193 169.606 58.8534C168.004 57.1824 165.638 55.6321 162.638 54.3083C156.64 51.662 148.283 50 139 50C129.717 50 121.36 51.662 115.362 54.3083C112.362 55.6321 109.996 57.1824 108.394 58.8534ZM114.555 52.4785C120.862 49.6958 129.506 48 139 48C148.494 48 157.138 49.6958 163.445 52.4785C166.598 53.8692 169.211 55.5511 171.05 57.4693C172.894 59.3925 174 61.601 174 64C174 66.399 172.894 68.6075 171.05 70.5307C169.211 72.4489 166.598 74.1308 163.445 75.5215C157.138 78.3042 148.494 80 139 80C129.506 80 120.862 78.3042 114.555 75.5215C111.402 74.1308 108.789 72.4489 106.95 70.5307C105.106 68.6075 104 66.399 104 64C104 61.601 105.106 59.3925 106.95 57.4693C108.789 55.5511 111.402 53.8692 114.555 52.4785Z" fill="white"/>
<path fill-rule="evenodd" clip-rule="evenodd" d="M101 64.5L101 72.5C101 77.3019 104.919 81.9185 111.87 85.3941C118.762 88.8399 128.352 91 139 91C149.648 91 159.239 88.8399 166.13 85.3941C173.081 81.9185 177 77.3019 177 72.5L177 64.5H179L179 72.5C179 78.4676 174.188 83.601 167.025 87.183C159.801 90.7948 149.891 93 139 93C128.109 93 118.199 90.7948 110.976 87.183C103.812 83.601 99.0001 78.4676 99.0001 72.5L99.0001 64.5L101 64.5Z" fill="white"/>
<path d="M65.3594 140H58.2812V106.18H80.6172V112.227H65.3594V120.008H79.1406V126.055H65.3594V140Z" fill="white"/>
<path d="M121 62.1196L121 58L155 58L155 71L148.921 71L148.921 62.1196L141.098 62.1196L141.098 70.1406L135.019 70.1406L135.019 62.1196L121 62.1196Z" fill="white"/>
<path fill-rule="evenodd" clip-rule="evenodd" d="M104.5 82V74H105.5V82H104.5Z" fill="white"/>
<path fill-rule="evenodd" clip-rule="evenodd" d="M173.5 82V74H172.5V82H173.5Z" fill="white"/>
<path fill-rule="evenodd" clip-rule="evenodd" d="M102 79V71H103V79H102Z" fill="white"/>
<path fill-rule="evenodd" clip-rule="evenodd" d="M176 79V71H175V79H176Z" fill="white"/>
<path fill-rule="evenodd" clip-rule="evenodd" d="M107.5 85V77H108.5V85H107.5Z" fill="white"/>
<path fill-rule="evenodd" clip-rule="evenodd" d="M170.5 85V77H169.5V85H170.5Z" fill="white"/>
<path fill-rule="evenodd" clip-rule="evenodd" d="M112.5 87V79H113.5V87H112.5Z" fill="white"/>
<path fill-rule="evenodd" clip-rule="evenodd" d="M165.5 87V79H164.5V87H165.5Z" fill="white"/>
<path fill-rule="evenodd" clip-rule="evenodd" d="M118.5 89V81H119.5V89H118.5Z" fill="white"/>
<path fill-rule="evenodd" clip-rule="evenodd" d="M159.5 89V81H158.5V89H159.5Z" fill="white"/>
<path fill-rule="evenodd" clip-rule="evenodd" d="M124.5 91V83H125.5V91H124.5Z" fill="white"/>
<path fill-rule="evenodd" clip-rule="evenodd" d="M153.5 91V83H152.5V91H153.5Z" fill="white"/>
<path fill-rule="evenodd" clip-rule="evenodd" d="M131.5 92V84H132.5V92H131.5Z" fill="white"/>
<path fill-rule="evenodd" clip-rule="evenodd" d="M146.5 92V84H145.5V92H146.5Z" fill="white"/>
<path fill-rule="evenodd" clip-rule="evenodd" d="M138.5 92V84H139.5V92H138.5Z" fill="white"/>
</svg>
