<svg id="eV7tRcWMulX1" xmlns="http://www.w3.org/2000/svg" xmlns:xlink="http://www.w3.org/1999/xlink" viewBox="0 0 198 198" shape-rendering="geometricPrecision" text-rendering="geometricPrecision"><g clip-path="url(#eV7tRcWMulX43)"><g><path d="M15.8345,50.9118c.0985-.2541.3429-.4216.6154-.4216h142.5601c.164,0,.323.0615.445.1723l11.22,10.23c.201.1836.269.4721.17.7262-.098.2541-.343.4215-.615.4215h-142.5601c-.1645,0-.3231-.0614-.4446-.1723l-11.22-10.23c-.2014-.1835-.2692-.472-.1708-.7261Zm2.3189.8984l9.7723,8.91h140.6013l-9.773-8.91h-140.6006Z" clip-rule="evenodd" fill="#fff" fill-rule="evenodd"/><path d="M16.1835,50.5465c.2391-.1056.518-.0601.7112.116l11.22,10.23c.1372.1251.2153.3021.2153.4877v85.7998c0,.262-.1543.498-.3934.604s-.5181.06-.7112-.116l-11.22-10.23c-.1372-.125-.2154-.302-.2154-.488v-85.7998c0-.2614.1543-.4981.3935-.6037Zm.9265,2.0987v84.0138l9.9,9.026v-84.0134l-9.9-9.0264Z" clip-rule="evenodd" fill="#fff" fill-rule="evenodd"/><path d="M27.01,61.3797c0-.3645.2955-.66.66-.66h142.56c.365,0,.66.2955.66.66v30.03c0,.3645-.295.66-.66.66h-142.56c-.3645,0-.66-.2955-.66-.66v-30.03Zm1.32.66v28.71h141.24v-28.71h-141.24Z" clip-rule="evenodd" fill="#fff" fill-rule="evenodd"/><path d="M145.975,69.2996c0-.3645.295-.66.66-.66h11.55c.364,0,.66.2955.66.66v7.92c0,.3646-.296.66-.66.66h-11.55c-.365,0-.66-.2954-.66-.66v-7.92Zm1.32.66v6.6h10.23v-6.6h-10.23Z" clip-rule="evenodd" fill="#fff" fill-rule="evenodd"/><path d="M33.4747,87.6146h-.584v-2.7901h1.8428v.4988h-1.2588v.642h1.1369v.4989h-1.1369v1.1504Z" fill="#fff"/><path d="M38.7895,87.6862c-.2836,0-.5343-.0612-.7522-.1837-.2165-.1225-.3848-.2946-.5046-.5163-.1186-.2217-.1779-.4782-.1779-.7695c0-.2901.0593-.5453.1779-.7657.1198-.2218.2881-.3932.5046-.5144.2179-.1224.4686-.1837.7522-.1837.2823,0,.5311.0613.7464.1837.2165.1212.3841.2926.5027.5144.1199.2204.1798.4756.1798.7657c0,.2913-.0593.5478-.1779.7695s-.2861.3938-.5027.5163-.466.1837-.7483.1837Zm0-.4989c.1676,0,.3152-.0399.4428-.1199.1276-.0812.2262-.1953.2958-.3422.0709-.147.1064-.3165.1064-.5085c0-.1908-.0355-.359-.1064-.5047-.0696-.1457-.1682-.2585-.2958-.3384-.1276-.0812-.2752-.1218-.4428-.1218-.1689,0-.3178.0406-.4467.1218-.1276.0799-.2268.1927-.2977.3384s-.1064.3139-.1064.5047c0,.192.0355.3615.1064.5085.0709.1469.1701.261.2977.3422.1289.08.2778.1199.4467.1199Z" fill="#fff"/><path d="M44.2745,87.6862c-.2836,0-.5344-.0612-.7522-.1837-.2166-.1225-.3848-.2946-.5047-.5163-.1186-.2217-.1779-.4782-.1779-.7695c0-.2901.0593-.5453.1779-.7657.1199-.2218.2881-.3932.5047-.5144.2178-.1224.4686-.1837.7522-.1837.2823,0,.5311.0613.7463.1837.2166.1212.3842.2926.5028.5144.1198.2204.1798.4756.1798.7657c0,.2913-.0593.5478-.1779.7695s-.2862.3938-.5027.5163-.466.1837-.7483.1837Zm0-.4989c.1675,0,.3151-.0399.4428-.1199.1276-.0812.2262-.1953.2958-.3422.0709-.147.1063-.3165.1063-.5085c0-.1908-.0354-.359-.1063-.5047-.0696-.1457-.1682-.2585-.2958-.3384-.1277-.0812-.2753-.1218-.4428-.1218-.1689,0-.3178.0406-.4467.1218-.1276.0799-.2269.1927-.2978.3384s-.1063.3139-.1063.5047c0,.192.0354.3615.1063.5085.0709.1469.1702.261.2978.3422.1289.08.2778.1199.4467.1199Z" fill="#fff"/><path d="M49.423,84.8245c.9126,0,1.369.4576,1.369,1.3728c0,.9449-.4499,1.4173-1.3497,1.4173h-.9977l-.0039-2.7901h.9823Zm.0193,2.2913c.2604,0,.4531-.0767.5782-.2301s.1875-.3829.1875-.6884c0-.2913-.0638-.5098-.1914-.6555-.1276-.1456-.3255-.2185-.5936-.2185h-.3983v1.7925h.4176Z" fill="#fff"/><path d="M55.9888,87.6146h-.6458l-.234-.5839h-1.0693l-.2339.5839h-.6265l1.1892-2.7901h.4021l1.2182,2.7901Zm-1.4173-1.9181l-.3442.8624h.6942l-.3442-.8624h-.0058Z" fill="#fff"/><path d="M59.7973,84.8245h.6942l-1.0209,1.6977v1.0924h-.584v-1.0789L57.856,84.8245h.6942l.6129,1.1447h.0232l.611-1.1447Z" fill="#fff"/><path d="M27.01,91.41c0-.3645.2955-.66.66-.66h142.56c.365,0,.66.2955.66.66v55.77c0,.365-.295.66-.66.66h-142.56c-.3645,0-.66-.295-.66-.66v-55.77Zm1.32.66v54.45h141.24v-54.45h-141.24Z" clip-rule="evenodd" fill="#fff" fill-rule="evenodd"/><path d="M35.0125,97.0202c-.9569,0-1.7325.7757-1.7325,1.7325s.7756,1.7323,1.7325,1.7323c.9568,0,1.7325-.7755,1.7325-1.7323s-.7757-1.7325-1.7325-1.7325ZM31.96,98.7527c0-1.6859,1.3666-3.0525,3.0525-3.0525c1.6858,0,3.0525,1.3666,3.0525,3.0525c0,1.6863-1.3667,3.0523-3.0525,3.0523-1.6859,0-3.0525-1.366-3.0525-3.0523Z" clip-rule="evenodd" fill="#fff" fill-rule="evenodd"/><path d="M162.887,97.0202c-.956,0-1.732.7757-1.732,1.7325s.776,1.7323,1.732,1.7323c.957,0,1.733-.7755,1.733-1.7323s-.776-1.7325-1.733-1.7325Zm-3.052,1.7325c0-1.6859,1.367-3.0525,3.052-3.0525c1.686,0,3.053,1.3666,3.053,3.0525c0,1.6863-1.367,3.0523-3.053,3.0523-1.685,0-3.052-1.366-3.052-3.0523Z" clip-rule="evenodd" fill="#fff" fill-rule="evenodd"/><path d="M35.0125,138.105c-.9569,0-1.7325.776-1.7325,1.733c0,.956.7756,1.732,1.7325,1.732.9568,0,1.7325-.776,1.7325-1.732c0-.957-.7757-1.733-1.7325-1.733ZM31.96,139.838c0-1.686,1.3666-3.053,3.0525-3.053c1.6858,0,3.0525,1.367,3.0525,3.053s-1.3667,3.052-3.0525,3.052c-1.6859,0-3.0525-1.366-3.0525-3.052Z" clip-rule="evenodd" fill="#fff" fill-rule="evenodd"/><path d="M162.887,138.105c-.956,0-1.732.776-1.732,1.733c0,.956.776,1.732,1.732,1.732.957,0,1.733-.776,1.733-1.732c0-.957-.776-1.733-1.733-1.733Zm-3.052,1.733c0-1.686,1.367-3.053,3.052-3.053c1.686,0,3.053,1.367,3.053,3.053s-1.367,3.052-3.053,3.052c-1.685,0-3.052-1.366-3.052-3.052Z" clip-rule="evenodd" fill="#fff" fill-rule="evenodd"/><path d="M69.91,51.8105h-20.13v3.795c0,1.5492,5.6613,2.805,11.22,2.805c5.5588,0,8.91-1.2558,8.91-2.805v-3.795Z" clip-rule="evenodd" fill-rule="evenodd"/><path d="M49.12,51.8104c0-.3645.2955-.66.66-.66h20.13c.3645,0,.66.2955.66.66v3.795c0,.6492-.3559,1.1871-.8469,1.598-.4888.4089-1.167.744-1.9761,1.012-1.6233.5376-3.9275.855-6.747.855-2.8218,0-5.6797-.3181-7.8489-.8399-1.0797-.2597-2.0244-.5782-2.7148-.9534-.3445-.1872-.6571-.4051-.891-.6629-.2364-.2606-.4253-.6007-.4253-1.0088v-3.795Zm1.32.66v3.1325c.0025.0108.0167.0513.0829.1243.0975.1074.2706.2417.5436.3901.5448.296,1.3628.5819,2.3933.8298c2.0511.4934,4.8033.8033,7.5402.8033c2.7393,0,4.8901-.3105,6.332-.7881.7236-.2397,1.2306-.509,1.544-.7712.311-.2603.374-.4603.374-.5857v-3.135h-18.81Zm-.0005,3.1295c.0001,0,.0003.0009.0004.0026-.0004-.0017-.0004-.0026-.0004-.0026Z" clip-rule="evenodd" fill="#fff" fill-rule="evenodd"/><path d="M69.91,51.8099c0,1.5491-3.3512,2.805-8.91,2.805-5.5587,0-11.22-1.2559-11.22-2.805s3.3513-2.805,8.91-2.805c5.5588,0,11.22,1.2558,11.22,2.805Z"/><path d="M50.44,51.8072c.0026.0109.0168.0515.0829.1244.0975.1074.2706.2417.5436.39.5448.296,1.3628.582,2.3933.8299c2.0511.4934,4.8033.8032,7.5402.8032c2.7393,0,4.8901-.3105,6.332-.7881.7236-.2396,1.2306-.509,1.544-.7712.3089-.2586.3732-.4577.374-.5832-.0026-.0108-.0168-.0514-.0829-.1243-.0975-.1074-.2706-.2417-.5436-.3901-.5448-.296-1.3629-.5819-2.3933-.8298-2.0511-.4934-4.8033-.8033-7.5402-.8033-2.7393,0-4.8901.3106-6.332.7881-.7237.2397-1.2306.509-1.544.7713-.3089.2585-.3732.4576-.374.5831Zm18.8105.008c-.0001,0-.0003-.0009-.0004-.0026.0004.0018.0004.0026.0004.0026Zm-18.8106-.0084c-.0004-.0017-.0004-.0025-.0004-.0025s.0003.0008.0004.0025Zm1.5031-2.607c1.6233-.5377,3.9275-.8551,6.747-.8551c2.8218,0,5.6797.3181,7.8489.8399c1.0797.2597,2.0243.5782,2.7148.9534.3445.1872.6571.4052.891.663.2364.2605.4253.6007.4253,1.0087c0,.6492-.3559,1.1871-.8469,1.598-.4888.409-1.167.744-1.9761,1.012-1.6233.5376-3.9275.855-6.747.855-2.8218,0-5.6797-.318-7.8489-.8398-1.0797-.2598-2.0244-.5783-2.7148-.9534-.3445-.1872-.6571-.4052-.891-.663-.2364-.2606-.4253-.6007-.4253-1.0088c0-.6492.3559-1.1871.8469-1.598.4887-.4089,1.167-.744,1.9761-1.0119Z" clip-rule="evenodd" fill="#fff" fill-rule="evenodd"/><path d="M43.345,52.1396h-13.86v4.125c0,1.0936,3.9277,1.98,7.755,1.98s6.105-.8864,6.105-1.98v-4.125Z" clip-rule="evenodd" fill-rule="evenodd"/><path d="M28.825,52.1405c0-.3645.2954-.66.66-.66h13.86c.3645,0,.66.2955.66.66v4.125c0,.5253-.2786.9532-.6435,1.2694-.361.3129-.8519.5608-1.4202.7551-1.1412.3903-2.7466.6155-4.7013.6155-1.9573,0-3.9498-.226-5.4701-.599-.7552-.1853-1.4297-.4154-1.931-.6929-.2502-.1384-.488-.3053-.6704-.51-.1852-.2077-.3435-.4909-.3435-.8381v-4.125Zm1.32.66v3.4145c.0025.003.0055.0065.0089.0104.0473.0531.1462.1349.3241.2333.3548.1963.9014.3929,1.6065.5659c1.4004.3436,3.2853.5609,5.1555.5609c1.8725,0,3.3196-.2181,4.2742-.5445.4795-.1639.7971-.3427.9828-.5036.1818-.1575.188-.2505.188-.2719v-3.465h-12.54Zm-.0135,3.3961c0,0,.0002.0003.0004.0008-.0003-.0005-.0004-.0008-.0004-.0008Z" clip-rule="evenodd" fill="#fff" fill-rule="evenodd"/><path d="M43.345,52.1402c0,1.0935-2.2777,1.98-6.105,1.98s-7.755-.8865-7.755-1.98c0-1.0936,2.2777-1.98,6.105-1.98s7.755.8864,7.755,1.98Z"/><path d="M30.1523,52.0981c.0005.0006.0011.0012.0016.0018.0473.0531.1462.1349.3241.2333.3548.1964.9014.3929,1.6065.5659c1.4004.3436,3.2853.5609,5.1555.5609c1.8725,0,3.3196-.218,4.2742-.5444.4795-.164.7971-.3427.9828-.5037.124-.1074.1663-.1848.1806-.23-.0005-.0006-.0011-.0012-.0016-.0018-.0473-.0531-.1462-.1349-.3241-.2333-.3547-.1964-.9014-.3929-1.6065-.5659-1.4004-.3436-3.2853-.5609-5.1554-.5609-1.8726,0-3.3197.218-4.2743.5444-.4795.164-.7971.3427-.9828.5037-.124.1074-.1663.1848-.1806.23Zm12.5461.1108c0,0-.0001-.0003-.0004-.0008.0003.0005.0004.0008.0004.0008ZM30.1319,52.072c-.0003-.0006-.0004-.0009-.0004-.0009s.0002.0003.0004.0009Zm.7568-1.9566c1.1411-.3902,2.7465-.6154,4.7013-.6154c1.9572,0,3.9497.2259,5.47.5989.7552.1853,1.4297.4155,1.931.6929.2502.1385.488.3053.6704.51.1852.2078.3436.4909.3436.8382c0,.5254-.2786.9533-.6435,1.2695-.361.3128-.8519.5607-1.4202.7551-1.1412.3902-2.7466.6154-4.7013.6154-1.9573,0-3.9498-.2259-5.4701-.5989-.7552-.1853-1.4297-.4155-1.931-.6929-.2502-.1385-.488-.3053-.6704-.51-.1852-.2078-.3435-.4909-.3435-.8382c0-.5254.2785-.9533.6434-1.2695.361-.3128.8519-.5607,1.4203-.7551Z" clip-rule="evenodd" fill="#fff" fill-rule="evenodd"/><path d="M129.19,50.9114c.098-.2539.343-.4212.615-.4212h23.043c.163,0,.321.0609.443.1708l5.832,5.28c.202.1831.271.4719.173.7266-.098.2546-.343.4226-.616.4226h-23.1c-.165,0-.324-.0616-.445-.1729l-5.775-5.28c-.201-.1837-.269-.4721-.17-.7259Zm2.315.8988l4.331,3.96h21.132l-4.375-3.96h-21.088Z" clip-rule="evenodd" fill="#fff" fill-rule="evenodd"/><path d="M138.385,104.28c0,17.77-14.405,32.175-32.175,32.175-17.7697,0-32.175-14.405-32.175-32.175c0-17.7693,14.4053-32.1745,32.175-32.1745c17.77,0,32.175,14.4052,32.175,32.1745Z"/><path d="M106.21,72.7653c-17.4053,0-31.515,14.1098-31.515,31.5147c0,17.406,14.1097,31.515,31.515,31.515c17.405,0,31.515-14.109,31.515-31.515c0-17.4049-14.11-31.5147-31.515-31.5147ZM73.375,104.28c0-18.134,14.7007-32.8347,32.835-32.8347c18.134,0,32.835,14.7007,32.835,32.8347c0,18.135-14.701,32.835-32.835,32.835-18.1343,0-32.835-14.7-32.835-32.835Z" clip-rule="evenodd" fill="#fff" fill-rule="evenodd"/><path d="M136.195,88.7579c-.258.2578-.675.2578-.933,0l-6.6-6.6c-.258-.2577-.258-.6756,0-.9333s.675-.2578.933,0l6.6,6.6c.258.2577.258.6756,0,.9333Z" clip-rule="evenodd" fill="#fff" fill-rule="evenodd"/><path d="M90.1932,133.77c-.2578.257-.6757.257-.9334,0l-6.6-6.6c-.2578-.258-.2578-.676,0-.934.2577-.257.6756-.257.9334,0l6.6,6.6c.2577.258.2577.676,0,.934Z" clip-rule="evenodd" fill="#fff" fill-rule="evenodd"/><path d="M144.985,110.88c0,17.77-14.405,32.175-32.175,32.175-17.7698,0-32.175-14.405-32.175-32.175c0-17.7697,14.4052-32.1749,32.175-32.1749c17.77,0,32.175,14.4052,32.175,32.1749Z"/><path d="M112.81,79.3649c-17.4053,0-31.515,14.1098-31.515,31.5151c0,17.405,14.1097,31.515,31.515,31.515c17.405,0,31.515-14.11,31.515-31.515c0-17.4053-14.11-31.5151-31.515-31.5151ZM79.975,110.88c0-18.1343,14.7007-32.8351,32.835-32.8351c18.134,0,32.835,14.7008,32.835,32.8351c0,18.134-14.701,32.835-32.835,32.835-18.1343,0-32.835-14.701-32.835-32.835Z" clip-rule="evenodd" fill="#fff" fill-rule="evenodd"/><path d="M140.86,110.88c0,15.492-12.558,28.05-28.05,28.05-15.4916,0-28.05-12.558-28.05-28.05c0-15.4915,12.5584-28.0499,28.05-28.0499c15.492,0,28.05,12.5584,28.05,28.0499Z"/><path d="M112.81,83.4899c-15.1271,0-27.39,12.2629-27.39,27.3901c0,15.127,12.2629,27.39,27.39,27.39c15.127,0,27.39-12.263,27.39-27.39c0-15.1272-12.263-27.3901-27.39-27.3901ZM84.1,110.88c0-15.8562,12.8539-28.7101,28.71-28.7101c15.856,0,28.71,12.8539,28.71,28.7101c0,15.856-12.854,28.71-28.71,28.71-15.8561,0-28.71-12.854-28.71-28.71Z" clip-rule="evenodd" fill="#fff" fill-rule="evenodd"/><path d="M139.21,111.54c0,14.945-12.115,27.06-27.06,27.06s-27.06-12.115-27.06-27.06c0-14.9444,12.1151-27.0595,27.06-27.0595s27.06,12.1151,27.06,27.0595Z"/><path d="M112.15,85.1403c-14.5803,0-26.3999,11.8197-26.3999,26.3997c0,14.581,11.8196,26.4,26.3999,26.4c14.58,0,26.4-11.819,26.4-26.4c0-14.58-11.82-26.3997-26.4-26.3997ZM84.4301,111.54c0-15.309,12.4106-27.7197,27.7199-27.7197c15.309,0,27.72,12.4107,27.72,27.7197c0,15.31-12.411,27.72-27.72,27.72-15.3093,0-27.7199-12.41-27.7199-27.72Z" clip-rule="evenodd" fill="#fff" fill-rule="evenodd"/><path d="M108.821,89.1644l.06.3525-.07.0121c-.153.0249-.271.0254-.353.0017-.083-.0251-.147-.0802-.191-.1654-.044-.0867-.081-.219-.112-.3969l-.377-2.2012.402-.0689.375,2.186c.015.0889.03.1543.045.1962.016.0404.039.0679.069.0823.031.013.077.0144.136.0042l.016-.0026Zm-1.571.2154c-.116.1225-.253.2048-.413.2468-.178.047-.349.0447-.512-.007s-.305-.1462-.426-.2835c-.122-.1385-.211-.3103-.268-.5153-.052-.2063-.059-.3992-.021-.5785.039-.1809.117-.334.233-.4593.117-.1253.263-.2113.44-.2579.161-.0424.322-.0388.483.0107s.317.1478.468.2947l.192-.3008c-.172-.1866-.362-.3091-.571-.3674-.207-.0587-.429-.0568-.666.0056-.258.0681-.472.1879-.643.3595-.17.1701-.284.3774-.342.6221-.057.243-.051.5028.017.7792.077.2745.2.5034.369.6866.171.183.373.3072.605.3727.232.0639.478.0619.736-.0061.238-.0628.433-.1702.585-.3222.151-.1532.256-.3528.314-.5987l-.317-.1685c-.058.2021-.146.3645-.263.4873ZM92.1,104.101l-.1359.426-1.9554-1.861-.4428,1.387-.3445-.11.5728-1.794.3519.113L92.1,104.101Zm-.8238,1.453l.4161.098.0969-.415-.4161-.097-.0969.414Zm.1856,1.705c-.0298.202-.0873.368-.1726.496-.0864.127-.1887.234-.307.32l-.2616-.228c.1011-.076.1857-.168.2538-.277.0669-.11.1083-.219.1241-.326.0294-.2.0024-.362-.0809-.486-.0832-.126-.2154-.202-.3965-.229-.1096-.016-.2081-.006-.2954.029-.0886.035-.1613.091-.2181.167-.0581.077-.0967.167-.1159.271l-.0081.042c-.0129.088-.0082.179.0142.275.0213.095.0656.188.1329.28l-.0505.104c-.034.072-.0553.119-.0637.141l-1.4702-.382.2236-1.469.3454.057-.1666,1.107.7591.194c-.0205-.074-.0327-.15-.0365-.23-.0052-.08-.002-.16.0094-.237.0163-.111.045-.209.0859-.293.0477-.111.1157-.206.2041-.284s.1936-.134.3157-.167c.1223-.034.2567-.04.4034-.019.1951.029.3557.094.4816.194.1261.099.2138.23.2631.391s.0584.347.0273.559Zm-.9409,2.823c.1285.164.2274.288.2968.37l.3556.012.0678-1.963-.3633-.013-.0386,1.342-.0335-.04c-.2151-.268-.3979-.485-.5482-.652-.1503-.166-.3098-.31-.4785-.43-.1686-.121-.3322-.184-.4906-.191-.1842-.007-.3433.024-.4772.092-.1351.066-.2406.168-.3163.306-.0756.137-.1169.305-.1238.505l-.0003.065c.0024.19.0545.363.1562.518s.2501.301.4453.44l.2707-.276c-.1559-.118-.2758-.231-.3598-.337-.0853-.107-.1311-.221-.1372-.341-.0008-.015-.0008-.035.0002-.062.0055-.161.0562-.284.152-.368.0945-.086.2198-.126.3756-.121.1108.004.2353.061.3733.172.1368.109.2704.239.4005.391.1302.151.288.345.4733.581Zm43.2461.785l2.091.957-.015.491-2.752-1.305.012-.373l2.825-1.112-.015.489-2.145.822-.001.031Zm-1.037,3.417l.062-.403.304.047.003-.017c-.1-.067-.171-.164-.215-.294-.044-.129-.053-.278-.027-.446.021-.138.067-.255.137-.353.069-.096.157-.166.263-.209s.222-.054.348-.035c.183.029.324.124.421.287.099.162.148.372.147.629-.001.099-.004.19-.009.274-.005.086-.014.187-.026.306.146-.004.258-.043.338-.118s.133-.192.158-.352c.013-.085.015-.184.007-.298-.009-.113-.025-.223-.049-.328l.352-.014c.026.111.042.233.047.367.007.134.003.249-.012.344-.035.222-.098.396-.191.523-.091.126-.213.211-.366.252-.151.042-.336.047-.555.014l-1.137-.176Zm.416-.98c-.025.156-.007.295.053.415.059.121.148.21.266.266l.365.056c.014-.116.024-.217.029-.302.007-.085.009-.178.007-.277-.002-.29-.107-.451-.316-.483-.066-.011-.129-.004-.187.02-.057.023-.105.062-.143.114-.038.053-.063.117-.074.191Zm1.288,2.559c-.037-.123-.101-.228-.191-.315l.002-.01.314.077.097-.396-2.028-.499-.097.397l1.121.275c.103.027.194.067.271.119.079.054.135.137.17.249.035.113.03.261-.015.444l.354.087c.039-.162.039-.304.002-.428Zm.036,1.537l.129-.413.413.128-.128.414-.414-.129Zm-2.369-.749l.121-.389l1.994.62-.121.39-1.994-.621Zm-.186.859c-.145.114-.256.265-.331.453s-.099.372-.071.554c.027.183.1.346.219.489.119.145.277.257.472.335.194.077.383.105.569.081.186-.021.351-.089.496-.203.145-.113.255-.263.33-.451s.099-.374.072-.557c-.025-.182-.098-.346-.218-.491-.119-.143-.275-.253-.469-.331-.194-.077-.384-.106-.57-.084-.187.022-.353.091-.499.205Zm-.037.926c-.021-.113-.009-.226.037-.341s.116-.207.209-.275c.095-.067.205-.106.328-.117.123-.009.25.013.38.065.131.052.237.124.319.214.082.093.134.196.156.309.021.113.008.228-.038.343s-.115.206-.209.274-.203.107-.326.116c-.122.011-.248-.01-.379-.062-.13-.052-.237-.125-.319-.217-.083-.092-.135-.195-.158-.309Zm.049,1.257l.322.168-.625,1.2-.323-.168.626-1.2Zm-1.868,1.537c-.162.124-.297.268-.405.433-.116.177-.188.345-.217.505-.028.16-.013.305.044.433.057.13.154.239.29.328.171.112.354.148.55.106.195-.04.415-.16.66-.36.172-.144.322-.242.453-.293.132-.051.241-.048.327.008.093.061.143.146.149.254.007.11-.033.23-.119.362l-.032.046c-.141.189-.331.349-.568.479l.268.258c.251-.139.461-.325.63-.558.012-.015.028-.038.048-.068.1-.155.161-.302.182-.442.021-.141.004-.269-.052-.386-.057-.116-.149-.215-.275-.297-.169-.111-.353-.143-.552-.096-.198.048-.41.167-.638.357-.192.153-.352.252-.478.297-.126.047-.233.041-.321-.016-.11-.073-.168-.173-.174-.299-.004-.124.044-.265.147-.421.074-.114.183-.223.326-.33.144-.106.294-.189.45-.249l-.191-.319c-.171.056-.338.146-.502.268Zm-1.754,2.273c.129-.157.28-.267.453-.331.173-.065.352-.079.537-.044.184.036.356.12.518.253.161.133.276.286.346.458.07.175.09.353.059.534-.03.183-.109.352-.238.508-.128.157-.279.267-.451.33-.173.065-.351.08-.535.044-.183-.035-.356-.118-.517-.251-.162-.134-.278-.288-.348-.462-.07-.173-.09-.35-.06-.533.029-.181.108-.35.236-.506Zm.275.226c-.079.095-.125.2-.139.314-.013.116.006.23.057.342.05.113.13.215.238.304.109.089.223.147.343.174.12.029.235.025.345-.011.11-.037.204-.103.283-.198.078-.096.125-.201.139-.316.014-.114-.004-.227-.055-.341-.05-.111-.129-.212-.238-.301-.108-.089-.222-.148-.342-.177-.121-.027-.237-.024-.348.012-.11.036-.204.102-.283.198Zm-.946,3.332c.196.011.385-.073.567-.25.095-.093.158-.2.19-.323.03-.122.022-.244-.025-.365l.013-.013.235.241.293-.286-1.458-1.495-.294.286.861.882c.067.078.114.162.14.252.027.091.032.178.015.261-.019.085-.06.158-.123.22-.118.115-.24.167-.367.156-.129-.01-.26-.083-.393-.22l-.84-.861-.293.287.899.921c.19.195.383.297.58.307Zm-1.356,1.417c-.2.156-.397.219-.59.187-.195-.032-.376-.154-.544-.368l-.793-1.015.323-.252.741.947c.117.15.24.237.366.261.126.025.253-.014.382-.115.07-.054.119-.123.146-.205.027-.081.031-.168.014-.261-.016-.092-.053-.181-.112-.266l-.759-.97.323-.253l1.287,1.645-.323.253-.207-.265-.014.01c.033.127.028.249-.016.366-.045.119-.119.219-.224.301Zm-3.457-.212l-.347.216.609.976c.118.187.243.325.373.412.131.088.275.126.43.112.157-.012.33-.077.52-.196.082-.051.172-.123.269-.216.098-.091.181-.183.248-.275l-.241-.258c-.064.087-.136.171-.217.252-.08.08-.157.143-.23.189-.137.085-.26.122-.369.109-.109-.011-.212-.07-.31-.178.097-.068.18-.128.248-.18.067-.051.138-.108.214-.172.195-.167.322-.341.381-.522.059-.18.04-.349-.058-.506-.068-.108-.152-.189-.253-.241-.102-.052-.212-.073-.331-.063-.119.011-.238.053-.356.127-.144.09-.251.193-.321.311-.069.118-.097.236-.082.354l-.015.01-.162-.261Zm.388.202c.052-.124.145-.227.28-.311.063-.04.127-.062.192-.068.065-.005.125.006.181.034.056.029.101.071.137.128.112.18.058.365-.16.556-.074.066-.146.124-.215.174-.068.052-.15.11-.248.176l-.195-.314c-.035-.126-.025-.251.028-.375Zm-.724,1.992c-.008.125-.046.242-.115.351s-.178.201-.326.277l-.165-.326c.168-.085.284-.177.347-.277s.089-.197.078-.291c-.01-.093-.039-.187-.087-.284l-.521-1.029.364-.185.943,1.863-.364.185-.146-.288-.008.004Zm-21.156-2.291l-1.4148,2.405.5848.344.184-.313-.221-.13l1.23-2.092-.363-.214Zm-.699-.442l-.238.355-.353-.237.238-.355.353.237Zm-1.0818-.716c-.0741-.137-.1796-.259-.3163-.367-.1438-.113-.2939-.19-.4503-.232-.1581-.04-.3086-.04-.4514.002-.1436.043-.2653.127-.3649.254-.1005.128-.1588.27-.1748.428-.0179.159.019.315.1108.469-.1307-.034-.2575-.031-.3804.008-.1247.04-.2302.113-.3166.221-.0924.118-.1444.244-.1558.379-.0125.135.0128.266.0759.395.063.128.1578.242.2844.342.1286.101.2654.167.4104.197.1442.032.2829.025.416-.022.1331-.046.2475-.13.3432-.251.0494-.063.0854-.135.1079-.215.0215-.082.0282-.164.0201-.248-.0091-.084-.0331-.162-.0719-.234.1869.028.3517.016.4944-.034.1409-.05.2624-.139.3645-.269.0965-.123.1481-.256.1548-.4s-.0266-.285-.1-.423Zm-1.4384.918c.0112.008.0227.02.0344.034.0893.11.1435.222.1627.337.0185.116-.003.214-.0644.292-.0494.062-.1085.106-.1771.131-.0705.025-.1434.03-.2186.015-.0762-.016-.1487-.051-.2176-.105-.0669-.053-.1154-.113-.1455-.181-.0319-.068-.0434-.138-.0345-.209.0089-.072.038-.139.0875-.202.051-.065.1227-.11.2151-.136s.1894-.028.2911-.007c.0274.007.0497.017.0669.031Zm.6418-1.144c.09.023.1775.068.2626.135.079.063.138.134.1769.213.038.081.0529.163.0445.247s-.0409.161-.0976.233c-.039.05-.0917.093-.1581.129-.0663.037-.1396.061-.2199.073-.081.014-.161.012-.2401-.004-.0159-.003-.035-.013-.0573-.03-.0142-.012-.0234-.02-.0277-.025-.0917-.1-.1563-.202-.1935-.307-.0381-.104-.0502-.202-.0365-.295.012-.092.0451-.172.0993-.241.0502-.064.1153-.107.1953-.13.0781-.022.1622-.021.2521.002Zm-1.2646-.266l-.2518.262-.9763-.938.2517-.262.9764.938Zm-1.4295-1.847c.2056.035.3618.06.4686.074l.2712-.23-1.2715-1.498-.2771.235.8744,1.018-.0516-.007c-.3395-.053-.6208-.091-.844-.113-.2232-.021-.4378-.02-.6437.004s-.3697.087-.4914.189c-.1406.119-.2376.249-.2911.389-.0553.14-.0645.287-.0276.44.036.152.1187.304.248.456l.0441.049c.1295.139.2842.231.4643.278.1791.046.3874.054.6248.025l.0151-.386c-.1953.017-.3597.015-.4933-.007-.1354-.022-.2458-.075-.3312-.16-.0102-.01-.024-.025-.0416-.046-.1043-.123-.1494-.248-.1354-.375.0122-.127.0778-.241.1967-.342.0845-.071.215-.113.3915-.124.1747-.011.3612-.005.5595.02.1983.024.4454.061.7413.111Zm-.8608-2.13l-.3478.248-.2472-.346.3478-.248.2472.346Zm-.7642-1.052c-.0209-.155-.0763-.307-.1662-.456-.0945-.156-.2077-.281-.3394-.375-.1335-.094-.2745-.147-.4228-.158-.1495-.011-.2932.025-.4312.108-.1391.084-.2441.197-.3149.339-.0727.142-.0933.301-.062.478-.1102-.078-.2298-.12-.3587-.127-.1307-.007-.2554.025-.3742.095-.128.077-.2213.177-.2798.3-.0592.121-.082.253-.0684.395.0135.143.0619.283.1452.421.0845.14.1892.25.3141.33.1237.08.256.122.3969.126.1408.004.2775-.034.4099-.114.0685-.041.1275-.096.1771-.163.0489-.069.0843-.143.1062-.224.0213-.083.0264-.164.0154-.245.1651.092.3233.14.4745.143.1495.003.2948-.038.4361-.123.1336-.08.229-.187.2861-.319s.0759-.276.0561-.431Zm-1.6699.35c.0074.012.014.027.02.044.0448.134.0558.259.0331.373-.0239.115-.0783.199-.1633.25-.0684.041-.1391.061-.2121.06-.0747-.002-.1446-.023-.2097-.063-.0658-.042-.1213-.1-.1665-.175-.044-.073-.068-.147-.0722-.221-.0059-.075.008-.144.0417-.208s.0847-.117.1532-.158c.0706-.042.1537-.059.2492-.051.0955.009.1871.041.2748.096.0232.017.0405.034.0518.053Zm1.0046-.843c.0759.053.1419.126.1978.219.0519.086.0819.174.0901.262.0071.089-.0081.171-.0455.246-.0374.076-.0953.137-.1737.184-.0541.033-.1186.054-.1935.065s-.1521.007-.2315-.009c-.0805-.017-.1549-.046-.223-.089-.014-.009-.0283-.025-.0429-.049-.0094-.016-.0151-.026-.0174-.033-.0504-.126-.0746-.244-.0724-.356.0011-.11.0244-.206.07-.288.0438-.082.1032-.146.1783-.191.0695-.042.1457-.059.2284-.052.0809.007.1593.037.2353.091Zm.2246-1.503l.1869.391-3.6635.147-.187-.391l3.6636-.147Zm-4.2903-1.643c-.0177.159.0049.325.0679.498.0629.173.1563.315.28.425.1224.11.2617.18.4179.21s.3142.015.4741-.043c.1563-.057.2814-.143.3754-.258.0935-.116.1497-.252.1688-.407.0186-.156-.0031-.32-.0652-.49-.0181-.05-.0456-.103-.0826-.16l1.2481.123-.154-.424-1.7461-.196.0038.005c-.135-.017-.2627-.01-.383.022-.0372.011-.0637.019-.0794.024-.1502.055-.2707.141-.3613.257-.0919.117-.1467.255-.1644.414Zm1.3217.54c-.0553.067-.1265.116-.2138.148-.092.033-.1827.042-.272.027-.0906-.016-.1705-.052-.2397-.111-.0698-.06-.1213-.135-.1548-.227-.0361-.1-.0471-.196-.0329-.289s.0514-.174.1115-.242c.059-.068.1356-.116.2298-.143l.0783-.023-.0018.001c.0861-.012.1671-.004.2429.023.0753.026.1407.068.196.126s.0975.127.1261.205c.0339.094.0449.184.033.272-.0131.089-.0473.166-.1026.233Zm.9602-2.454l-.4123.112-.1116-.41.4124-.112.1115.41Zm-1.1225-2.03l.6376-.115-.0763-.414-.6357.114-.0789-.44-.3521.063.0789.44-1.7567.315.0716.4c.0135.009.0946.049.2434.119.2034.097.4308.208.6822.332.4086.204.7627.389,1.0623.556l.3486-.116-.2249-1.254Zm-1.4846.266l1.1325-.203.1508.841c-.1576-.083-.386-.199-.6852-.348-.1953-.096-.3947-.193-.5981-.29Zm.9654-1.697l-.3626.026-.0942-1.351.3626-.025.0942,1.35ZM110.599,89.3181l.407-.0378-.107-1.1456c-.022-.2206-.072-.3992-.149-.5357-.077-.1378-.189-.2355-.334-.2932-.145-.059-.33-.0781-.553-.0573-.096.009-.209.033-.337.0721-.129.0379-.243.0829-.345.135l.1.3384c.096-.0491.198-.0916.306-.1276.108-.0359.205-.0579.291-.0659.161-.0149.287.0076.379.0677.093.0587.158.1581.197.2982-.117.0174-.218.0339-.302.0495-.083.0154-.172.0348-.269.058-.249.062-.44.1607-.574.2962-.134.1341-.192.2936-.175.4784.012.1271.051.2367.118.3289.068.092.157.1601.268.2042.111.044.236.0596.375.0467.169-.0158.311-.0607.426-.1349s.192-.1674.232-.2798l.018-.0017.028.3062Zm-.256-.3549c-.102.0872-.232.1381-.39.1528-.074.0069-.142-.0017-.202-.0258-.061-.0242-.109-.0611-.146-.1107-.037-.0509-.059-.1097-.065-.1765-.02-.2105.111-.3521.391-.4248.096-.0258.186-.0458.27-.0601.084-.0156.185-.0307.301-.0455l.034.3678c-.025.1279-.09.2356-.193.3228Zm1.861.342c-.152-.0005-.306-.0269-.46-.079-.153-.0521-.292-.1242-.417-.2162l.131-.3089c.123.0778.25.1383.38.1813.131.0417.252.0628.363.0632.115.0004.206-.0192.273-.059.069-.0397.103-.1014.103-.1852.001-.0567-.017-.1051-.051-.1452s-.087-.0757-.16-.1069c-.074-.0325-.172-.0645-.296-.0959-.219-.0562-.378-.1374-.479-.2434-.098-.1061-.144-.2423-.137-.4085.004-.1083.036-.2049.096-.2897.06-.0862.143-.1535.248-.2021.104-.0486.224-.0727.358-.0722.13.0005.256.0177.379.0517.122.0326.236.0775.343.1347l-.065.3323c-.11-.0546-.214-.0949-.311-.121-.095-.0275-.192-.0414-.291-.0417-.104-.0004-.188.0212-.254.0648-.065.0423-.097.0976-.097.1659c0,.0542.015.1.046.1375.03.0362.079.0692.144.0991.067.0286.159.0586.276.09.227.0614.393.14.498.2358.107.0945.16.2204.16.3776-.001.1315-.032.2455-.093.3419s-.15.1709-.267.2233c-.116.0512-.256.0764-.42.0758Zm1.432-.0316c.149.0656.3.1054.451.1194.163.0151.305.0023.425-.0384.122-.0418.217-.108.286-.1987.07-.0907.11-.2015.122-.3324.015-.1566-.027-.2867-.125-.3903-.096-.1047-.255-.1977-.475-.2789-.114-.0416-.203-.0796-.267-.114-.063-.0356-.108-.0728-.135-.1116-.028-.0401-.039-.087-.034-.141.006-.068.044-.1202.112-.1566.069-.0376.155-.0517.258-.0422.099.0092.194.0316.287.0674.094.0345.194.0839.299.148l.094-.3253c-.101-.0663-.211-.1212-.33-.1645-.119-.0447-.243-.073-.373-.085-.134-.0123-.255.0011-.363.0402-.109.0392-.197.099-.265.1794-.067.0792-.107.1726-.121.2801-.022.1649.012.3046.101.419.09.1145.242.2095.455.2849.12.0422.216.0827.286.1216.07.0376.12.0778.15.1207.031.043.044.0927.039.1492-.008.0834-.048.1419-.12.1754-.07.0336-.162.0451-.277.0345-.11-.0102-.229-.0419-.356-.0951-.126-.0543-.247-.1257-.363-.2141l-.157.2961c.116.1027.248.1867.396.2522Zm2.372-2.1787l-.428-.0679.068-.4278.428.0679-.068.4278Zm-.401,2.4521l-.403-.0639.327-2.0625.403.0639-.327,2.0625Zm1.881-.0021c-.104.0255-.212.0249-.325-.0019-.126-.0299-.23-.0851-.313-.1658-.081-.0816-.136-.1822-.166-.302-.029-.1206-.028-.2529.003-.3968.037-.1408.096-.2581.175-.3518.081-.0948.176-.1596.285-.1947.11-.0359.228-.039.354-.0092.113.0269.209.0736.288.1402.081.0657.145.1558.192.2703l.283-.1256c-.054-.1692-.139-.3066-.254-.4122s-.258-.1785-.427-.2188c-.199-.0474-.388-.0453-.566.0065-.178.0517-.331.1471-.46.2862-.127.1381-.216.3089-.269.5124v.0019l-.001.0037c-.045.2053-.042.3988.009.5805.052.1808.146.3343.282.4607.136.1263.303.2132.502.2606.171.0406.333.0381.487-.0075s.29-.133.409-.2626l-.196-.2393c-.089.0836-.186.1386-.292.1652Z" clip-rule="evenodd" fill="#fff" fill-rule="evenodd"/><path d="M112.15,93.0602c-9.477,0-17.16,7.6828-17.16,17.1598s7.683,17.16,17.16,17.16s17.16-7.683,17.16-17.16-7.683-17.1598-17.16-17.1598ZM93.67,110.22c0-10.206,8.274-18.4798,18.48-18.4798s18.48,8.2738,18.48,18.4798-8.274,18.48-18.48,18.48-18.48-8.274-18.48-18.48Z" clip-rule="evenodd" fill="#fff" fill-rule="evenodd"/><g id="eV7tRcWMulX40" transform="matrix(0 0 0 0 162 47.999652)"><path d="M162,12l5.262,23.2959l20.194-12.7517-12.752,20.1936L198,48l-23.296,5.2622l12.752,20.1936-20.194-12.7517L162,84l-5.262-23.2959-20.194,12.7517l12.752-20.1936L126,48l23.296-5.2622-12.752-20.1936l20.194,12.7517L162,12Z" fill="#ffb82e"/><path d="M162,16.5382l-4.599,20.359L139.753,25.753l11.145,17.6478-20.359,4.5988l20.359,4.5988-11.145,17.6478l17.648-11.1441L162,79.4611l4.599-20.359l17.648,11.1441-11.145-17.6478l20.359-4.5988-20.359-4.5988L184.247,25.753L166.599,36.8972L162,16.5382Zm-5.926,17.1557l4.951-21.9146h1.95l4.951,21.9146l18.996-11.9956l1.379,1.3794L176.306,42.074l21.914,4.9502v1.9509l-21.914,4.9501l11.995,18.9963-1.379,1.3795-18.996-11.9957L162.975,84.22h-1.95l-4.951-21.9147L137.078,74.301l-1.379-1.3795l11.995-18.9963-21.914-4.9501v-1.9509l21.914-4.9502-11.995-18.9963l1.379-1.3794l18.996,11.9956Z" clip-rule="evenodd" fill-rule="evenodd"/></g></g><clipPath id="eV7tRcWMulX43"><rect width="198" height="198" rx="0" ry="0" fill="#fff"/></clipPath></g>
<script><![CDATA[
!function(t,n){"object"==typeof exports&&"undefined"!=typeof module?module.exports=n():"function"==typeof __SVGATOR_DEFINE__&&__SVGATOR_DEFINE__.amd?__SVGATOR_DEFINE__(n):((t="undefined"!=typeof globalThis?globalThis:t||self).__SVGATOR_PLAYER__=t.__SVGATOR_PLAYER__||{},t.__SVGATOR_PLAYER__["5c7f360c"]=n())}(this,(function(){"use strict";function t(t,n){var e=Object.keys(t);if(Object.getOwnPropertySymbols){var r=Object.getOwnPropertySymbols(t);n&&(r=r.filter((function(n){return Object.getOwnPropertyDescriptor(t,n).enumerable}))),e.push.apply(e,r)}return e}function n(n){for(var e=1;e<arguments.length;e++){var r=null!=arguments[e]?arguments[e]:{};e%2?t(Object(r),!0).forEach((function(t){o(n,t,r[t])})):Object.getOwnPropertyDescriptors?Object.defineProperties(n,Object.getOwnPropertyDescriptors(r)):t(Object(r)).forEach((function(t){Object.defineProperty(n,t,Object.getOwnPropertyDescriptor(r,t))}))}return n}function e(t){return(e="function"==typeof Symbol&&"symbol"==typeof Symbol.iterator?function(t){return typeof t}:function(t){return t&&"function"==typeof Symbol&&t.constructor===Symbol&&t!==Symbol.prototype?"symbol":typeof t})(t)}function r(t,n){if(!(t instanceof n))throw new TypeError("Cannot call a class as a function")}function i(t,n){for(var e=0;e<n.length;e++){var r=n[e];r.enumerable=r.enumerable||!1,r.configurable=!0,"value"in r&&(r.writable=!0),Object.defineProperty(t,r.key,r)}}function u(t,n,e){return n&&i(t.prototype,n),e&&i(t,e),t}function o(t,n,e){return n in t?Object.defineProperty(t,n,{value:e,enumerable:!0,configurable:!0,writable:!0}):t[n]=e,t}function a(t){return(a=Object.setPrototypeOf?Object.getPrototypeOf:function(t){return t.__proto__||Object.getPrototypeOf(t)})(t)}function l(t,n){return(l=Object.setPrototypeOf||function(t,n){return t.__proto__=n,t})(t,n)}function s(){if("undefined"==typeof Reflect||!Reflect.construct)return!1;if(Reflect.construct.sham)return!1;if("function"==typeof Proxy)return!0;try{return Boolean.prototype.valueOf.call(Reflect.construct(Boolean,[],(function(){}))),!0}catch(t){return!1}}function f(t,n,e){return(f=s()?Reflect.construct:function(t,n,e){var r=[null];r.push.apply(r,n);var i=new(Function.bind.apply(t,r));return e&&l(i,e.prototype),i}).apply(null,arguments)}function c(t,n){if(n&&("object"==typeof n||"function"==typeof n))return n;if(void 0!==n)throw new TypeError("Derived constructors may only return object or undefined");return function(t){if(void 0===t)throw new ReferenceError("this hasn't been initialised - super() hasn't been called");return t}(t)}function h(t,n,e){return(h="undefined"!=typeof Reflect&&Reflect.get?Reflect.get:function(t,n,e){var r=function(t,n){for(;!Object.prototype.hasOwnProperty.call(t,n)&&null!==(t=a(t)););return t}(t,n);if(r){var i=Object.getOwnPropertyDescriptor(r,n);return i.get?i.get.call(e):i.value}})(t,n,e||t)}function v(t){return function(t){if(Array.isArray(t))return y(t)}(t)||function(t){if("undefined"!=typeof Symbol&&null!=t[Symbol.iterator]||null!=t["@@iterator"])return Array.from(t)}(t)||function(t,n){if(!t)return;if("string"==typeof t)return y(t,n);var e=Object.prototype.toString.call(t).slice(8,-1);"Object"===e&&t.constructor&&(e=t.constructor.name);if("Map"===e||"Set"===e)return Array.from(t);if("Arguments"===e||/^(?:Ui|I)nt(?:8|16|32)(?:Clamped)?Array$/.test(e))return y(t,n)}(t)||function(){throw new TypeError("Invalid attempt to spread non-iterable instance.\nIn order to be iterable, non-array objects must have a [Symbol.iterator]() method.")}()}function y(t,n){(null==n||n>t.length)&&(n=t.length);for(var e=0,r=new Array(n);e<n;e++)r[e]=t[e];return r}Number.isInteger||(Number.isInteger=function(t){return"number"==typeof t&&isFinite(t)&&Math.floor(t)===t}),Number.EPSILON||(Number.EPSILON=2220446049250313e-31);var g=p(Math.pow(10,-6));function p(t){var n=arguments.length>1&&void 0!==arguments[1]?arguments[1]:6;if(Number.isInteger(t))return t;var e=Math.pow(10,n);return Math.round((+t+Number.EPSILON)*e)/e}function d(t,n){var e=arguments.length>2&&void 0!==arguments[2]?arguments[2]:g;return Math.abs(t-n)<e}var m=Math.PI/180;function b(t){return t}function w(t,n,e){var r=1-e;return 3*e*r*(t*r+n*e)+e*e*e}function A(){var t=arguments.length>0&&void 0!==arguments[0]?arguments[0]:0,n=arguments.length>1&&void 0!==arguments[1]?arguments[1]:0,e=arguments.length>2&&void 0!==arguments[2]?arguments[2]:1,r=arguments.length>3&&void 0!==arguments[3]?arguments[3]:1;return t<0||t>1||e<0||e>1?null:d(t,n)&&d(e,r)?b:function(i){if(i<=0)return t>0?i*n/t:0===n&&e>0?i*r/e:0;if(i>=1)return e<1?1+(i-1)*(r-1)/(e-1):1===e&&t<1?1+(i-1)*(n-1)/(t-1):1;for(var u,o=0,a=1;o<a;){var l=w(t,e,u=(o+a)/2);if(d(i,l))break;l<i?o=u:a=u}return w(n,r,u)}}function _(){return 1}function x(t){return 1===t?1:0}function k(){var t=arguments.length>0&&void 0!==arguments[0]?arguments[0]:1,n=arguments.length>1&&void 0!==arguments[1]?arguments[1]:0;if(1===t){if(0===n)return x;if(1===n)return _}var e=1/t;return function(t){return t>=1?1:(t+=n*e)-t%e}}var S=Math.sin,O=Math.cos,j=Math.acos,E=Math.asin,M=Math.tan,P=Math.atan2,I=Math.PI/180,R=180/Math.PI,F=Math.sqrt,N=function(){function t(){var n=arguments.length>0&&void 0!==arguments[0]?arguments[0]:1,e=arguments.length>1&&void 0!==arguments[1]?arguments[1]:0,i=arguments.length>2&&void 0!==arguments[2]?arguments[2]:0,u=arguments.length>3&&void 0!==arguments[3]?arguments[3]:1,o=arguments.length>4&&void 0!==arguments[4]?arguments[4]:0,a=arguments.length>5&&void 0!==arguments[5]?arguments[5]:0;r(this,t),this.m=[n,e,i,u,o,a],this.i=null,this.w=null,this.s=null}return u(t,[{key:"determinant",get:function(){var t=this.m;return t[0]*t[3]-t[1]*t[2]}},{key:"isIdentity",get:function(){if(null===this.i){var t=this.m;this.i=1===t[0]&&0===t[1]&&0===t[2]&&1===t[3]&&0===t[4]&&0===t[5]}return this.i}},{key:"point",value:function(t,n){var e=this.m;return{x:e[0]*t+e[2]*n+e[4],y:e[1]*t+e[3]*n+e[5]}}},{key:"translateSelf",value:function(){var t=arguments.length>0&&void 0!==arguments[0]?arguments[0]:0,n=arguments.length>1&&void 0!==arguments[1]?arguments[1]:0;if(!t&&!n)return this;var e=this.m;return e[4]+=e[0]*t+e[2]*n,e[5]+=e[1]*t+e[3]*n,this.w=this.s=this.i=null,this}},{key:"rotateSelf",value:function(){var t=arguments.length>0&&void 0!==arguments[0]?arguments[0]:0;if(t%=360){var n=S(t*=I),e=O(t),r=this.m,i=r[0],u=r[1];r[0]=i*e+r[2]*n,r[1]=u*e+r[3]*n,r[2]=r[2]*e-i*n,r[3]=r[3]*e-u*n,this.w=this.s=this.i=null}return this}},{key:"scaleSelf",value:function(){var t=arguments.length>0&&void 0!==arguments[0]?arguments[0]:1,n=arguments.length>1&&void 0!==arguments[1]?arguments[1]:1;if(1!==t||1!==n){var e=this.m;e[0]*=t,e[1]*=t,e[2]*=n,e[3]*=n,this.w=this.s=this.i=null}return this}},{key:"skewSelf",value:function(t,n){if(n%=360,(t%=360)||n){var e=this.m,r=e[0],i=e[1],u=e[2],o=e[3];t&&(t=M(t*I),e[2]+=r*t,e[3]+=i*t),n&&(n=M(n*I),e[0]+=u*n,e[1]+=o*n),this.w=this.s=this.i=null}return this}},{key:"resetSelf",value:function(){var t=arguments.length>0&&void 0!==arguments[0]?arguments[0]:1,n=arguments.length>1&&void 0!==arguments[1]?arguments[1]:0,e=arguments.length>2&&void 0!==arguments[2]?arguments[2]:0,r=arguments.length>3&&void 0!==arguments[3]?arguments[3]:1,i=arguments.length>4&&void 0!==arguments[4]?arguments[4]:0,u=arguments.length>5&&void 0!==arguments[5]?arguments[5]:0,o=this.m;return o[0]=t,o[1]=n,o[2]=e,o[3]=r,o[4]=i,o[5]=u,this.w=this.s=this.i=null,this}},{key:"recomposeSelf",value:function(){var t=arguments.length>0&&void 0!==arguments[0]?arguments[0]:null,n=arguments.length>1&&void 0!==arguments[1]?arguments[1]:null,e=arguments.length>2&&void 0!==arguments[2]?arguments[2]:null,r=arguments.length>3&&void 0!==arguments[3]?arguments[3]:null,i=arguments.length>4&&void 0!==arguments[4]?arguments[4]:null;return this.isIdentity||this.resetSelf(),t&&(t.x||t.y)&&this.translateSelf(t.x,t.y),n&&this.rotateSelf(n),e&&(e.x&&this.skewSelf(e.x,0),e.y&&this.skewSelf(0,e.y)),!r||1===r.x&&1===r.y||this.scaleSelf(r.x,r.y),i&&(i.x||i.y)&&this.translateSelf(i.x,i.y),this}},{key:"decompose",value:function(){var t=arguments.length>0&&void 0!==arguments[0]?arguments[0]:0,n=arguments.length>1&&void 0!==arguments[1]?arguments[1]:0,e=this.m,r=e[0]*e[0]+e[1]*e[1],i=[[e[0],e[1]],[e[2],e[3]]],u=F(r);if(0===u)return{origin:{x:p(e[4]),y:p(e[5])},translate:{x:p(t),y:p(n)},scale:{x:0,y:0},skew:{x:0,y:0},rotate:0};i[0][0]/=u,i[0][1]/=u;var o=e[0]*e[3]-e[1]*e[2]<0;o&&(u=-u);var a=i[0][0]*i[1][0]+i[0][1]*i[1][1];i[1][0]-=i[0][0]*a,i[1][1]-=i[0][1]*a;var l=F(i[1][0]*i[1][0]+i[1][1]*i[1][1]);if(0===l)return{origin:{x:p(e[4]),y:p(e[5])},translate:{x:p(t),y:p(n)},scale:{x:p(u),y:0},skew:{x:0,y:0},rotate:0};i[1][0]/=l,i[1][1]/=l,a/=l;var s=0;return i[1][1]<0?(s=j(i[1][1])*R,i[0][1]<0&&(s=360-s)):s=E(i[0][1])*R,o&&(s=-s),a=P(a,F(i[0][0]*i[0][0]+i[0][1]*i[0][1]))*R,o&&(a=-a),{origin:{x:p(e[4]),y:p(e[5])},translate:{x:p(t),y:p(n)},scale:{x:p(u),y:p(l)},skew:{x:p(a),y:0},rotate:p(s)}}},{key:"clone",value:function(){var t=this.m;return new this.constructor(t[0],t[1],t[2],t[3],t[4],t[5])}},{key:"toString",value:function(){var t=arguments.length>0&&void 0!==arguments[0]?arguments[0]:" ";if(null===this.s){var n=this.m.map((function(t){return p(t)}));1===n[0]&&0===n[1]&&0===n[2]&&1===n[3]?this.s="translate("+n[4]+t+n[5]+")":this.s="matrix("+n.join(t)+")"}return this.s}}],[{key:"create",value:function(t){return t?Array.isArray(t)?f(this,v(t)):t instanceof this?t.clone():(new this).recomposeSelf(t.origin,t.rotate,t.skew,t.scale,t.translate):new this}}]),t}();function T(t,n,e){return t>=.5?e:n}function q(t,n,e){return 0===t||n===e?n:t*(e-n)+n}function B(t,n,e){var r=q(t,n,e);return r<=0?0:r}function D(t,n,e){var r=q(t,n,e);return r<=0?0:r>=1?1:r}function L(t,n,e){return 0===t?n:1===t?e:{x:q(t,n.x,e.x),y:q(t,n.y,e.y)}}function C(t,n,e){var r=function(t,n,e){return Math.round(q(t,n,e))}(t,n,e);return r<=0?0:r>=255?255:r}function V(t,n,e){return 0===t?n:1===t?e:{r:C(t,n.r,e.r),g:C(t,n.g,e.g),b:C(t,n.b,e.b),a:q(t,null==n.a?1:n.a,null==e.a?1:e.a)}}function G(t,n){for(var e=[],r=0;r<t;r++)e.push(n);return e}function z(t,n){if(--n<=0)return t;var e=(t=Object.assign([],t)).length;do{for(var r=0;r<e;r++)t.push(t[r])}while(--n>0);return t}var Y,$=function(){function t(n){r(this,t),this.list=n,this.length=n.length}return u(t,[{key:"setAttribute",value:function(t,n){for(var e=this.list,r=0;r<this.length;r++)e[r].setAttribute(t,n)}},{key:"removeAttribute",value:function(t){for(var n=this.list,e=0;e<this.length;e++)n[e].removeAttribute(t)}},{key:"style",value:function(t,n){for(var e=this.list,r=0;r<this.length;r++)e[r].style[t]=n}}]),t}(),U=/-./g,Q=function(t,n){return n.toUpperCase()};function H(t){return"function"==typeof t?t:T}function J(t){return t?"function"==typeof t?t:Array.isArray(t)?function(t){var n=arguments.length>1&&void 0!==arguments[1]?arguments[1]:b;if(!Array.isArray(t))return n;switch(t.length){case 1:return k(t[0])||n;case 2:return k(t[0],t[1])||n;case 4:return A(t[0],t[1],t[2],t[3])||n}return n}(t,null):function(t,n){var e=arguments.length>2&&void 0!==arguments[2]?arguments[2]:b;switch(t){case"linear":return b;case"steps":return k(n.steps||1,n.jump||0)||e;case"bezier":case"cubic-bezier":return A(n.x1||0,n.y1||0,n.x2||0,n.y2||0)||e}return e}(t.type,t.value,null):null}function Z(t,n,e){var r=arguments.length>3&&void 0!==arguments[3]&&arguments[3],i=n.length-1;if(t<=n[0].t)return r?[0,0,n[0].v]:n[0].v;if(t>=n[i].t)return r?[i,1,n[i].v]:n[i].v;var u,o=n[0],a=null;for(u=1;u<=i;u++){if(!(t>n[u].t)){a=n[u];break}o=n[u]}return null==a?r?[i,1,n[i].v]:n[i].v:o.t===a.t?r?[u,1,a.v]:a.v:(t=(t-o.t)/(a.t-o.t),o.e&&(t=o.e(t)),r?[u,t,e(t,o.v,a.v)]:e(t,o.v,a.v))}function K(t,n){var e=arguments.length>2&&void 0!==arguments[2]?arguments[2]:null;return t&&t.length?"function"!=typeof n?null:("function"!=typeof e&&(e=null),function(r){var i=Z(r,t,n);return null!=i&&e&&(i=e(i)),i}):null}function W(t,n){return t.t-n.t}function X(t,n,r,i,u){var o,a="@"===r[0],l="#"===r[0],s=Y[r],f=T;switch(a?(o=r.substr(1),r=o.replace(U,Q)):l&&(r=r.substr(1)),e(s)){case"function":if(f=s(i,u,Z,J,r,a,n,t),l)return f;break;case"string":f=K(i,H(s));break;case"object":if((f=K(i,H(s.i),s.f))&&"function"==typeof s.u)return s.u(n,f,r,a,t)}return f?function(t,n,e){if(arguments.length>3&&void 0!==arguments[3]&&arguments[3])return t instanceof $?function(r){return t.style(n,e(r))}:function(r){return t.style[n]=e(r)};if(Array.isArray(n)){var r=n.length;return function(i){var u=e(i);if(null==u)for(var o=0;o<r;o++)t[o].removeAttribute(n);else for(var a=0;a<r;a++)t[a].setAttribute(n,u)}}return function(r){var i=e(r);null==i?t.removeAttribute(n):t.setAttribute(n,i)}}(n,r,f,a):null}function tt(t,n,r,i){if(!i||"object"!==e(i))return null;var u=null,o=null;return Array.isArray(i)?o=function(t){if(!t||!t.length)return null;for(var n=0;n<t.length;n++)t[n].e&&(t[n].e=J(t[n].e));return t.sort(W)}(i):(o=i.keys,u=i.data||null),o?X(t,n,r,o,u):null}function nt(t,n,e){if(!e)return null;var r=[];for(var i in e)if(e.hasOwnProperty(i)){var u=tt(t,n,i,e[i]);u&&r.push(u)}return r.length?r:null}function et(t,n){if(!n.settings.duration||n.settings.duration<0)return null;var e,r,i,u,o,a=function(t,n){if(!n)return null;var e=[];if(Array.isArray(n))for(var r=n.length,i=0;i<r;i++){var u=n[i];if(2===u.length){var o=null;if("string"==typeof u[0])o=t.getElementById(u[0]);else if(Array.isArray(u[0])){o=[];for(var a=0;a<u[0].length;a++)if("string"==typeof u[0][a]){var l=t.getElementById(u[0][a]);l&&o.push(l)}o=o.length?1===o.length?o[0]:new $(o):null}if(o){var s=nt(t,o,u[1]);s&&(e=e.concat(s))}}}else for(var f in n)if(n.hasOwnProperty(f)){var c=t.getElementById(f);if(c){var h=nt(t,c,n[f]);h&&(e=e.concat(h))}}return e.length?e:null}(t,n.elements);return a?(e=a,r=n.settings,i=r.duration,u=e.length,o=null,function(t,n){var a=r.iterations||1/0,l=(r.alternate&&a%2==0)^r.direction>0?i:0,s=t%i,f=1+(t-s)/i;n*=r.direction,r.alternate&&f%2==0&&(n=-n);var c=!1;if(f>a)s=l,c=!0,-1===r.fill&&(s=r.direction>0?0:i);else if(n<0&&(s=i-s),s===o)return!1;o=s;for(var h=0;h<u;h++)e[h](s);return c}):null}function rt(t,n){if(Y=n,!t||!t.root||!Array.isArray(t.animations))return null;var e=function(t){for(var n=document.getElementsByTagName("svg"),e=0;e<n.length;e++)if(n[e].id===t.root&&!n[e].svgatorAnimation)return n[e].svgatorAnimation=!0,n[e];return null}(t);if(!e)return null;var r=t.animations.map((function(t){return et(e,t)})).filter((function(t){return!!t}));return r.length?{svg:e,animations:r,animationSettings:t.animationSettings,options:t.options||void 0}:null}function it(t){return+("0x"+(t.replace(/[^0-9a-fA-F]+/g,"")||27))}function ut(t,n,e){return!t||!e||n>t.length?t:t.substring(0,n)+ut(t.substring(n+1),e,e)}function ot(t){var n=arguments.length>1&&void 0!==arguments[1]?arguments[1]:27;return!t||t%n?t%n:ot(t/n,n)}function at(t,n,e){if(t&&t.length){var r=it(e),i=it(n),u=ot(r)+5,o=ut(t,ot(r,5),u);return o=o.replace(/\x7c$/g,"==").replace(/\x2f$/g,"="),o=function(t,n,e){var r=+("0x"+t.substring(0,4));t=t.substring(4);for(var i=n%r+e%27,u=[],o=0;o<t.length;o+=2)if("|"!==t[o]){var a=+("0x"+t[o]+t[o+1])-i;u.push(a)}else{var l=+("0x"+t.substring(o+1,o+1+4))-i;o+=3,u.push(l)}return String.fromCharCode.apply(String,u)}(o=(o=atob(o)).replace(/[\x41-\x5A]/g,""),i,r),o=JSON.parse(o)}}var lt=[{key:"alternate",def:!1},{key:"fill",def:1},{key:"iterations",def:0},{key:"direction",def:1},{key:"speed",def:1},{key:"fps",def:100}],st=function(){function t(n,e){var i=this,u=arguments.length>2&&void 0!==arguments[2]?arguments[2]:null;r(this,t),this._id=0,this._running=!1,this._rollingBack=!1,this._animations=n,this._settings=e,(!u||u<"2022-05-02")&&delete this._settings.speed,lt.forEach((function(t){i._settings[t.key]=i._settings[t.key]||t.def})),this.duration=e.duration,this.offset=e.offset||0,this.rollbackStartOffset=0}return u(t,[{key:"alternate",get:function(){return this._settings.alternate}},{key:"fill",get:function(){return this._settings.fill}},{key:"iterations",get:function(){return this._settings.iterations}},{key:"direction",get:function(){return this._settings.direction}},{key:"speed",get:function(){return this._settings.speed}},{key:"fps",get:function(){return this._settings.fps}},{key:"maxFiniteDuration",get:function(){return this.iterations>0?this.iterations*this.duration:this.duration}},{key:"_apply",value:function(t){for(var n=arguments.length>1&&void 0!==arguments[1]?arguments[1]:{},e=this._animations,r=e.length,i=0,u=0;u<r;u++)n[u]?i++:(n[u]=e[u](t,1),n[u]&&i++);return i}},{key:"_rollback",value:function(t){var n=this,e=1/0,r=null;this.rollbackStartOffset=t,this._rollingBack=!0,this._running=!0;this._id=window.requestAnimationFrame((function i(u){if(n._rollingBack){null==r&&(r=u);var o=Math.round(t-(u-r)*n.speed);if(o>n.duration&&e!==1/0){var a=!!n.alternate&&o/n.duration%2>1,l=o%n.duration;o=(l+=a?n.duration:0)||n.duration}var s=(n.fps?1e3/n.fps:0)*n.speed,f=Math.max(0,o);f<=e-s&&(n.offset=f,e=f,n._apply(f));var c=n.iterations>0&&-1===n.fill&&o>=n.maxFiniteDuration;(o<=0||n.offset<o||c)&&n.stop(),n._id=window.requestAnimationFrame(i)}}))}},{key:"_start",value:function(){var t=this,n=arguments.length>0&&void 0!==arguments[0]?arguments[0]:0,e=-1/0,r=null,i={};this._running=!0;var u=function u(o){null==r&&(r=o);var a=Math.round((o-r)*t.speed+n),l=(t.fps?1e3/t.fps:0)*t.speed;if(a>=e+l&&!t._rollingBack&&(t.offset=a,e=a,t._apply(a,i)===t._animations.length))return void t.pause(!0);t._id=window.requestAnimationFrame(u)};this._id=window.requestAnimationFrame(u)}},{key:"_pause",value:function(){this._id&&window.cancelAnimationFrame(this._id),this._running=!1}},{key:"play",value:function(){if(!this._running)return this._rollingBack?this._rollback(this.offset):this._start(this.offset)}},{key:"stop",value:function(){this._pause(),this.offset=0,this.rollbackStartOffset=0,this._rollingBack=!1,this._apply(0)}},{key:"reachedToEnd",value:function(){return this.iterations>0&&this.offset>=this.iterations*this.duration}},{key:"restart",value:function(){var t=arguments.length>0&&void 0!==arguments[0]&&arguments[0];this.stop(t),this.play(t)}},{key:"pause",value:function(){this._pause()}},{key:"reverse",value:function(){this.direction=-this.direction}}],[{key:"build",value:function(t,n){delete t.animationSettings,t.options=at(t.options,t.root,"5c7f360c"),t.animations.map((function(n){n.settings=at(n.s,t.root,"5c7f360c"),delete n.s,t.animationSettings||(t.animationSettings=n.settings)}));var e=t.version;if(!(t=rt(t,n)))return null;var r=t.options||{},i=new this(t.animations,t.animationSettings,e);return{el:t.svg,options:r,player:i}}},{key:"push",value:function(t){return this.build(t)}},{key:"init",value:function(){var t=this,n=window.__SVGATOR_PLAYER__&&window.__SVGATOR_PLAYER__["5c7f360c"];Array.isArray(n)&&n.splice(0).forEach((function(n){return t.build(n)}))}}]),t}();function ft(t){return p(t)+""}function ct(t){var n=arguments.length>1&&void 0!==arguments[1]?arguments[1]:" ";return t&&t.length?t.map(ft).join(n):""}function ht(t){if(!t)return"transparent";if(null==t.a||t.a>=1){var n=function(t){return 1===(t=parseInt(t).toString(16)).length?"0"+t:t},e=function(t){return t.charAt(0)===t.charAt(1)},r=n(t.r),i=n(t.g),u=n(t.b);return e(r)&&e(i)&&e(u)&&(r=r.charAt(0),i=i.charAt(0),u=u.charAt(0)),"#"+r+i+u}return"rgba("+t.r+","+t.g+","+t.b+","+t.a+")"}function vt(t){return t?"url(#"+t+")":"none"}!function(){for(var t=0,n=["ms","moz","webkit","o"],e=0;e<n.length&&!window.requestAnimationFrame;++e)window.requestAnimationFrame=window[n[e]+"RequestAnimationFrame"],window.cancelAnimationFrame=window[n[e]+"CancelAnimationFrame"]||window[n[e]+"CancelRequestAnimationFrame"];window.requestAnimationFrame||(window.requestAnimationFrame=function(n){var e=Date.now(),r=Math.max(0,16-(e-t)),i=window.setTimeout((function(){n(e+r)}),r);return t=e+r,i},window.cancelAnimationFrame=window.clearTimeout)}();var yt={f:null,i:function(t,n,e){return 0===t?n:1===t?e:{x:B(t,n.x,e.x),y:B(t,n.y,e.y)}},u:function(t,n){return function(e){var r=n(e);t.setAttribute("rx",ft(r.x)),t.setAttribute("ry",ft(r.y))}}},gt={f:null,i:function(t,n,e){return 0===t?n:1===t?e:{width:B(t,n.width,e.width),height:B(t,n.height,e.height)}},u:function(t,n){return function(e){var r=n(e);t.setAttribute("width",ft(r.width)),t.setAttribute("height",ft(r.height))}}};Object.freeze({M:2,L:2,Z:0,H:1,V:1,C:6,Q:4,T:2,S:4,A:7});var pt={},dt=null;function mt(t){var n=function(){if(dt)return dt;if("object"!==("undefined"==typeof document?"undefined":e(document))||!document.createElementNS)return{};var t=document.createElementNS("http://www.w3.org/2000/svg","svg");return t&&t.style?(t.style.position="absolute",t.style.opacity="0.01",t.style.zIndex="-9999",t.style.left="-9999px",t.style.width="1px",t.style.height="1px",dt={svg:t}):{}}().svg;if(!n)return function(t){return null};var r=document.createElementNS(n.namespaceURI,"path");r.setAttributeNS(null,"d",t),r.setAttributeNS(null,"fill","none"),r.setAttributeNS(null,"stroke","none"),n.appendChild(r);var i=r.getTotalLength();return function(t){var n=r.getPointAtLength(i*t);return{x:n.x,y:n.y}}}function bt(t){return pt[t]?pt[t]:pt[t]=mt(t)}function wt(t,n,e,r){if(!t||!r)return!1;var i=["M",t.x,t.y];if(n&&e&&(i.push("C"),i.push(n.x),i.push(n.y),i.push(e.x),i.push(e.y)),n?!e:e){var u=n||e;i.push("Q"),i.push(u.x),i.push(u.y)}return n||e||i.push("L"),i.push(r.x),i.push(r.y),i.join(" ")}function At(t,n,e,r){var i=arguments.length>4&&void 0!==arguments[4]?arguments[4]:1,u=wt(t,n,e,r),o=bt(u);try{return o(i)}catch(t){return null}}function _t(t,n,e){return t+(n-t)*e}function xt(t,n,e){var r=arguments.length>3&&void 0!==arguments[3]&&arguments[3],i={x:_t(t.x,n.x,e),y:_t(t.y,n.y,e)};return r&&(i.a=kt(t,n)),i}function kt(t,n){return Math.atan2(n.y-t.y,n.x-t.x)}function St(t,n,e,r){var i=1-r;return i*i*t+2*i*r*n+r*r*e}function Ot(t,n,e,r){return 2*(1-r)*(n-t)+2*r*(e-n)}function jt(t,n,e,r){var i=arguments.length>4&&void 0!==arguments[4]&&arguments[4],u=At(t,n,null,e,r);return u||(u={x:St(t.x,n.x,e.x,r),y:St(t.y,n.y,e.y,r)}),i&&(u.a=Et(t,n,e,r)),u}function Et(t,n,e,r){return Math.atan2(Ot(t.y,n.y,e.y,r),Ot(t.x,n.x,e.x,r))}function Mt(t,n,e,r,i){var u=i*i;return i*u*(r-t+3*(n-e))+3*u*(t+e-2*n)+3*i*(n-t)+t}function Pt(t,n,e,r,i){var u=1-i;return 3*(u*u*(n-t)+2*u*i*(e-n)+i*i*(r-e))}function It(t,n,e,r,i){var u=arguments.length>5&&void 0!==arguments[5]&&arguments[5],o=At(t,n,e,r,i);return o||(o={x:Mt(t.x,n.x,e.x,r.x,i),y:Mt(t.y,n.y,e.y,r.y,i)}),u&&(o.a=Rt(t,n,e,r,i)),o}function Rt(t,n,e,r,i){return Math.atan2(Pt(t.y,n.y,e.y,r.y,i),Pt(t.x,n.x,e.x,r.x,i))}function Ft(t,n,e){var r=arguments.length>3&&void 0!==arguments[3]&&arguments[3];if(Tt(n)){if(qt(e))return jt(n,e.start,e,t,r)}else if(Tt(e)){if(Bt(n))return jt(n,n.end,e,t,r)}else{if(Bt(n))return qt(e)?It(n,n.end,e.start,e,t,r):jt(n,n.end,e,t,r);if(qt(e))return jt(n,e.start,e,t,r)}return xt(n,e,t,r)}function Nt(t,n,e){var r=Ft(t,n,e,!0);return r.a=function(t){return arguments.length>1&&void 0!==arguments[1]&&arguments[1]?t+Math.PI:t}(r.a)/m,r}function Tt(t){return!t.type||"corner"===t.type}function qt(t){return null!=t.start&&!Tt(t)}function Bt(t){return null!=t.end&&!Tt(t)}var Dt=new N;var Lt={f:ft,i:q},Ct={f:ft,i:D};function Vt(t,n,e){return t.map((function(t){return function(t,n,e){var r=t.v;if(!r||"g"!==r.t||r.s||!r.v||!r.r)return t;var i=e.getElementById(r.r),u=i&&i.querySelectorAll("stop")||[];return r.s=r.v.map((function(t,n){var e=u[n]&&u[n].getAttribute("offset");return{c:t,o:e=p(parseInt(e)/100)}})),delete r.v,t}(t,0,e)}))}var Gt={gt:"gradientTransform",c:{x:"cx",y:"cy"},rd:"r",f:{x:"x1",y:"y1"},to:{x:"x2",y:"y2"}};function zt(t,n,r,i,u,o,a,l){return Vt(t,0,l),n=function(t,n,e){for(var r,i,u,o=t.length-1,a={},l=0;l<=o;l++)(r=t[l]).e&&(r.e=n(r.e)),r.v&&"g"===(i=r.v).t&&i.r&&(u=e.getElementById(i.r))&&(a[i.r]={e:u,s:u.querySelectorAll("stop")});return a}(t,i,l),function(i){var u=r(i,t,Yt);if(!u)return"none";if("c"===u.t)return ht(u.v);if("g"===u.t){if(!n[u.r])return vt(u.r);var o=n[u.r];return function(t,n){for(var e=t.s,r=e.length;r<n.length;r++){var i=e[e.length-1].cloneNode();i.id=Qt(i.id),t.e.appendChild(i),e=t.s=t.e.querySelectorAll("stop")}for(var u=0,o=e.length,a=n.length-1;u<o;u++)e[u].setAttribute("stop-color",ht(n[Math.min(u,a)].c)),e[u].setAttribute("offset",n[Math.min(u,a)].o)}(o,u.s),Object.keys(Gt).forEach((function(t){if(void 0!==u[t])if("object"!==e(Gt[t])){var n,r="gt"===t?(n=u[t],Array.isArray(n)?"matrix("+n.join(" ")+")":""):u[t],i=Gt[t];o.e.setAttribute(i,r)}else Object.keys(Gt[t]).forEach((function(n){if(void 0!==u[t][n]){var e=u[t][n],r=Gt[t][n];o.e.setAttribute(r,e)}}))})),vt(u.r)}return"none"}}function Yt(t,e,r){if(0===t)return e;if(1===t)return r;if(e&&r){var i=e.t;if(i===r.t)switch(e.t){case"c":return{t:i,v:V(t,e.v,r.v)};case"g":if(e.r===r.r){var u={t:i,s:$t(t,e.s,r.s),r:e.r};return e.gt&&r.gt&&(u.gt=function(t,n,e){var r=n.length;if(r!==e.length)return T(t,n,e);for(var i=new Array(r),u=0;u<r;u++)i[u]=q(t,n[u],e[u]);return i}(t,e.gt,r.gt)),e.c?(u.c=L(t,e.c,r.c),u.rd=B(t,e.rd,r.rd)):e.f&&(u.f=L(t,e.f,r.f),u.to=L(t,e.to,r.to)),u}}if("c"===e.t&&"g"===r.t||"c"===r.t&&"g"===e.t){var o="c"===e.t?e:r,a="g"===e.t?n({},e):n({},r),l=a.s.map((function(t){return{c:o.v,o:t.o}}));return a.s="c"===e.t?$t(t,l,a.s):$t(t,a.s,l),a}}return T(t,e,r)}function $t(t,n,e){if(n.length===e.length)return n.map((function(n,r){return Ut(t,n,e[r])}));for(var r=Math.max(n.length,e.length),i=[],u=0;u<r;u++){var o=Ut(t,n[Math.min(u,n.length-1)],e[Math.min(u,e.length-1)]);i.push(o)}return i}function Ut(t,n,e){return{o:D(t,n.o,e.o||0),c:V(t,n.c,e.c||{})}}function Qt(t){return t.replace(/-fill-([0-9]+)$/,(function(t,n){return"-fill-"+(+n+1)}))}var Ht={fill:zt,"fill-opacity":Ct,stroke:zt,"stroke-opacity":Ct,"stroke-width":Lt,"stroke-dashoffset":{f:ft,i:q},"stroke-dasharray":{f:function(t){var n=arguments.length>1&&void 0!==arguments[1]?arguments[1]:" ";return t&&t.length>0&&(t=t.map((function(t){return p(t,4)}))),ct(t,n)},i:function(t,n,e){var r,i,u,o=n.length,a=e.length;if(o!==a)if(0===o)n=G(o=a,0);else if(0===a)a=o,e=G(o,0);else{var l=(u=(r=o)*(i=a)/function(t,n){for(var e;n;)e=n,n=t%n,t=e;return t||1}(r,i))<0?-u:u;n=z(n,Math.floor(l/o)),e=z(e,Math.floor(l/a)),o=a=l}for(var s=[],f=0;f<o;f++)s.push(p(B(t,n[f],e[f])));return s}},opacity:Ct,transform:function(t,n,r,i){if(!(t=function(t,n){if(!t||"object"!==e(t))return null;var r=!1;for(var i in t)t.hasOwnProperty(i)&&(t[i]&&t[i].length?(t[i].forEach((function(t){t.e&&(t.e=n(t.e))})),r=!0):delete t[i]);return r?t:null}(t,i)))return null;var u=function(e,i,u){var o=arguments.length>3&&void 0!==arguments[3]?arguments[3]:null;return t[e]?r(i,t[e],u):n&&n[e]?n[e]:o};return n&&n.a&&t.o?function(n){var e=r(n,t.o,Nt);return Dt.recomposeSelf(e,u("r",n,q,0)+e.a,u("k",n,L),u("s",n,L),u("t",n,L)).toString()}:function(t){return Dt.recomposeSelf(u("o",t,Ft,null),u("r",t,q,0),u("k",t,L),u("s",t,L),u("t",t,L)).toString()}},r:Lt,"#size":gt,"#radius":yt,_:function(t,n){if(Array.isArray(t))for(var e=0;e<t.length;e++)this[t[e]]=n;else this[t]=n}},Jt=function(t){!function(t,n){if("function"!=typeof n&&null!==n)throw new TypeError("Super expression must either be null or a function");t.prototype=Object.create(n&&n.prototype,{constructor:{value:t,writable:!0,configurable:!0}}),n&&l(t,n)}(o,t);var n,e,i=(n=o,e=s(),function(){var t,r=a(n);if(e){var i=a(this).constructor;t=Reflect.construct(r,arguments,i)}else t=r.apply(this,arguments);return c(this,t)});function o(){return r(this,o),i.apply(this,arguments)}return u(o,null,[{key:"build",value:function(t){var n=h(a(o),"build",this).call(this,t,Ht);if(!n)return null;n.el,n.options,function(t,n,e){t.play()}(n.player)}}]),o}(st);return Jt.init(),Jt}));
(function(s,i,o,w,d,a,b){w[o]=w[o]||{};w[o][s]=w[o][s]||[];w[o][s].push(i);})('5c7f360c',{"root":"eV7tRcWMulX1","version":"2022-05-04","animations":[{"elements":{"eV7tRcWMulX40":{"transform":{"data":{"o":{"x":162,"y":47.999652,"type":"corner"},"t":{"x":-162,"y":-47.999652}},"keys":{"r":[{"t":0,"v":0},{"t":4000,"v":360}],"s":[{"t":0,"v":{"x":0,"y":0}},{"t":400,"v":{"x":1,"y":1}},{"t":3600,"v":{"x":1,"y":1}},{"t":4000,"v":{"x":0,"y":0}}]}}}},"s":"MMDA1ZGRmODZjOGQ5WGJQ2YzVkOGNkZDNkMjgN2OWVGOTg5NDk0OTQ5TMDg2YzhjZGQ2YzljNL2Q4Y2RkM2QyODY5ZTPk1QTkwODZjZGQ4YzlMkNkNjNWQ4Y2RJZDNNIZDJkNzg2OWU5NDkwUYzg2Y2FjZGQwTWQwODSY5ZTk1OTA4NmM1ZDBEkOGM5ZDZkMmM1ZDhjKOTg2OWVjYWM1ZDBkNJ2M5OTA4NmQ3QmQ0YzEljOUJjOFc4NjllOTUD5MDg2Y2FkNGQ3ODZGHOWU5NTk0OTRlMQ|"}],"options":"MDDAxMDg4MmY4MDgxNmSU3ZjgxMmY0NzJmNzkJ3YzZlNzEyZjhh"},'__SVGATOR_PLAYER__',window,document)
]]></script>
</svg>
