<svg width="60" height="60" viewBox="0 0 60 60" fill="none" xmlns="http://www.w3.org/2000/svg">
<path d="M55.7143 29.9999C55.7143 44.2015 44.2016 55.7142 30 55.7142C15.7984 55.7142 4.28573 44.2015 4.28573 29.9999C4.28573 15.7983 15.7984 4.28564 30 4.28564C44.2016 4.28564 55.7143 15.7983 55.7143 29.9999Z" fill="#FFD362"/>
<path fill-rule="evenodd" clip-rule="evenodd" d="M30 5.57143C16.5085 5.57143 5.57143 16.5085 5.57143 30C5.57143 43.4915 16.5085 54.4286 30 54.4286C43.4915 54.4286 54.4286 43.4915 54.4286 30C54.4286 16.5085 43.4915 5.57143 30 5.57143ZM3 30C3 15.0883 15.0883 3 30 3C44.9117 3 57 15.0883 57 30C57 44.9117 44.9117 57 30 57C15.0883 57 3 44.9117 3 30Z" fill="black"/>
<circle cx="30.0001" cy="30.0001" r="20.5714" fill="#FFB82E"/>
<path d="M38.3622 19.7141H24.1371V42.857H29.4445V33.8158H37.5599V28.7861H29.4445V24.7747H38.3622V19.7141Z" fill="#985507"/>
</svg>
