<svg fill="none" height="184" viewBox="0 0 24 184" width="24" xmlns="http://www.w3.org/2000/svg"><path d="m7.85937 3.87891c0-.63282.10743-1.24805.32227-1.84571.21875-.59765.50391-1.105466.85547-1.523435l1.18949.574215c-.2891.41016-.52933.86524-.72074 1.36524s-.28711.9668-.28711 1.40039c0 .5.0957.88281.28711 1.14844.19141.26953.46875.40625.83204.41015.2773 0 .5254-.15625.7441-.46875.2188-.30859.4258-.7832.6211-1.42383.2539-.88671.6016-1.56054 1.043-2.02148s.9766-.691406 1.6055-.691406c.4765 0 .8867.101563 1.2304.304686.3477.20313.6153.50391.8028.90235.1875.39843.2812.88085.2812 1.44726 0 .06641-.0039.16992-.0117.31055-.0469.90234-.2754 1.75-.6856 2.54297l-1.3066-.26368c.3672-.72265.5801-1.44335.6387-2.1621.0039-.05079.0058-.12305.0058-.2168 0-.42578-.0879-.75586-.2636-.99024-.1719-.23437-.4024-.35156-.6914-.35156-.543 0-.9981.66211-1.3653 1.98633-.2539.88281-.6015 1.53906-1.0429 1.96875-.4414.43359-.9825.65039-1.6231.65039-.50389 0-.94139-.11719-1.31249-.35156-.36719-.23438-.65039-.58008-.84961-1.03711s-.29883-1.01172-.29883-1.66406zm1.26563 13.28519c0 .9648.5293 1.7832 1.5879 2.455l-.89064.9434c-.6875-.375-1.19726-.8438-1.52929-1.4063-.32813-.5585-.49219-1.2226-.49219-1.9921 0-.8243.18359-1.5567.55078-2.1973.3711-.6367.89063-1.1367 1.5586-1.5.67184-.3594 1.44334-.5449 2.31444-.5566.875.0117 1.6465.1972 2.3145.5566.6679.3633 1.1855.8633 1.5527 1.5.3711.6406.5566 1.373.5566 2.1973 0 .7617-.166 1.4238-.498 1.9863s-.8418 1.0332-1.5293 1.4121l-.8848-.9434c.5391-.3437.9375-.7187 1.1953-1.125.2618-.4062.3926-.8496.3926-1.33 0-.5235-.1308-.9903-.3926-1.4004-.2578-.4102-.6211-.7325-1.0898-.9668-.4688-.2305-1.0078-.3496-1.6172-.3574-.6094.0078-1.1484.1269-1.6172.3574-.4687.2343-.83396.5566-1.09568.9668-.25781.4101-.38672.8769-.38672 1.4004zm-1.125 14.7031 3.0879-1.875v-1.6172h-3.0879v-1.5234h8.4551v3.2285c0 .6445-.1074 1.2031-.3223 1.6758-.2109.4765-.5156.8418-.9141 1.0957-.3945.2578-.8613.3867-1.4003.3867-.6016 0-1.1172-.1465-1.5469-.4395-.4297-.2929-.7442-.709-.9434-1.248l-3.3281 2.1211zm7.1543-3.4922h-2.7656v1.6758c0 .3398.0547.6347.164.8847.1094.25.2637.4415.4629.5743.2031.1367.4414.205.7149.205.289 0 .541-.0703.7558-.2109.2149-.1367.3789-.334.4922-.5918.1172-.2578.1758-.5625.1758-.9141zm-7.35352 15.1953c0-.8437.18555-1.5898.55664-2.2383.37109-.6445.89063-1.1465 1.55859-1.5058.67189-.3555 1.44529-.5332 2.32029-.5332.8711 0 1.6407.1777 2.3086.5332.668.3593 1.1856.8613 1.5528 1.5058.371.6485.5566 1.3946.5566 2.2383 0 .8399-.1856 1.582-.5566 2.2266-.3672.6445-.8848 1.1445-1.5528 1.5-.6679.3554-1.4375.5332-2.3086.5332-.875 0-1.6484-.1778-2.32029-.5332-.66797-.3555-1.1875-.8555-1.55859-1.5-.37109-.6446-.55664-1.3867-.55664-2.2266zm1.30664 0c0 .5391.13086 1.0156.39258 1.4297s.6289.7344 1.1016.9609c.4765.2305 1.0214.3457 1.6347.3457s1.1543-.1152 1.6231-.3457c.4726-.2265.8379-.5468 1.0957-.9609.2617-.4141.3926-.8906.3926-1.4297 0-.543-.1309-1.0234-.3926-1.4414-.2578-.4141-.6231-.7363-1.0957-.9668-.4688-.2305-1.0098-.3457-1.6231-.3457s-1.1582.1152-1.6347.3457c-.4727.2305-.83988.5547-1.1016.9727-.26172.4179-.39258.8964-.39258 1.4355zm7.54688 12.0781h-7.34766v4.0606h-1.30664v-5.584h8.6543zm0 11.7032h-7.34766v4.0605h-1.30664v-5.584h8.6543z" fill="#000"/><g stroke="#000" stroke-linecap="round" stroke-linejoin="round" stroke-width="1.5"><path d="m12 87v58"/><circle cx="12" cy="172" r="11.25"/><path d="m16 170-4 4-4-4"/></g></svg>