<svg fill="none" height="32" viewBox="0 0 32 32" width="32" xmlns="http://www.w3.org/2000/svg"><g fill="#000"><path clip-rule="evenodd" d="m3.8999 11.9999c0-4.4735 3.6265-8.1 8.1-8.1h8c4.4735 0 8.1 3.6265 8.1 8.1v8c0 4.4735-3.6265 8.1-8.1 8.1h-8c-4.4735 0-8.1-3.6265-8.1-8.1zm8.1-5.9c-3.25848 0-5.9 2.64152-5.9 5.9v8c0 3.2585 2.64152 5.9 5.9 5.9h8c3.2585 0 5.9-2.6415 5.9-5.9v-8c0-3.25848-2.6415-5.9-5.9-5.9z" fill-rule="evenodd"/><path clip-rule="evenodd" d="m16 12c-2.2091 0-4 1.7909-4 4s1.7909 4 4 4 4-1.7909 4-4-1.7909-4-4-4zm-6 4c0-3.3137 2.6863-6 6-6s6 2.6863 6 6-2.6863 6-6 6-6-2.6863-6-6z" fill-rule="evenodd"/><path d="m23.5 9.5c0 .5523-.4477 1-1 1s-1-.4477-1-1c0-.55228.4477-1 1-1s1 .44772 1 1z"/></g></svg>