<svg fill="none" height="144" viewBox="0 0 144 144" width="144" xmlns="http://www.w3.org/2000/svg"><g fill="#000"><path clip-rule="evenodd" d="m137.217 65.5827c-1.016-10.4707-4.487-20.222-9.832-28.6715l1.268-.8019c5.467 8.6428 9.018 18.6182 10.057 29.3285z" fill-rule="evenodd"/><path d="m134.837 81.3225 7.275 3.2407-.238 1.8095-9.381-4.318.271-2.0535 4.36-.8045.009-.0678-3.982-2.0691.268-2.0332 10.244-2.2357-.241 1.8299-7.981 1.6996-.01.0746 4.336 2.3156 3.194-.5927-.222 1.6876-7.887 1.4085z"/><path d="m134.489 92.0932-2.554-.9582-1.664 4.4353-1.427-.5355 2.289-6.0994 9.235 3.4653-2.244 5.941-1.421-.5331 1.607-4.2817-2.394-.8982-1.457 3.8849-1.428-.5355z"/><path d="m128.962 106.54c-.28.263-.606.455-.977.578-.371.122-.753.164-1.144.126-.392-.039-.762-.162-1.109-.371-.407-.244-.723-.581-.949-1.009-.225-.422-.329-.891-.311-1.407.021-.514.179-1.016.475-1.509l2.165-3.6035 8.456 5.0795-1.855 3.088c-.282.469-.63.845-1.044 1.128-.415.282-.843.442-1.285.48-.445.041-.853-.05-1.224-.273-.473-.284-.808-.634-1.004-1.05-.197-.416-.252-.829-.165-1.239zm4.384-1.377-2.186-1.313-.736 1.224c-.171.286-.276.563-.315.831-.04.269-.012.512.081.727.096.222.251.398.465.527.219.131.446.188.68.169.235-.019.46-.106.677-.263.22-.155.415-.373.584-.654zm-6.705-2.074c-.343.58-.5 1.063-.471 1.447.03.385.248.699.654.943.41.247.805.266 1.185.058.382-.201.769-.625 1.163-1.271l.711-1.184-2.379-1.429z"/><path d="m118.943 111.284c.479-.538 1.007-.949 1.584-1.235.578-.279 1.171-.4 1.78-.365l.295 1.489c-.464.021-.913.127-1.347.321-.431.196-.784.449-1.06.758-.26.293-.434.599-.522.917s-.09.625-.005.92.254.555.505.779c.402.358.827.501 1.275.43.444-.068.895-.359 1.353-.873.106-.119.229-.275.37-.467l.3-.41.97.196.177 3.945 2.636-2.962 1.125 1.029-4.168 4.683-1.124-1.019-.107-3.5c-.381.436-.798.736-1.25.901-.449.168-.914.194-1.395.076-.484-.113-.963-.374-1.435-.783-.463-.412-.774-.892-.931-1.442-.161-.546-.159-1.114.007-1.704.166-.585.488-1.146.967-1.684z"/><path d="m111.943 131.345-4.548-7.266-4.016 2.513-.808-1.292 5.521-3.457 5.358 8.559z"/><path d="m97.5899 127.853 1.621-.729 4.0451 8.997-1.621.728z"/><path d="m91.7377 130.259 1.7045-.504 2.7958 9.46-6.1426 1.815-.4321-1.462 4.4382-1.312-.7382-2.497-4.0252 1.189-.4301-1.455 4.0251-1.19z"/><path d="m82.3965 136.989-.3042-2.71-4.7078.528-.17-1.515 6.474-.727 1.1004 9.803-6.3125.695-.1693-1.508 4.5447-.51-.2852-2.541-4.1235.463-.1701-1.515z"/><path d="m68.8213 133.291c.7365.052 1.4438.226 2.122.525.6779.303 1.2458.676 1.7038 1.119l-.7646 1.338c-.4539-.37-.9641-.686-1.5306-.95-.5664-.263-1.102-.412-1.6066-.447-.5819-.041-1.0352.04-1.3598.241-.3292.201-.5108.513-.5448.935-.0224.323.1394.624.4854.904.3414.28.877.559 1.6068.838 1.0115.368 1.7676.827 2.2683 1.378s.7256 1.192.6747 1.924c-.0385.555-.1899 1.024-.4542 1.408-.2645.388-.6363.675-1.1152.861s-1.0479.256-1.7071.21c-.0773-.005-.1975-.018-.3605-.039-1.0464-.127-2.0145-.462-2.9042-1.003l.4127-1.5c.8113.486 1.6329.792 2.4647.919.0587.008.1427.016.2518.024.4955.034.8868-.041 1.1738-.227.2867-.181.4418-.44.4652-.776.0439-.632-.6898-1.215-2.2013-1.75-1.0069-.367-1.7426-.824-2.2069-1.373-.4689-.549-.6775-1.196-.6256-1.942.0408-.586.2126-1.086.5154-1.499.3025-.408.7278-.71 1.2758-.905.5481-.194 1.2017-.266 1.961-.213z"/><path d="m51.986 140.621.3764-1.477 2.8352.722 2.0638-8.073 1.729.44-2.0705 8.072 2.8551.727-.3763 1.478z"/><path d="m40.7324 136.291-1.9197-.897 5.7867-3.822 1.6737-3.579 1.61.753-1.6534 3.536.7941 6.951-1.9196-.897-.3741-4.816-.0743-.035z"/><path d="m32.3735 131.861 4.9919-6.969-3.8513-2.759.8877-1.239 5.2962 3.794-5.8796 8.208z"/><path d="m27.2041 120.455 1.9426-1.915-3.3253-3.374 1.0857-1.07 4.5729 4.64-7.0255 6.924-4.4481-4.532 1.0809-1.066 3.2101 3.258 1.821-1.795-2.9127-2.955 1.0857-1.07z"/><path d="m15.7842 97.6562.9028 1.7418-1.6023 1.87 1.8309 3.532 2.4517-.231.8778 1.693-10.69826.826-.55997-1.081zm-4.1354 7.6488 3.722-.351-1.2993-2.506-2.4321 2.839z"/><path d="m3.65931 93.3978c-.20275-.6957-.25283-1.348-.15025-1.9571.0982-.6077.33647-1.1257.71481-1.554.37707-.4327.8675-.737 1.47129-.913.62566-.1824 1.22185-.1971 1.78856-.0442.56234.1541 1.05474.4592 1.47719.9152.41681.4529.72595 1.025.92742 1.7163l.49917 1.7129 3.2355-.9429.4973 1.7063-9.47022 2.76zm4.78079-1.3578c-.10711-.3675-.26928-.6715-.48653-.912-.22289-.2436-.47916-.4062-.7688-.4879-.29092-.0862-.5917-.0839-.90235.0066-.33252.0969-.60207.2633-.80865.4991-.21097.2371-.34373.5227-.39831.8566-.06022.3309-.03551.6844.07415 1.0607l.45905 1.5751 3.3077-.964z"/><path d="m.924037 80.7205c-.072518-.721-.002834-1.3715.209053-1.9516.20735-.5797.53608-1.0456.98617-1.3977.44963-.3567.98732-.5665 1.61307-.6295.64842-.0652 1.2373.029 1.76664.2827.52481.2541.95334.6438 1.28558 1.1692.32725.5213.52691 1.1401.59897 1.8566l.17856 1.7752 3.35322-.3373.1779 1.7684-9.81478.9872zm4.948193-.4634c-.03831-.3808-.14234-.7093-.3121-.9854-.17475-.2801-.39706-.4868-.66695-.6199-.27035-.1377-.56649-.1904-.88844-.158-.34461.0346-.63998.1491-.8861.3433-.25066.1947-.43326.4512-.5478.7696-.11953.3144-.15969.6665-.12046 1.0565l.16419 1.6324 3.42801-.3448z"/><path d="m8.67606 58.5325-6.71986-1.3617.35299-1.742 9.66771 1.9591-.3652 1.8023-7.60309 3.3068-.02037.1005 6.65956 1.3495-.353 1.7419-9.666382-1.9658.351631-1.7352 7.679721-3.375z"/><path d="m9.80038 49.7402 2.51602 1.0531 1.8291-4.37 1.4062.5886-2.5153 6.0095-9.09935-3.8087 2.46463-5.8528 1.39989.5859-1.76577 4.2186 2.35838.9872 1.60213-3.8277 1.40619.5886z"/><path d="m20.5693 34.0584-4.8669-6.3038 1.0683-1.4799 6.2097 8.2511-1.2123 1.6794-4.2201-1.3601-.04.0555 2.5237 3.7102-1.2003 1.6628-10.07874-2.8913 1.08028-1.4965 7.83196 2.2896.044-.061-2.718-4.095-3.0934-.9936.9962-1.3802 7.6116 2.5015z"/><path d="m28.9525 14.8688c1.3479-.9433 2.5779-1.3118 3.6901-1.1056 1.1133.1998 2.1364.9662 3.0693 2.2992.9642 1.3777 1.363 2.6311 1.1963 3.7601-.1666 1.129-.9108 2.156-2.2325 3.081l-2.7556 1.9284-5.6671-8.0739zm4.8491 6.7858c.8476-.5932 1.304-1.2603 1.3695-2.0014.0665-.7474-.2386-1.6047-.9154-2.5717-.648-.926-1.3323-1.4706-2.0529-1.6338-.7168-.1659-1.5102.0556-2.3801.6645l-1.2434.8701 3.9117 5.5894z"/><path d="m41.7224 13.4127 1.1185 2.4877 4.3207-1.9426.6251 1.3904-5.9418 2.6714-4.0449-8.99678 5.7977-2.59167.6223 1.38412-4.1711 1.87531 1.0484 2.33182 3.7845-1.7015.6251 1.3903z"/><path d="m53.6337 13.1512-1.7223.4388-2.4352-9.55898 6.207-1.58129.3763 1.47723-4.4847 1.14252.643 2.52387 4.0674-1.03619.3746 1.47061-4.0673 1.03619z"/><path d="m63.9519 10.9962-1.7663.1983-1.1004-9.80272 1.7663-.19827z"/><path d="m75.2273 7.5913.3174-6.849092 1.7754.082275-.4566 9.853717-1.8369-.0852-4.4313-7.00752-.1025-.00475-.3145 6.78767-1.7755-.0823.4635-9.853376 1.7686.081959 4.5104 7.072827z"/><path d="m83.3019 11.5784-1.7405-.3596 1.996-9.66024 1.7405.35963z"/><path d="m97.7981 5.52182-.5195 1.43319-2.7507-.99692-2.8457 7.83201-1.6775-.6079 2.8523-7.82972-2.77-1.00391.5194-1.43319z"/><path d="m100.059 17.3762-1.5653-.8412 4.6683-8.68953 1.566.84118z"/><path d="m107.569 22.2346c-.779-.6021-1.335-1.3057-1.669-2.1109-.33-.8025-.423-1.6402-.278-2.5131.151-.8738.539-1.7146 1.164-2.5222.621-.8041 1.334-1.3875 2.139-1.7504.808-.3602 1.641-.4797 2.498-.3588.863.1202 1.684.4813 2.463 1.0833.775.5993 1.328 1.3001 1.658 2.1026.333.7988.425 1.6333.277 2.5035-.149.8702-.534 1.7073-1.155 2.5113-.625.8077-1.341 1.3948-2.148 1.7613-.805.3629-1.637.4857-2.497.3683s-1.677-.4757-2.452-1.0749zm.932-1.2061c.498.3846 1.031.6039 1.6.6578.569.0538 1.127-.0565 1.673-.3311.553-.2755 1.048-.6962 1.485-1.2623.438-.5661.718-1.1477.839-1.7448.129-.5979.094-1.1636-.105-1.697-.195-.537-.542-.9979-1.039-1.3825-.501-.3874-1.038-.6095-1.611-.6661-.566-.0575-1.124.0497-1.674.3215-.547.2682-1.04.6853-1.477 1.2514-.438.5661-.72 1.1513-.848 1.7556-.124.6007-.087 1.171.112 1.7108s.548 1.0021 1.045 1.3867z"/><path d="m121.761 31.2238 5.268-4.3882 1.138 1.3657-7.58 6.3132-1.177-1.4129 2.181-7.9993-.066-.0788-5.221 4.3488-1.137-1.3656 7.583-6.308 1.134 1.3604-2.176 8.1017z"/></g></svg>